<svg width="82" height="70" viewBox="0 0 82 70" fill="none" xmlns="http://www.w3.org/2000/svg">
<g clip-path="url(#clip0_11_4249)">
<path d="M81.86 46.23H78.66C79.73 46.23 80.79 46.23 81.86 46.23C81.86 43.74 81.86 41.24 81.86 38.75C82.02 37.15 81.39 35.91 80.16 34.94C78.69 33.77 76.99 33.1 75.21 32.58C71.29 31.43 67.27 31.02 63.21 30.91C63.2 28.21 63.18 25.51 63.17 22.81C62.04 22.76 60.91 22.71 59.78 22.66C58.46 24.08 56.68 24.59 54.92 25.08C51.86 25.93 48.73 26.26 45.57 26.43C41.15 26.67 36.78 26.35 32.45 25.41C32.02 25.32 31.61 25.08 31.21 24.87C29.81 24.12 28.42 23.36 27.03 22.6C26.9 22.41 26.66 22.23 26.65 22.03C26.62 20.69 26.63 19.34 26.63 18.08C37.74 21.74 48.78 21.72 59.99 17.86C59.92 19.42 59.85 21.04 59.77 22.66C60.9 22.71 62.03 22.76 63.16 22.81C63.16 19.67 63.16 16.52 63.16 13.38C62.86 11.9 62.07 10.74 60.79 9.94997C60.13 9.53997 59.44 9.13997 58.72 8.83997C54.05 6.89997 49.1 6.42997 44.12 6.27997C40.3 6.15997 36.5 6.46997 32.76 7.21997C30.16 7.73997 27.59 8.41997 25.37 9.95997C24.2 10.78 23.19 11.77 23.21 13.37C23.21 16.01 23.21 18.65 23.21 21.36C22.92 21.33 22.57 21.3 22.23 21.27C18.99 20.96 15.81 21.13 12.78 22.45C12.5 22.55 12.21 22.62 11.94 22.74C9.98001 23.58 8.21001 24.72 6.65001 26.16C4.33001 28.3 2.52001 30.8 1.53001 33.84L3.83001 33.96L1.53001 33.84C1.24001 34.79 0.870006 35.73 0.670006 36.7C0.200006 38.99 0.0400064 41.3 0.570006 43.61C1.04001 47.12 2.45001 50.22 4.76001 52.9C4.79001 52.98 4.80001 53.07 4.85001 53.12C8.51001 57.27 13.07 59.65 18.61 59.99C23.35 60.28 27.63 58.92 31.46 56.11C31.78 55.87 32.31 55.79 32.72 55.83C35.73 56.12 38.72 56.47 41.73 56.77C42.15 56.81 42.35 56.9 42.58 57.31C42.96 58 43.51 58.6 44 59.23C44.99 59.82 45.93 60.54 46.98 60.98C50.17 62.33 53.57 62.83 57 63.14C62.37 63.63 67.7 63.41 72.98 62.27C75.53 61.72 78.03 60.99 80.12 59.34C81.2 58.49 81.96 57.43 81.87 55.95C81.87 52.7 81.87 49.45 81.87 46.19L81.86 46.23ZM77.51 48.13C75.55 49.31 73.37 49.85 71.16 50.27C67.56 50.95 63.91 51.2 60.25 51.08C56.21 50.94 52.21 50.54 48.37 49.15C47.66 48.89 46.99 48.53 46.31 48.19C45.71 47.89 45.34 47.43 45.4 46.71C45.37 45.57 45.33 44.43 45.3 43.29L45.36 42.48L49.02 43.74C49.16 43.68 49.29 43.58 49.43 43.52C49.29 43.58 49.16 43.68 49.02 43.74C52.15 44.69 55.37 45.15 58.61 45.2C61.99 45.25 65.38 45.15 68.74 44.86C70.82 44.69 72.86 44.05 74.91 43.63C76.11 43.21 77.3 42.78 78.63 42.31C78.63 43.65 78.63 44.93 78.63 46.21C78.68 47.11 78.21 47.68 77.48 48.11L77.51 48.13ZM39.03 42.67V38.72H42.11C42.11 39.59 42.11 40.39 42.11 41.19C42.14 41.89 42.16 42.6 42.19 43.3C42.19 43.57 42.24 43.86 42.16 44.1C42.1 44.28 41.87 44.53 41.72 44.52C40.78 44.5 39.84 44.43 38.86 44.37L39.03 42.66V42.67ZM45.98 41.19C47.27 41.19 48.56 41.19 49.85 41.19C48.56 41.19 47.27 41.19 45.98 41.19ZM65.15 34.31C68.67 34.53 72.14 34.94 75.47 36.15C76.32 36.46 77.13 36.92 77.93 37.37C78.52 37.7 78.82 38.17 78.15 38.75C75.99 40.24 73.49 40.8 70.98 41.32C66.75 42.2 62.46 42.16 58.19 41.95C55.81 41.83 53.45 41.33 51.07 41.01C50.94 40.99 50.8 41.01 50.66 41.01C50.42 40.9 50.2 40.76 49.95 40.7C48.52 40.33 47.12 39.85 45.96 38.91C45.65 38.66 45.53 38.19 45.32 37.83C47.11 36.23 49.35 35.68 51.6 35.19C56.06 34.22 60.59 34.04 65.14 34.32L65.15 34.31ZM59.92 26.76V30.91C55.62 31.11 51.33 31.49 47.27 33.06C45.91 33.59 44.69 34.49 43.4 35.22C43.2 35.33 42.98 35.5 42.76 35.49C41.46 35.47 40.16 35.43 38.87 35.32C38.66 35.3 38.41 34.96 38.29 34.71C37.73 33.52 37.2 32.31 36.66 31.11L35.68 29.35C43.96 30.15 52.07 30.01 59.9 26.77L59.92 26.76ZM27.89 12.25C30.13 11.04 32.6 10.55 35.08 10.14C38.73 9.52997 42.41 9.48997 46.08 9.66997C49.97 9.85997 53.84 10.32 57.46 11.9C58.28 12.26 58.99 12.88 59.75 13.39C59.33 13.82 58.98 14.36 58.48 14.66C56.37 15.89 54.01 16.38 51.64 16.8C47.74 17.5 43.79 17.62 39.85 17.42C36.13 17.23 32.42 16.76 28.93 15.33C27.96 14.93 26.97 14.53 26.4 13.55C26.89 13.11 27.32 12.56 27.89 12.25ZM22.5 56.53C17.73 57.32 13.46 56.17 9.64001 53.26C9.34001 53.03 9.05001 52.79 8.75001 52.56C7.83001 52.62 6.91001 52.67 5.99001 52.74C6.91001 52.67 7.83001 52.62 8.75001 52.56C6.20001 50.08 4.50001 47.13 3.79001 43.63C3.17001 40.33 3.65001 37.15 4.84001 34.04C5.86001 32.02 7.13001 30.2 8.78001 28.63C14.49 23.22 24.12 22.95 30.03 28.12C31.12 29.07 32.04 30.22 33.04 31.28C33.97 31.23 34.91 31.19 35.84 31.14C34.91 31.19 33.97 31.23 33.04 31.28C34.31 33.23 35.17 35.35 35.7 37.61C35.75 39.29 35.8 40.97 35.85 42.65C35.52 43.94 35.19 45.23 34.86 46.52C33.85 48.73 32.6 50.77 30.77 52.41C30.35 52.79 29.93 53.17 29.5 53.54C27.37 55.01 25.07 56.1 22.49 56.53H22.5ZM29.64 53.57C29.81 53.61 29.98 53.66 30.16 53.68C29.99 53.65 29.82 53.61 29.64 53.57ZM38.63 53.43L34.83 52.96C35.4 52.11 35.93 51.4 36.37 50.64C36.85 49.82 37.23 48.95 37.68 48.12C37.79 47.91 38.02 47.6 38.19 47.61C39.43 47.63 40.67 47.73 41.92 47.8C41.99 47.8 42.07 47.86 42.34 47.99V53.5C41.1 53.48 39.87 53.46 38.63 53.44V53.43ZM77.03 57.48C74.85 58.68 72.42 59.16 69.99 59.56C66.24 60.18 62.44 60.31 58.67 60.01C55.72 59.77 52.8 59.14 49.87 58.68C49.73 58.74 49.6 58.84 49.46 58.88C49.6 58.83 49.73 58.74 49.87 58.68C48.81 58.22 47.73 57.78 46.69 57.29C45.89 56.91 45.48 56.28 45.59 55.34C45.65 54.81 45.56 54.26 45.54 53.72C45.23 53.72 44.93 53.72 44.62 53.72C44.93 53.72 45.23 53.72 45.54 53.72V51.73C56.61 55.34 67.6 55.36 78.65 51.5V56C78.11 56.5 77.65 57.15 77.03 57.49V57.48Z" fill="#4DA9D4"/>
<path d="M41.1699 60.4H37.45V64.12H41.1699V60.4Z" fill="#4DA9D4"/>
<path d="M72.25 11.9299H67.6V16.5799H72.25V11.9299Z" fill="#BCBDBF"/>
<path d="M74.7399 9.42993H72.1799V11.9999H74.7399V9.42993Z" fill="#BCBDBF"/>
<path d="M81.22 16.58H72.24V25.56H81.22V16.58Z" fill="#BCBDBF"/>
<path d="M20.67 29.21H17.58V32.94H20.67V29.21Z" fill="#4DA9D4"/>
<path d="M20.67 47.38H17.58V51.11H20.67V47.38Z" fill="#4DA9D4"/>
<path d="M18.58 47.99C20.76 47.99 22.48 47.59 23.75 46.78C25.02 45.98 25.63 44.95 25.59 43.71C25.57 43.02 25.39 42.39 25.05 41.83C24.72 41.27 24.24 40.77 23.63 40.35C23.02 39.93 22.02 39.46 20.65 38.96C18.04 38.01 16.72 37.09 16.69 36.21C16.67 35.68 16.88 35.25 17.33 34.91C17.78 34.58 18.41 34.41 19.24 34.41C20.64 34.41 21.75 34.62 23.04 35.31L24.29 33.09C23.17 32.43 21.44 32.09 19.09 32.09C17.29 32.09 15.83 32.48 14.71 33.26C13.59 34.04 13.05 35.03 13.09 36.22C13.11 36.86 13.28 37.44 13.59 37.96C13.9 38.48 14.33 38.94 14.88 39.32C15.43 39.7 16.5 40.19 18.07 40.78C19.65 41.37 20.69 41.9 21.21 42.38C21.72 42.86 21.99 43.36 22.01 43.88C22.05 45 21.01 45.56 18.9 45.56C17.53 45.56 16.28 45.23 14.83 44.48L13.55 46.95C15.1 47.69 16.69 47.99 18.59 47.99" fill="#4DA9D4"/>
<path d="M18.58 47.99C20.76 47.99 22.48 47.59 23.75 46.78C25.02 45.98 25.63 44.95 25.59 43.71C25.57 43.02 25.39 42.39 25.05 41.83C24.72 41.27 24.24 40.77 23.63 40.35C23.02 39.93 22.02 39.46 20.65 38.96C18.04 38.01 16.72 37.09 16.69 36.21C16.67 35.68 16.88 35.25 17.33 34.91C17.78 34.58 18.41 34.41 19.24 34.41C20.64 34.41 21.75 34.62 23.04 35.31L24.29 33.09C23.17 32.43 21.44 32.09 19.09 32.09C17.29 32.09 15.83 32.48 14.71 33.26C13.59 34.04 13.05 35.03 13.09 36.22C13.11 36.86 13.28 37.44 13.59 37.96C13.9 38.48 14.33 38.94 14.88 39.32C15.43 39.7 16.5 40.19 18.07 40.78C19.64 41.37 20.69 41.9 21.2 42.38C21.71 42.86 21.98 43.36 22 43.88C22.04 45 21 45.56 18.89 45.56C17.52 45.56 16.27 45.23 14.82 44.48L13.54 46.95C15.09 47.69 16.68 47.99 18.58 47.99Z" fill="#4DA9D4"/>
<path d="M23.77 35.88C24.67 35.88 25.39 35.15 25.39 34.26C25.39 33.37 24.66 32.64 23.77 32.64C22.88 32.64 22.15 33.37 22.15 34.26C22.15 35.15 22.88 35.88 23.77 35.88Z" fill="#4DA9D4"/>
<path d="M13.84 47.2899C14.8 47.2899 15.58 46.5099 15.58 45.5499C15.58 44.5899 14.8 43.8099 13.84 43.8099C12.88 43.8099 12.1 44.5899 12.1 45.5499C12.1 46.5099 12.88 47.2899 13.84 47.2899Z" fill="#4DA9D4"/>
<path d="M13.7101 0V7.21" stroke="#C3F97D" stroke-width="1.69"/>
<path d="M17.36 3.59998H10.05" stroke="#C3F97D" stroke-width="1.69"/>
<path d="M28.0299 63.2V69.3799" stroke="#68BFDF" stroke-width="1.74"/>
<path d="M31.1199 66.2899H24.9399" stroke="#68BFDF" stroke-width="1.74"/>
<path d="M19.53 58.47C29.3386 58.47 37.29 50.5185 37.29 40.7099C37.29 30.9014 29.3386 22.95 19.53 22.95C9.72144 22.95 1.77002 30.9014 1.77002 40.7099C1.77002 50.5185 9.72144 58.47 19.53 58.47Z" stroke="#60D0AE" stroke-width="3.55" stroke-miterlimit="10"/>
</g>
<defs>
<clipPath id="clip0_11_4249">
<rect width="81.89" height="69.38" fill="white"/>
</clipPath>
</defs>
</svg>
