<svg width="79" height="86" viewBox="0 0 79 86" fill="none" xmlns="http://www.w3.org/2000/svg">
<g clip-path="url(#clip0_11_4273)">
<path d="M41.01 24.32C46.91 18.34 52.75 12.43 58.6 6.51C58.51 6.5 58.32 6.46 58.14 6.46C56.09 6.46 54.04 6.46 51.99 6.46C50.71 6.46 49.9 5.8 49.91 4.77C49.92 3.76 50.7 3.12 51.94 3.12C55.51 3.12 59.08 3.12 62.65 3.12C63.94 3.12 64.59 3.75 64.59 5.01C64.59 8.66 64.59 12.31 64.59 15.96C64.59 16.97 64.02 17.7 63.19 17.83C62.37 17.95 61.57 17.47 61.33 16.67C61.26 16.42 61.25 16.15 61.25 15.88C61.25 13.86 61.25 11.83 61.25 9.81C61.25 9.55 61.25 9.3 61.25 8.88C60.92 9.18 60.71 9.37 60.51 9.56C54.6 15.48 48.69 21.39 42.78 27.31C42.59 27.5 42.41 27.69 42.21 27.87C41.36 28.65 40.51 28.64 39.68 27.81C37.82 25.95 35.96 24.07 34.11 22.19C33.93 22 33.8 21.75 33.62 21.49C31.23 23.89 28.99 26.14 26.75 28.38C18.93 36.2 11.12 44.02 3.28004 51.81C2.86004 52.22 2.22004 52.6 1.66004 52.62C1.19004 52.64 0.600042 52.2 0.250042 51.81C-0.159958 51.34 -0.0599576 50.7 0.310042 50.17C0.490042 49.91 0.720042 49.68 0.940042 49.46C11.24 39.16 21.54 28.86 31.85 18.56C33.08 17.33 33.9 17.33 35.11 18.53C36.85 20.26 38.59 21.98 40.33 23.71C40.52 23.89 40.71 24.07 41 24.33L41.01 24.32Z" fill="#C3F97D"/>
<path d="M52.13 84.9699C50.63 84.5599 49.05 84.3099 47.63 83.6999C41.79 81.1699 38.43 76.6899 37.57 70.3599C37.56 70.2599 37.53 70.1699 37.37 70.0799C37.37 71.1099 37.37 72.1499 37.37 73.1799C37.37 74.9099 36.79 75.4999 35.09 75.4999C33.3 75.4999 31.52 75.4999 29.73 75.4999C28.17 75.4999 27.53 74.8799 27.53 73.3399C27.53 63.6699 27.53 53.9999 27.53 44.3299C27.53 42.7799 28.16 42.1599 29.71 42.1499C31.55 42.1499 33.39 42.1499 35.23 42.1499C36.73 42.1499 37.37 42.7799 37.37 44.2899C37.37 51.4799 37.37 58.6699 37.37 65.8699V66.8999H37.49C37.62 66.2099 37.74 65.5099 37.89 64.8099C38.29 62.9399 39.07 61.2399 40.06 59.6099C40.29 59.2299 40.45 58.7299 40.45 58.2899C40.47 50.4899 40.47 42.6799 40.47 34.8799C40.47 33.2699 41.01 32.7299 42.63 32.7299C44.5 32.7299 46.36 32.7299 48.23 32.7299C49.68 32.7299 50.27 33.3099 50.27 34.7599C50.27 40.3299 50.27 45.8899 50.27 51.4599C50.27 51.7799 50.27 52.0899 50.27 52.4799L53.42 52.0799V51.0999C53.42 42.7899 53.42 34.4799 53.42 26.1699C53.42 24.7199 53.99 24.1299 55.43 24.1299C57.32 24.1199 59.21 24.1299 61.11 24.1299C62.64 24.1299 63.18 24.6699 63.18 26.1799C63.18 35.4999 63.18 44.8299 63.17 54.1499C63.17 54.7799 63.39 55.1399 63.86 55.5199C69.33 59.9799 71.5 65.7399 69.79 72.5699C68.09 79.3599 63.45 83.3799 56.58 84.7999C56.27 84.8599 55.97 84.9299 55.66 84.9899H52.14L52.13 84.9699ZM53.88 81.6199C61.11 81.6199 67 75.7399 67 68.5299C67 61.3199 61.09 55.4199 53.88 55.4299C46.7 55.4299 40.82 61.3399 40.79 68.5799C40.76 75.7099 46.7 81.6299 53.88 81.6199ZM33.96 72.0999V45.5599H30.94V72.0999H33.96ZM56.79 27.4799V52.3199L59.79 53.1399V27.4799H56.79ZM43.88 36.0699V55.4199C44.72 54.9199 45.46 54.3999 46.28 54.0199C46.81 53.7699 46.93 53.4499 46.93 52.9099C46.91 47.5599 46.93 42.1999 46.92 36.8499C46.92 36.5999 46.89 36.3399 46.87 36.0699H43.89H43.88Z" fill="#4DA9D4"/>
<path d="M24.2801 60.67C24.2801 64.83 24.2801 68.98 24.2801 73.14C24.2801 74.7 23.6601 75.33 22.1201 75.34C20.2801 75.34 18.4401 75.34 16.6001 75.34C15.0801 75.34 14.4501 74.71 14.4501 73.21C14.4501 64.85 14.4501 56.48 14.4501 48.12C14.4501 46.6 15.0701 45.99 16.5701 45.98C18.4401 45.98 20.3001 45.98 22.1701 45.98C23.6701 45.98 24.2801 46.6 24.2801 48.13C24.2801 52.31 24.2801 56.49 24.2801 60.68V60.67ZM17.8501 49.35V72.09H20.9001V49.35H17.8501Z" fill="#4DA9D4"/>
<path d="M11.19 67.7799C11.19 69.6399 11.19 71.51 11.19 73.37C11.19 74.62 10.54 75.3099 9.29002 75.32C7.29002 75.3499 5.30002 75.3499 3.30002 75.32C2.07002 75.2999 1.41002 74.66 1.41002 73.44C1.39002 69.66 1.39002 65.8799 1.41002 62.0999C1.41002 60.8199 2.06002 60.2 3.34002 60.2C5.31002 60.2 7.28002 60.2 9.25002 60.2C10.55 60.2 11.19 60.8599 11.19 62.1899C11.19 64.0499 11.19 65.9199 11.19 67.7799ZM4.80002 63.56V72.0899H7.79002V63.56H4.80002Z" fill="#4DA9D4"/>
<path d="M55.19 60.84H53.04V63.44H55.19V60.84Z" fill="#4DA9D4"/>
<path d="M55.19 73.48H53.04V76.08H55.19V73.48Z" fill="#4DA9D4"/>
<path d="M53.74 73.91C55.25 73.91 56.45 73.63 57.34 73.07C58.22 72.51 58.65 71.8 58.62 70.93C58.6 70.45 58.48 70.01 58.25 69.62C58.02 69.23 57.69 68.89 57.26 68.59C56.83 68.3 56.14 67.97 55.19 67.62C53.38 66.96 52.46 66.32 52.44 65.71C52.43 65.34 52.57 65.04 52.88 64.81C53.19 64.58 53.63 64.46 54.21 64.46C55.19 64.46 55.96 64.61 56.85 65.08L57.72 63.54C56.94 63.08 55.73 62.85 54.1 62.85C52.85 62.85 51.83 63.12 51.05 63.67C50.27 64.22 49.89 64.9 49.92 65.73C49.94 66.17 50.05 66.58 50.27 66.94C50.48 67.31 50.78 67.62 51.17 67.89C51.55 68.16 52.3 68.49 53.39 68.9C54.49 69.31 55.21 69.68 55.57 70.01C55.93 70.34 56.11 70.69 56.13 71.05C56.16 71.83 55.44 72.22 53.97 72.22C53.01 72.22 52.14 71.99 51.14 71.47L50.25 73.19C51.33 73.71 52.44 73.91 53.75 73.91" fill="#4DA9D4"/>
<path d="M53.74 73.91C55.25 73.91 56.45 73.63 57.34 73.07C58.22 72.51 58.65 71.8 58.62 70.93C58.6 70.45 58.48 70.01 58.25 69.62C58.02 69.23 57.69 68.89 57.26 68.59C56.83 68.3 56.14 67.97 55.19 67.62C53.38 66.96 52.46 66.32 52.44 65.71C52.43 65.34 52.57 65.04 52.88 64.81C53.19 64.58 53.63 64.46 54.21 64.46C55.19 64.46 55.96 64.61 56.85 65.08L57.72 63.54C56.94 63.08 55.73 62.85 54.1 62.85C52.85 62.85 51.83 63.12 51.05 63.67C50.27 64.22 49.89 64.9 49.92 65.73C49.94 66.17 50.05 66.58 50.27 66.94C50.49 67.31 50.78 67.62 51.17 67.89C51.55 68.16 52.3 68.49 53.39 68.9C54.49 69.31 55.21 69.68 55.57 70.01C55.93 70.34 56.11 70.69 56.13 71.05C56.16 71.83 55.44 72.22 53.97 72.22C53.01 72.22 52.14 71.99 51.14 71.47L50.25 73.19C51.33 73.71 52.44 73.91 53.75 73.91H53.74Z" fill="#4DA9D4"/>
<path d="M57.35 65.48C57.97 65.48 58.48 64.97 58.48 64.35C58.48 63.73 57.97 63.22 57.35 63.22C56.73 63.22 56.22 63.73 56.22 64.35C56.22 64.97 56.73 65.48 57.35 65.48Z" fill="#4DA9D4"/>
<path d="M50.44 73.42C51.11 73.42 51.65 72.88 51.65 72.21C51.65 71.54 51.11 71 50.44 71C49.77 71 49.23 71.54 49.23 72.21C49.23 72.88 49.77 73.42 50.44 73.42Z" fill="#4DA9D4"/>
<path d="M17.87 0V7.21" stroke="#C3F97D" stroke-width="1.67"/>
<path d="M21.48 3.59998H14.27" stroke="#C3F97D" stroke-width="1.67"/>
<path d="M7.78992 12.6899V18.8799" stroke="#68BFDF" stroke-width="1.74"/>
<path d="M10.88 15.7899H4.69995" stroke="#68BFDF" stroke-width="1.74"/>
<path d="M78.59 47.95H74.27V52.27H78.59V47.95Z" fill="#4DAAD4"/>
<path d="M53.91 83.21C61.9789 83.21 68.52 76.6689 68.52 68.6C68.52 60.5311 61.9789 53.99 53.91 53.99C45.8412 53.99 39.3 60.5311 39.3 68.6C39.3 76.6689 45.8412 83.21 53.91 83.21Z" stroke="#60D0AE" stroke-width="3.79" stroke-miterlimit="10"/>
</g>
<defs>
<clipPath id="clip0_11_4273">
<rect width="78.59" height="85.1" fill="white"/>
</clipPath>
</defs>
</svg>
