<svg width="52" height="52" viewBox="0 0 52 52" fill="none" xmlns="http://www.w3.org/2000/svg">
<path d="M41.0822 0.0307617H10.7639C4.90409 0.0307617 0.153809 4.78104 0.153809 10.6408V40.9592C0.153809 46.8189 4.90409 51.5692 10.7639 51.5692H41.0822C46.942 51.5692 51.6923 46.8189 51.6923 40.9592V10.6408C51.6923 4.78104 46.942 0.0307617 41.0822 0.0307617Z" fill="white"/>
<path d="M27.7332 28.2026V40.5687H22.0507V28.2026H17.3333V23.19H22.0507V21.3607C22.0507 14.5907 24.8739 11.0256 30.8661 11.0256C32.7026 11.0256 33.1563 11.3209 34.1646 11.5586V16.5208C33.0339 16.3192 32.717 16.2184 31.5503 16.2184C30.1603 16.2184 29.4256 16.6073 28.7487 17.3851C28.0717 18.1629 27.7332 19.5097 27.7332 21.4255V23.1972H34.1646L32.4361 28.2099H27.7332V28.2026Z" fill="#141E30"/>
</svg>
