<svg width="977" height="977" viewBox="0 0 977 977" fill="none" xmlns="http://www.w3.org/2000/svg">
<mask id="mask0_314_2" style="mask-type:alpha" maskUnits="userSpaceOnUse" x="0" y="0" width="977" height="977">
<path d="M488.5 977C758.291 977 977 758.291 977 488.5C977 218.709 758.291 0 488.5 0C218.709 0 0 218.709 0 488.5C0 758.291 218.709 977 488.5 977Z" fill="url(#paint0_radial_314_2)"/>
</mask>
<g mask="url(#mask0_314_2)">
<path d="M689.437 2487.8H617.365L969.397 8H1041.47L689.437 2487.8Z" stroke="#96C9FD" stroke-width="2.68" stroke-linecap="round" stroke-linejoin="round"/>
<path d="M836.668 2487.8H764.588L1116.63 8H1188.7L836.668 2487.8Z" stroke="#96C9FD" stroke-width="2.68" stroke-linecap="round" stroke-linejoin="round"/>
<path d="M983.892 2487.8H911.819L1263.86 8H1335.93L983.892 2487.8Z" stroke="#96C9FD" stroke-width="2.68" stroke-linecap="round" stroke-linejoin="round"/>
<path d="M-341.174 2487.8H-413.246L-61.2059 8H10.8666L-341.174 2487.8Z" stroke="#96C9FD" stroke-width="2.68" stroke-linecap="round" stroke-linejoin="round"/>
<path d="M-193.942 2487.8H-266.015L86.0252 8H158.098L-193.942 2487.8Z" stroke="#96C9FD" stroke-width="2.68" stroke-linecap="round" stroke-linejoin="round"/>
<path d="M-46.711 2487.8H-118.784L233.248 8H305.329L-46.711 2487.8Z" stroke="#96C9FD" stroke-width="2.68" stroke-linecap="round" stroke-linejoin="round"/>
<path d="M100.52 2487.8H28.4395L380.48 8H452.552L100.52 2487.8Z" stroke="#96C9FD" stroke-width="2.68" stroke-linecap="round" stroke-linejoin="round"/>
<path d="M247.743 2487.8H175.671L527.711 8H599.783L247.743 2487.8Z" stroke="#96C9FD" stroke-width="2.68" stroke-linecap="round" stroke-linejoin="round"/>
<path d="M394.975 2487.8H322.902L674.942 8H747.015L394.975 2487.8Z" stroke="#96C9FD" stroke-width="2.68" stroke-linecap="round" stroke-linejoin="round"/>
<path d="M542.206 2487.8H470.133L822.165 8H894.246L542.206 2487.8Z" stroke="#96C9FD" stroke-width="2.68" stroke-linecap="round" stroke-linejoin="round"/>
<path d="M-837.54 106.289L-827.313 34.2278H1652.9L1642.66 106.289H-837.54Z" stroke="#96C9FD" stroke-width="2.68" stroke-linecap="round" stroke-linejoin="round"/>
<path d="M-858.437 253.496L-848.21 181.435H1632L1621.77 253.496H-858.437Z" stroke="#96C9FD" stroke-width="2.68" stroke-linecap="round" stroke-linejoin="round"/>
<path d="M-879.333 400.703L-869.107 328.634H1611.11L1600.87 400.703H-879.333Z" stroke="#96C9FD" stroke-width="2.68" stroke-linecap="round" stroke-linejoin="round"/>
<path d="M-900.231 547.902L-890.004 475.842H1590.21L1579.97 547.902H-900.231Z" stroke="#96C9FD" stroke-width="2.68" stroke-linecap="round" stroke-linejoin="round"/>
<path d="M-921.128 695.11L-910.901 623.049H1569.31L1559.08 695.11H-921.128Z" stroke="#96C9FD" stroke-width="2.68" stroke-linecap="round" stroke-linejoin="round"/>
<path d="M-942.025 842.317L-931.798 770.256H1548.41L1538.18 842.317H-942.025Z" stroke="#96C9FD" stroke-width="2.68" stroke-linecap="round" stroke-linejoin="round"/>
<path d="M-962.922 989.524L-952.695 917.455H1527.51L1517.28 989.524H-962.922Z" stroke="#96C9FD" stroke-width="2.68" stroke-linecap="round" stroke-linejoin="round"/>
</g>
<path d="M488.5 977C758.291 977 977 758.291 977 488.5C977 218.709 758.291 0 488.5 0C218.709 0 0 218.709 0 488.5C0 758.291 218.709 977 488.5 977Z" fill="url(#paint1_radial_314_2)"/>
<defs>
<radialGradient id="paint0_radial_314_2" cx="0" cy="0" r="1" gradientUnits="userSpaceOnUse" gradientTransform="translate(488.5 488.5) scale(488.5)">
<stop stop-color="#141E2F" stop-opacity="0"/>
<stop offset="0.08" stop-color="#141E2F" stop-opacity="0.15"/>
<stop offset="0.41" stop-color="#141E2F" stop-opacity="0.62"/>
<stop offset="0.72" stop-color="#141E2F" stop-opacity="0.9"/>
<stop offset="1" stop-color="#141E2F"/>
</radialGradient>
<radialGradient id="paint1_radial_314_2" cx="0" cy="0" r="1" gradientUnits="userSpaceOnUse" gradientTransform="translate(488.5 488.5) scale(488.5)">
<stop stop-color="#141E2F" stop-opacity="0"/>
<stop offset="0.08" stop-color="#141E2F" stop-opacity="0.15"/>
<stop offset="0.41" stop-color="#141E2F" stop-opacity="0.62"/>
<stop offset="0.72" stop-color="#141E2F" stop-opacity="0.9"/>
<stop offset="1" stop-color="#141E2F"/>
</radialGradient>
</defs>
</svg>
