<svg width="44" height="24" viewBox="0 0 44 24" fill="none" xmlns="http://www.w3.org/2000/svg">
<rect y="0.207031" width="43.582" height="23.586" rx="11.793" fill="#B0D747"/>
<path d="M25.6766 18.793C26.9261 18.7344 28.2289 17.8612 28.5427 16.7536C28.6019 16.5426 28.5723 16.1676 28.4243 16.0504C27.465 15.2592 26.4701 14.5091 25.4635 13.7765C25.3569 13.7003 25.0786 13.7238 24.9601 13.8117C24.67 14.0285 24.439 14.3215 24.1548 14.5501C23.6633 14.9545 23.006 14.9662 22.4908 14.597C21.1999 13.671 20.0748 12.581 19.1392 11.2976C18.7247 10.7291 18.7661 10.0493 19.2517 9.53944C19.4352 9.34604 19.6188 9.15265 19.8202 8.9827C20.1222 8.7307 20.1399 8.50214 19.8794 8.19154C19.2043 7.37109 18.5648 6.52719 17.9134 5.69501C17.4633 5.12655 17.2206 5.07967 16.5692 5.42543C15.071 6.23417 14.5617 8.05675 15.4085 9.61562C17.4515 13.378 20.3709 16.2848 24.1844 18.2832C24.6463 18.5234 25.1792 18.6231 25.6766 18.793Z" fill="#151E2F"/>
<path d="M25.6767 18.793C25.1793 18.6289 24.6463 18.5234 24.1844 18.2832C20.3709 16.2848 17.4515 13.378 15.4086 9.61562C14.5618 8.05675 15.0711 6.23417 16.5811 5.42543C17.2324 5.07967 17.4752 5.12655 17.9253 5.69501C18.5826 6.52719 19.2221 7.37109 19.8913 8.19154C20.1518 8.50801 20.1281 8.7307 19.832 8.9827C19.6307 9.15265 19.4471 9.34604 19.2636 9.53944C18.778 10.0493 18.7365 10.7291 19.1511 11.2976C20.0867 12.581 21.2118 13.671 22.5027 14.597C23.0179 14.9662 23.6693 14.9545 24.1667 14.5501C24.4509 14.3215 24.6759 14.0285 24.972 13.8117C25.0905 13.7238 25.3688 13.7003 25.4754 13.7765C26.4761 14.5149 27.4709 15.2651 28.4362 16.0503C28.5783 16.1676 28.6138 16.5368 28.5546 16.7536C28.2408 17.8612 26.938 18.7344 25.6885 18.793H25.6767Z" stroke="#151E2F" stroke-miterlimit="10"/>
</svg>
