<svg width="50" height="30" viewBox="0 0 50 30" fill="none" xmlns="http://www.w3.org/2000/svg">
<rect width="50" height="30" rx="15" fill="white"/>
<g clip-path="url(#clip0_51517_1698)">
<path d="M30.4868 24.5865C32.2503 24.5037 34.089 23.2713 34.532 21.708C34.6155 21.4103 34.5738 20.8809 34.3648 20.7155C33.0109 19.5989 31.6068 18.5401 30.186 17.5062C30.0355 17.3987 29.6427 17.4318 29.4756 17.5559C29.066 17.8619 28.7401 18.2755 28.3389 18.598C27.6452 19.1688 26.7175 19.1853 25.9904 18.6642C24.1684 17.3573 22.5804 15.8189 21.2599 14.0075C20.6749 13.2051 20.7334 12.2457 21.4187 11.5261C21.6778 11.2531 21.9369 10.9802 22.2211 10.7403C22.6473 10.3846 22.6724 10.0621 22.3046 9.62368C21.3519 8.46569 20.4492 7.27463 19.5299 6.1001C18.8947 5.29779 18.552 5.23162 17.6327 5.71962C15.5182 6.86106 14.7994 9.43344 15.9946 11.6336C18.878 16.9438 22.9983 21.0463 28.3807 23.8668C29.0326 24.206 29.7848 24.3466 30.4868 24.5865Z" fill="#151E2F"/>
<path d="M30.4869 24.5865C29.7849 24.3549 29.0327 24.206 28.3808 23.8669C22.9984 21.0463 18.8781 16.9438 15.9947 11.6336C14.7995 9.43344 15.5183 6.86106 17.6495 5.71962C18.5688 5.23162 18.9115 5.29779 19.5467 6.1001C20.4744 7.27463 21.377 8.46569 22.3214 9.62368C22.6892 10.0703 22.6558 10.3846 22.2379 10.7403C21.9537 10.9802 21.6946 11.2531 21.4355 11.5261C20.7502 12.2457 20.6917 13.2051 21.2767 14.0075C22.5973 15.8189 24.1852 17.3573 26.0072 18.6642C26.7343 19.1853 27.6537 19.1688 28.3557 18.598C28.7569 18.2755 29.0745 17.8619 29.4924 17.5559C29.6595 17.4318 30.0523 17.3987 30.2028 17.5062C31.6152 18.5484 33.0193 19.6071 34.3816 20.7155C34.5822 20.8809 34.6324 21.402 34.5488 21.708C34.1058 23.2713 32.2671 24.5037 30.5036 24.5865H30.4869Z" stroke="#151E2F" stroke-miterlimit="10"/>
</g>
<defs>
<clipPath id="clip0_51517_1698">
<rect width="20" height="20" fill="white" transform="translate(15 5)"/>
</clipPath>
</defs>
</svg>
