<svg width="50" height="50" viewBox="0 0 50 50" fill="none" xmlns="http://www.w3.org/2000/svg">
<path d="M39.7067 0H10.2933C4.60848 0 0 4.60848 0 10.2933V39.7067C0 45.3915 4.60848 50 10.2933 50H39.7067C45.3915 50 50 45.3915 50 39.7067V10.2933C50 4.60848 45.3915 0 39.7067 0Z" fill="white"/>
<path d="M19.0403 21.3872H14.2791V36.5753H19.0403V21.3872Z" fill="#141E30"/>
<path d="M31.9124 21.0543C31.7315 21.0326 31.5506 21.0182 31.3624 21.0109C28.6996 20.9024 27.1873 22.487 26.6663 23.16C26.5289 23.3409 26.4565 23.4567 26.4565 23.4567V21.4234H21.8979V36.6115H26.6591V29.4769C26.6591 28.4494 26.5795 27.3423 27.0933 26.4089C27.5274 25.6202 28.3161 25.2222 29.2134 25.2222C31.84 25.2222 31.9051 27.6028 31.9051 27.8271V36.6839H36.6663V26.7779C36.6663 23.3915 34.9442 21.3872 31.9051 21.0543H31.9124Z" fill="#141E30"/>
<path d="M19.3486 17.2936C19.6993 15.8078 18.7792 14.3191 17.2934 13.9684C15.8076 13.6177 14.3189 14.5379 13.9683 16.0237C13.6176 17.5094 14.5378 18.9981 16.0235 19.3488C17.5093 19.6995 18.998 18.7793 19.3486 17.2936Z" fill="#141E30"/>
</svg>
