<svg width="1808" height="6235" viewBox="0 0 1808 6235" fill="none" xmlns="http://www.w3.org/2000/svg">
<g opacity="0.1">
<g clip-path="url(#clip0_11_6221)">
<path d="M1414.22 708.22C1414.22 708.22 1414 708.22 1414 708.44V711.03C1414 711.03 1414 711.25 1414.22 711.25H1416.8C1416.8 711.25 1417.02 711.25 1417.02 711.03V708.44C1417.02 708.44 1417.02 708.22 1416.8 708.22H1414.22Z" fill="#B9D65F"/>
<path d="M1414.22 704.59C1414.22 704.59 1414 704.59 1414 704.81V706.78C1414 706.78 1414 707 1414.22 707H1416.19C1416.19 707 1416.41 707 1416.41 706.78V704.81C1416.41 704.81 1416.41 704.59 1416.19 704.59H1414.22V704.59Z" fill="#B9D65F"/>
<path d="M1414.52 715.69C1414.52 715.69 1414.3 715.69 1414.3 715.91V717.88C1414.3 717.88 1414.3 718.1 1414.52 718.1H1416.49C1416.49 718.1 1416.71 718.1 1416.71 717.88V715.91C1416.71 715.91 1416.71 715.69 1416.49 715.69H1414.52Z" fill="#064766"/>
<path d="M1423.09 712.32C1423.09 712.32 1422.87 712.32 1422.87 712.54V718.32C1422.87 718.32 1422.87 718.54 1423.09 718.54H1428.87C1428.87 718.54 1429.09 718.54 1429.09 718.32V712.54C1429.09 712.54 1429.09 712.32 1428.87 712.32H1423.09V712.32Z" fill="#064766"/>
<path d="M1418.38 704.97V706.41H1419.83V704.97H1418.38Z" fill="#00ACD9"/>
<path d="M1421.73 705.82C1421.73 705.82 1421.51 705.82 1421.51 706.04V708.04C1421.51 708.04 1421.51 708.26 1421.73 708.26H1423.7C1423.7 708.26 1423.92 708.26 1423.92 708.04V706.04C1423.92 706.04 1423.92 705.82 1423.7 705.82H1421.73V705.82Z" fill="#00ACD9"/>
<path d="M1418.97 713.58C1418.97 713.58 1418.75 713.58 1418.75 713.8V715.8C1418.75 715.8 1418.75 716.02 1418.97 716.02H1420.94C1420.94 716.02 1421.16 716.02 1421.16 715.8V713.8C1421.16 713.8 1421.16 713.58 1420.94 713.58H1418.97Z" fill="#B9D65F"/>
<path d="M1414.76 712.66V714.45H1416.55V712.66H1414.76Z" fill="#00ACD9"/>
<path d="M1414.4 719.52V720.84H1415.72V719.52H1414.4Z" fill="#064766"/>
<path d="M1416.44 729.21C1416.44 729.21 1416.22 729.21 1416.22 729.43V731.43C1416.22 731.43 1416.22 731.65 1416.44 731.65H1418.48C1418.48 731.65 1418.7 731.65 1418.7 731.43V729.43C1418.7 729.43 1418.7 729.21 1418.48 729.21H1416.44Z" fill="#4BBDA2"/>
<path d="M1414.98 723.27C1414.98 723.27 1414.76 723.27 1414.76 723.49V726.92C1414.76 726.92 1414.76 727.14 1414.98 727.14H1418.48C1418.48 727.14 1418.7 727.14 1418.7 726.92V723.49C1418.7 723.49 1418.7 723.27 1418.48 723.27H1414.98Z" fill="#00ACD9"/>
<path d="M1417.98 707.32C1417.98 707.32 1417.76 707.32 1417.76 707.54V710.11C1417.76 710.11 1417.76 710.33 1417.98 710.33H1420.57C1420.57 710.33 1420.79 710.33 1420.79 710.11V707.54C1420.79 707.54 1420.79 707.32 1420.57 707.32H1417.98Z" fill="#4BBDA2"/>
<path d="M1417.98 709.2C1417.98 709.2 1417.76 709.2 1417.76 709.42V711.99C1417.76 711.99 1417.76 712.21 1417.98 712.21H1420.57C1420.57 712.21 1420.79 712.21 1420.79 711.99V709.42C1420.79 709.42 1420.79 709.2 1420.57 709.2H1417.98V709.2Z" fill="#4BBDA2"/>
<path d="M1420.11 709.2C1420.11 709.2 1419.89 709.2 1419.89 709.42V711.99C1419.89 711.99 1419.89 712.21 1420.11 712.21H1422.7C1422.7 712.21 1422.92 712.21 1422.92 711.99V709.42C1422.92 709.42 1422.92 709.2 1422.7 709.2H1420.11V709.2Z" fill="#4BBDA2"/>
<path d="M1424.88 707.06C1424.88 707.06 1424.66 707.06 1424.66 707.28V710.71C1424.66 710.71 1424.66 710.93 1424.88 710.93H1428.33C1428.33 710.93 1428.55 710.93 1428.55 710.71V707.28C1428.55 707.28 1428.55 707.06 1428.33 707.06H1424.88V707.06Z" fill="#4BBDA2"/>
<path d="M1430.13 708.99C1430.13 708.99 1429.93 708.99 1429.93 709.19V711.5C1429.93 711.5 1429.93 711.7 1430.13 711.7H1432.45C1432.45 711.7 1432.65 711.7 1432.65 711.5V709.19C1432.65 709.19 1432.65 708.99 1432.45 708.99H1430.13V708.99Z" fill="#00ACD9"/>
<path d="M1452.32 776.78V726.51C1452.32 726.51 1446.47 717.99 1437.95 712.06H1429.91V721.38H1435.57C1435.79 721.38 1435.79 721.6 1435.79 721.6V727.22C1435.79 727.44 1435.57 727.44 1435.57 727.44H1429.93C1429.71 727.44 1429.71 727.22 1429.71 727.22V721.68H1428.37V719.74C1428.37 719.74 1428.37 719.52 1428.15 719.52H1424.12C1424.12 719.52 1423.9 719.52 1423.9 719.74V721.68H1420.29V733.78H1416.55C1416.55 733.78 1426.75 769.5 1452.33 776.8" fill="#064766"/>
<path d="M1491.02 704.04C1491.02 704.04 1466.03 701.73 1448.26 731.2C1448.26 731.2 1434.75 753.88 1423.84 750.78C1423.84 750.78 1434.02 772.16 1452.4 777C1452.4 777 1491.01 766.89 1491.01 704.04" fill="#4BBDA2"/>
<path d="M1416.88 718.05C1416.88 718.05 1416.66 718.05 1416.66 718.27V721.95C1416.66 721.95 1416.66 722.17 1416.88 722.17H1420.56C1420.56 722.17 1420.78 722.17 1420.78 721.95V718.27C1420.78 718.27 1420.78 718.05 1420.56 718.05H1416.88V718.05Z" fill="#064766"/>
</g>
<g clip-path="url(#clip1_11_6221)">
<path d="M1730.22 239.22C1730.22 239.22 1730 239.22 1730 239.44V242.03C1730 242.03 1730 242.25 1730.22 242.25H1732.8C1732.8 242.25 1733.02 242.25 1733.02 242.03V239.44C1733.02 239.44 1733.02 239.22 1732.8 239.22H1730.22Z" fill="#B9D65F"/>
<path d="M1730.22 235.59C1730.22 235.59 1730 235.59 1730 235.81V237.78C1730 237.78 1730 238 1730.22 238H1732.19C1732.19 238 1732.41 238 1732.41 237.78V235.81C1732.41 235.81 1732.41 235.59 1732.19 235.59H1730.22V235.59Z" fill="#B9D65F"/>
<path d="M1730.52 246.69C1730.52 246.69 1730.3 246.69 1730.3 246.91V248.88C1730.3 248.88 1730.3 249.1 1730.52 249.1H1732.49C1732.49 249.1 1732.71 249.1 1732.71 248.88V246.91C1732.71 246.91 1732.71 246.69 1732.49 246.69H1730.52Z" fill="#064766"/>
<path d="M1739.09 243.32C1739.09 243.32 1738.87 243.32 1738.87 243.54V249.32C1738.87 249.32 1738.87 249.54 1739.09 249.54H1744.87C1744.87 249.54 1745.09 249.54 1745.09 249.32V243.54C1745.09 243.54 1745.09 243.32 1744.87 243.32H1739.09V243.32Z" fill="#064766"/>
<path d="M1734.38 235.97V237.41H1735.83V235.97H1734.38Z" fill="#00ACD9"/>
<path d="M1737.73 236.82C1737.73 236.82 1737.51 236.82 1737.51 237.04V239.04C1737.51 239.04 1737.51 239.26 1737.73 239.26H1739.7C1739.7 239.26 1739.92 239.26 1739.92 239.04V237.04C1739.92 237.04 1739.92 236.82 1739.7 236.82H1737.73V236.82Z" fill="#00ACD9"/>
<path d="M1734.97 244.58C1734.97 244.58 1734.75 244.58 1734.75 244.8V246.8C1734.75 246.8 1734.75 247.02 1734.97 247.02H1736.94C1736.94 247.02 1737.16 247.02 1737.16 246.8V244.8C1737.16 244.8 1737.16 244.58 1736.94 244.58H1734.97Z" fill="#B9D65F"/>
<path d="M1730.76 243.66V245.45H1732.55V243.66H1730.76Z" fill="#00ACD9"/>
<path d="M1730.4 250.52V251.84H1731.72V250.52H1730.4Z" fill="#064766"/>
<path d="M1732.44 260.21C1732.44 260.21 1732.22 260.21 1732.22 260.43V262.43C1732.22 262.43 1732.22 262.65 1732.44 262.65H1734.48C1734.48 262.65 1734.7 262.65 1734.7 262.43V260.43C1734.7 260.43 1734.7 260.21 1734.48 260.21H1732.44Z" fill="#4BBDA2"/>
<path d="M1730.98 254.27C1730.98 254.27 1730.76 254.27 1730.76 254.49V257.92C1730.76 257.92 1730.76 258.14 1730.98 258.14H1734.48C1734.48 258.14 1734.7 258.14 1734.7 257.92V254.49C1734.7 254.49 1734.7 254.27 1734.48 254.27H1730.98Z" fill="#00ACD9"/>
<path d="M1733.98 238.32C1733.98 238.32 1733.76 238.32 1733.76 238.54V241.11C1733.76 241.11 1733.76 241.33 1733.98 241.33H1736.57C1736.57 241.33 1736.79 241.33 1736.79 241.11V238.54C1736.79 238.54 1736.79 238.32 1736.57 238.32H1733.98Z" fill="#4BBDA2"/>
<path d="M1733.98 240.2C1733.98 240.2 1733.76 240.2 1733.76 240.42V242.99C1733.76 242.99 1733.76 243.21 1733.98 243.21H1736.57C1736.57 243.21 1736.79 243.21 1736.79 242.99V240.42C1736.79 240.42 1736.79 240.2 1736.57 240.2H1733.98V240.2Z" fill="#4BBDA2"/>
<path d="M1736.11 240.2C1736.11 240.2 1735.89 240.2 1735.89 240.42V242.99C1735.89 242.99 1735.89 243.21 1736.11 243.21H1738.7C1738.7 243.21 1738.92 243.21 1738.92 242.99V240.42C1738.92 240.42 1738.92 240.2 1738.7 240.2H1736.11V240.2Z" fill="#4BBDA2"/>
<path d="M1740.88 238.06C1740.88 238.06 1740.66 238.06 1740.66 238.28V241.71C1740.66 241.71 1740.66 241.93 1740.88 241.93H1744.33C1744.33 241.93 1744.55 241.93 1744.55 241.71V238.28C1744.55 238.28 1744.55 238.06 1744.33 238.06H1740.88V238.06Z" fill="#4BBDA2"/>
<path d="M1746.13 239.99C1746.13 239.99 1745.93 239.99 1745.93 240.19V242.5C1745.93 242.5 1745.93 242.7 1746.13 242.7H1748.45C1748.45 242.7 1748.65 242.7 1748.65 242.5V240.19C1748.65 240.19 1748.65 239.99 1748.45 239.99H1746.13V239.99Z" fill="#00ACD9"/>
<path d="M1768.32 307.78V257.51C1768.32 257.51 1762.47 248.99 1753.95 243.06H1745.91V252.38H1751.57C1751.79 252.38 1751.79 252.6 1751.79 252.6V258.22C1751.79 258.44 1751.57 258.44 1751.57 258.44H1745.93C1745.71 258.44 1745.71 258.22 1745.71 258.22V252.68H1744.37V250.74C1744.37 250.74 1744.37 250.52 1744.15 250.52H1740.12C1740.12 250.52 1739.9 250.52 1739.9 250.74V252.68H1736.29V264.78H1732.55C1732.55 264.78 1742.75 300.5 1768.33 307.8" fill="#064766"/>
<path d="M1807.02 235.04C1807.02 235.04 1782.03 232.73 1764.26 262.2C1764.26 262.2 1750.75 284.88 1739.84 281.78C1739.84 281.78 1750.02 303.16 1768.4 308C1768.4 308 1807.01 297.89 1807.01 235.04" fill="#4BBDA2"/>
<path d="M1732.88 249.05C1732.88 249.05 1732.66 249.05 1732.66 249.27V252.95C1732.66 252.95 1732.66 253.17 1732.88 253.17H1736.56C1736.56 253.17 1736.78 253.17 1736.78 252.95V249.27C1736.78 249.27 1736.78 249.05 1736.56 249.05H1732.88V249.05Z" fill="#064766"/>
</g>
<g clip-path="url(#clip2_11_6221)">
<path d="M39.22 802.22C39.22 802.22 39 802.22 39 802.44V805.03C39 805.03 39 805.25 39.22 805.25H41.8C41.8 805.25 42.02 805.25 42.02 805.03V802.44C42.02 802.44 42.02 802.22 41.8 802.22H39.22Z" fill="#B9D65F"/>
<path d="M39.22 798.59C39.22 798.59 39 798.59 39 798.81V800.78C39 800.78 39 801 39.22 801H41.19C41.19 801 41.41 801 41.41 800.78V798.81C41.41 798.81 41.41 798.59 41.19 798.59H39.22V798.59Z" fill="#B9D65F"/>
<path d="M39.52 809.69C39.52 809.69 39.3 809.69 39.3 809.91V811.88C39.3 811.88 39.3 812.1 39.52 812.1H41.49C41.49 812.1 41.71 812.1 41.71 811.88V809.91C41.71 809.91 41.71 809.69 41.49 809.69H39.52Z" fill="#064766"/>
<path d="M48.09 806.32C48.09 806.32 47.87 806.32 47.87 806.54V812.32C47.87 812.32 47.87 812.54 48.09 812.54H53.87C53.87 812.54 54.09 812.54 54.09 812.32V806.54C54.09 806.54 54.09 806.32 53.87 806.32H48.09V806.32Z" fill="#064766"/>
<path d="M43.38 798.97V800.41H44.83V798.97H43.38Z" fill="#00ACD9"/>
<path d="M46.73 799.82C46.73 799.82 46.51 799.82 46.51 800.04V802.04C46.51 802.04 46.51 802.26 46.73 802.26H48.7C48.7 802.26 48.92 802.26 48.92 802.04V800.04C48.92 800.04 48.92 799.82 48.7 799.82H46.73V799.82Z" fill="#00ACD9"/>
<path d="M43.97 807.58C43.97 807.58 43.75 807.58 43.75 807.8V809.8C43.75 809.8 43.75 810.02 43.97 810.02H45.94C45.94 810.02 46.16 810.02 46.16 809.8V807.8C46.16 807.8 46.16 807.58 45.94 807.58H43.97Z" fill="#B9D65F"/>
<path d="M39.76 806.66V808.45H41.55V806.66H39.76Z" fill="#00ACD9"/>
<path d="M39.4 813.52V814.84H40.72V813.52H39.4Z" fill="#064766"/>
<path d="M41.44 823.21C41.44 823.21 41.22 823.21 41.22 823.43V825.43C41.22 825.43 41.22 825.65 41.44 825.65H43.48C43.48 825.65 43.7 825.65 43.7 825.43V823.43C43.7 823.43 43.7 823.21 43.48 823.21H41.44Z" fill="#4BBDA2"/>
<path d="M39.98 817.27C39.98 817.27 39.76 817.27 39.76 817.49V820.92C39.76 820.92 39.76 821.14 39.98 821.14H43.48C43.48 821.14 43.7 821.14 43.7 820.92V817.49C43.7 817.49 43.7 817.27 43.48 817.27H39.98Z" fill="#00ACD9"/>
<path d="M42.98 801.32C42.98 801.32 42.76 801.32 42.76 801.54V804.11C42.76 804.11 42.76 804.33 42.98 804.33H45.57C45.57 804.33 45.79 804.33 45.79 804.11V801.54C45.79 801.54 45.79 801.32 45.57 801.32H42.98Z" fill="#4BBDA2"/>
<path d="M42.98 803.2C42.98 803.2 42.76 803.2 42.76 803.42V805.99C42.76 805.99 42.76 806.21 42.98 806.21H45.57C45.57 806.21 45.79 806.21 45.79 805.99V803.42C45.79 803.42 45.79 803.2 45.57 803.2H42.98V803.2Z" fill="#4BBDA2"/>
<path d="M45.11 803.2C45.11 803.2 44.89 803.2 44.89 803.42V805.99C44.89 805.99 44.89 806.21 45.11 806.21H47.7C47.7 806.21 47.92 806.21 47.92 805.99V803.42C47.92 803.42 47.92 803.2 47.7 803.2H45.11V803.2Z" fill="#4BBDA2"/>
<path d="M49.88 801.06C49.88 801.06 49.66 801.06 49.66 801.28V804.71C49.66 804.71 49.66 804.93 49.88 804.93H53.33C53.33 804.93 53.55 804.93 53.55 804.71V801.28C53.55 801.28 53.55 801.06 53.33 801.06H49.88V801.06Z" fill="#4BBDA2"/>
<path d="M55.1301 802.99C55.1301 802.99 54.9301 802.99 54.9301 803.19V805.5C54.9301 805.5 54.9301 805.7 55.1301 805.7H57.4501C57.4501 805.7 57.6501 805.7 57.6501 805.5V803.19C57.6501 803.19 57.6501 802.99 57.4501 802.99H55.1301V802.99Z" fill="#00ACD9"/>
<path d="M77.32 870.78V820.51C77.32 820.51 71.4701 811.99 62.9501 806.06H54.91V815.38H60.57C60.79 815.38 60.7901 815.6 60.7901 815.6V821.22C60.7901 821.44 60.57 821.44 60.57 821.44H54.93C54.71 821.44 54.71 821.22 54.71 821.22V815.68H53.37V813.74C53.37 813.74 53.37 813.52 53.15 813.52H49.12C49.12 813.52 48.9 813.52 48.9 813.74V815.68H45.29V827.78H41.55C41.55 827.78 51.7501 863.5 77.3301 870.8" fill="#064766"/>
<path d="M116.02 798.04C116.02 798.04 91.03 795.73 73.26 825.2C73.26 825.2 59.75 847.88 48.84 844.78C48.84 844.78 59.02 866.16 77.4 871C77.4 871 116.01 860.89 116.01 798.04" fill="#4BBDA2"/>
<path d="M41.88 812.05C41.88 812.05 41.66 812.05 41.66 812.27V815.95C41.66 815.95 41.66 816.17 41.88 816.17H45.56C45.56 816.17 45.78 816.17 45.78 815.95V812.27C45.78 812.27 45.78 812.05 45.56 812.05H41.88V812.05Z" fill="#064766"/>
</g>
<g clip-path="url(#clip3_11_6221)">
<path d="M204.22 1736.22C204.22 1736.22 204 1736.22 204 1736.44V1739.03C204 1739.03 204 1739.25 204.22 1739.25H206.8C206.8 1739.25 207.02 1739.25 207.02 1739.03V1736.44C207.02 1736.44 207.02 1736.22 206.8 1736.22H204.22Z" fill="#B9D65F"/>
<path d="M204.22 1732.59C204.22 1732.59 204 1732.59 204 1732.81V1734.78C204 1734.78 204 1735 204.22 1735H206.19C206.19 1735 206.41 1735 206.41 1734.78V1732.81C206.41 1732.81 206.41 1732.59 206.19 1732.59H204.22V1732.59Z" fill="#B9D65F"/>
<path d="M204.52 1743.69C204.52 1743.69 204.3 1743.69 204.3 1743.91V1745.88C204.3 1745.88 204.3 1746.1 204.52 1746.1H206.49C206.49 1746.1 206.71 1746.1 206.71 1745.88V1743.91C206.71 1743.91 206.71 1743.69 206.49 1743.69H204.52Z" fill="#064766"/>
<path d="M213.09 1740.32C213.09 1740.32 212.87 1740.32 212.87 1740.54V1746.32C212.87 1746.32 212.87 1746.54 213.09 1746.54H218.87C218.87 1746.54 219.09 1746.54 219.09 1746.32V1740.54C219.09 1740.54 219.09 1740.32 218.87 1740.32H213.09V1740.32Z" fill="#064766"/>
<path d="M208.38 1732.97V1734.41H209.83V1732.97H208.38Z" fill="#00ACD9"/>
<path d="M211.73 1733.82C211.73 1733.82 211.51 1733.82 211.51 1734.04V1736.04C211.51 1736.04 211.51 1736.26 211.73 1736.26H213.7C213.7 1736.26 213.92 1736.26 213.92 1736.04V1734.04C213.92 1734.04 213.92 1733.82 213.7 1733.82H211.73V1733.82Z" fill="#00ACD9"/>
<path d="M208.97 1741.58C208.97 1741.58 208.75 1741.58 208.75 1741.8V1743.8C208.75 1743.8 208.75 1744.02 208.97 1744.02H210.94C210.94 1744.02 211.16 1744.02 211.16 1743.8V1741.8C211.16 1741.8 211.16 1741.58 210.94 1741.58H208.97Z" fill="#B9D65F"/>
<path d="M204.76 1740.66V1742.45H206.55V1740.66H204.76Z" fill="#00ACD9"/>
<path d="M204.4 1747.52V1748.84H205.72V1747.52H204.4Z" fill="#064766"/>
<path d="M206.44 1757.21C206.44 1757.21 206.22 1757.21 206.22 1757.43V1759.43C206.22 1759.43 206.22 1759.65 206.44 1759.65H208.48C208.48 1759.65 208.7 1759.65 208.7 1759.43V1757.43C208.7 1757.43 208.7 1757.21 208.48 1757.21H206.44Z" fill="#4BBDA2"/>
<path d="M204.98 1751.27C204.98 1751.27 204.76 1751.27 204.76 1751.49V1754.92C204.76 1754.92 204.76 1755.14 204.98 1755.14H208.48C208.48 1755.14 208.7 1755.14 208.7 1754.92V1751.49C208.7 1751.49 208.7 1751.27 208.48 1751.27H204.98Z" fill="#00ACD9"/>
<path d="M207.98 1735.32C207.98 1735.32 207.76 1735.32 207.76 1735.54V1738.11C207.76 1738.11 207.76 1738.33 207.98 1738.33H210.57C210.57 1738.33 210.79 1738.33 210.79 1738.11V1735.54C210.79 1735.54 210.79 1735.32 210.57 1735.32H207.98Z" fill="#4BBDA2"/>
<path d="M207.98 1737.2C207.98 1737.2 207.76 1737.2 207.76 1737.42V1739.99C207.76 1739.99 207.76 1740.21 207.98 1740.21H210.57C210.57 1740.21 210.79 1740.21 210.79 1739.99V1737.42C210.79 1737.42 210.79 1737.2 210.57 1737.2H207.98V1737.2Z" fill="#4BBDA2"/>
<path d="M210.11 1737.2C210.11 1737.2 209.89 1737.2 209.89 1737.42V1739.99C209.89 1739.99 209.89 1740.21 210.11 1740.21H212.7C212.7 1740.21 212.92 1740.21 212.92 1739.99V1737.42C212.92 1737.42 212.92 1737.2 212.7 1737.2H210.11V1737.2Z" fill="#4BBDA2"/>
<path d="M214.88 1735.06C214.88 1735.06 214.66 1735.06 214.66 1735.28V1738.71C214.66 1738.71 214.66 1738.93 214.88 1738.93H218.33C218.33 1738.93 218.55 1738.93 218.55 1738.71V1735.28C218.55 1735.28 218.55 1735.06 218.33 1735.06H214.88V1735.06Z" fill="#4BBDA2"/>
<path d="M220.13 1736.99C220.13 1736.99 219.93 1736.99 219.93 1737.19V1739.5C219.93 1739.5 219.93 1739.7 220.13 1739.7H222.45C222.45 1739.7 222.65 1739.7 222.65 1739.5V1737.19C222.65 1737.19 222.65 1736.99 222.45 1736.99H220.13V1736.99Z" fill="#00ACD9"/>
<path d="M242.32 1804.78V1754.51C242.32 1754.51 236.47 1745.99 227.95 1740.06H219.91V1749.38H225.57C225.79 1749.38 225.79 1749.6 225.79 1749.6V1755.22C225.79 1755.44 225.57 1755.44 225.57 1755.44H219.93C219.71 1755.44 219.71 1755.22 219.71 1755.22V1749.68H218.37V1747.74C218.37 1747.74 218.37 1747.52 218.15 1747.52H214.12C214.12 1747.52 213.9 1747.52 213.9 1747.74V1749.68H210.29V1761.78H206.55C206.55 1761.78 216.75 1797.5 242.33 1804.8" fill="#064766"/>
<path d="M281.02 1732.04C281.02 1732.04 256.03 1729.73 238.26 1759.2C238.26 1759.2 224.75 1781.88 213.84 1778.78C213.84 1778.78 224.02 1800.16 242.4 1805C242.4 1805 281.01 1794.89 281.01 1732.04" fill="#4BBDA2"/>
<path d="M206.88 1746.05C206.88 1746.05 206.66 1746.05 206.66 1746.27V1749.95C206.66 1749.95 206.66 1750.17 206.88 1750.17H210.56C210.56 1750.17 210.78 1750.17 210.78 1749.95V1746.27C210.78 1746.27 210.78 1746.05 210.56 1746.05H206.88V1746.05Z" fill="#064766"/>
</g>
<path d="M204.22 1736.22C204.22 1736.22 204 1736.22 204 1736.44V1739.03C204 1739.03 204 1739.25 204.22 1739.25H206.8C206.8 1739.25 207.02 1739.25 207.02 1739.03V1736.44C207.02 1736.44 207.02 1736.22 206.8 1736.22H204.22Z" fill="#B9D65F"/>
<path d="M204.22 1732.59C204.22 1732.59 204 1732.59 204 1732.81V1734.78C204 1734.78 204 1735 204.22 1735H206.19C206.19 1735 206.41 1735 206.41 1734.78V1732.81C206.41 1732.81 206.41 1732.59 206.19 1732.59H204.22V1732.59Z" fill="#B9D65F"/>
<path d="M204.52 1743.69C204.52 1743.69 204.3 1743.69 204.3 1743.91V1745.88C204.3 1745.88 204.3 1746.1 204.52 1746.1H206.49C206.49 1746.1 206.71 1746.1 206.71 1745.88V1743.91C206.71 1743.91 206.71 1743.69 206.49 1743.69H204.52Z" fill="#064766"/>
<path d="M213.09 1740.32C213.09 1740.32 212.87 1740.32 212.87 1740.54V1746.32C212.87 1746.32 212.87 1746.54 213.09 1746.54H218.87C218.87 1746.54 219.09 1746.54 219.09 1746.32V1740.54C219.09 1740.54 219.09 1740.32 218.87 1740.32H213.09V1740.32Z" fill="#064766"/>
<path d="M208.38 1732.97V1734.41H209.83V1732.97H208.38Z" fill="#00ACD9"/>
<path d="M211.73 1733.82C211.73 1733.82 211.51 1733.82 211.51 1734.04V1736.04C211.51 1736.04 211.51 1736.26 211.73 1736.26H213.7C213.7 1736.26 213.92 1736.26 213.92 1736.04V1734.04C213.92 1734.04 213.92 1733.82 213.7 1733.82H211.73V1733.82Z" fill="#00ACD9"/>
<path d="M208.97 1741.58C208.97 1741.58 208.75 1741.58 208.75 1741.8V1743.8C208.75 1743.8 208.75 1744.02 208.97 1744.02H210.94C210.94 1744.02 211.16 1744.02 211.16 1743.8V1741.8C211.16 1741.8 211.16 1741.58 210.94 1741.58H208.97Z" fill="#B9D65F"/>
<path d="M204.76 1740.66V1742.45H206.55V1740.66H204.76Z" fill="#00ACD9"/>
<path d="M204.4 1747.52V1748.84H205.72V1747.52H204.4Z" fill="#064766"/>
<path d="M206.44 1757.21C206.44 1757.21 206.22 1757.21 206.22 1757.43V1759.43C206.22 1759.43 206.22 1759.65 206.44 1759.65H208.48C208.48 1759.65 208.7 1759.65 208.7 1759.43V1757.43C208.7 1757.43 208.7 1757.21 208.48 1757.21H206.44Z" fill="#4BBDA2"/>
<path d="M204.98 1751.27C204.98 1751.27 204.76 1751.27 204.76 1751.49V1754.92C204.76 1754.92 204.76 1755.14 204.98 1755.14H208.48C208.48 1755.14 208.7 1755.14 208.7 1754.92V1751.49C208.7 1751.49 208.7 1751.27 208.48 1751.27H204.98Z" fill="#00ACD9"/>
<path d="M207.98 1735.32C207.98 1735.32 207.76 1735.32 207.76 1735.54V1738.11C207.76 1738.11 207.76 1738.33 207.98 1738.33H210.57C210.57 1738.33 210.79 1738.33 210.79 1738.11V1735.54C210.79 1735.54 210.79 1735.32 210.57 1735.32H207.98Z" fill="#4BBDA2"/>
<path d="M207.98 1737.2C207.98 1737.2 207.76 1737.2 207.76 1737.42V1739.99C207.76 1739.99 207.76 1740.21 207.98 1740.21H210.57C210.57 1740.21 210.79 1740.21 210.79 1739.99V1737.42C210.79 1737.42 210.79 1737.2 210.57 1737.2H207.98V1737.2Z" fill="#4BBDA2"/>
<path d="M210.11 1737.2C210.11 1737.2 209.89 1737.2 209.89 1737.42V1739.99C209.89 1739.99 209.89 1740.21 210.11 1740.21H212.7C212.7 1740.21 212.92 1740.21 212.92 1739.99V1737.42C212.92 1737.42 212.92 1737.2 212.7 1737.2H210.11V1737.2Z" fill="#4BBDA2"/>
<path d="M214.88 1735.06C214.88 1735.06 214.66 1735.06 214.66 1735.28V1738.71C214.66 1738.71 214.66 1738.93 214.88 1738.93H218.33C218.33 1738.93 218.55 1738.93 218.55 1738.71V1735.28C218.55 1735.28 218.55 1735.06 218.33 1735.06H214.88V1735.06Z" fill="#4BBDA2"/>
<path d="M220.13 1736.99C220.13 1736.99 219.93 1736.99 219.93 1737.19V1739.5C219.93 1739.5 219.93 1739.7 220.13 1739.7H222.45C222.45 1739.7 222.65 1739.7 222.65 1739.5V1737.19C222.65 1737.19 222.65 1736.99 222.45 1736.99H220.13V1736.99Z" fill="#00ACD9"/>
<path d="M242.32 1804.78V1754.51C242.32 1754.51 236.47 1745.99 227.95 1740.06H219.91V1749.38H225.57C225.79 1749.38 225.79 1749.6 225.79 1749.6V1755.22C225.79 1755.44 225.57 1755.44 225.57 1755.44H219.93C219.71 1755.44 219.71 1755.22 219.71 1755.22V1749.68H218.37V1747.74C218.37 1747.74 218.37 1747.52 218.15 1747.52H214.12C214.12 1747.52 213.9 1747.52 213.9 1747.74V1749.68H210.29V1761.78H206.55C206.55 1761.78 216.75 1797.5 242.33 1804.8" fill="#064766"/>
<path d="M206.88 1746.05C206.88 1746.05 206.66 1746.05 206.66 1746.27V1749.95C206.66 1749.95 206.66 1750.17 206.88 1750.17H210.56C210.56 1750.17 210.78 1750.17 210.78 1749.95V1746.27C210.78 1746.27 210.78 1746.05 210.56 1746.05H206.88V1746.05Z" fill="#064766"/>
<g clip-path="url(#clip4_11_6221)">
<path d="M927.22 4.21973C927.22 4.21973 927 4.21973 927 4.43973V7.02973C927 7.02973 927 7.24973 927.22 7.24973H929.8C929.8 7.24973 930.02 7.24973 930.02 7.02973V4.43973C930.02 4.43973 930.02 4.21973 929.8 4.21973H927.22Z" fill="#B9D65F"/>
<path d="M927.22 0.589844C927.22 0.589844 927 0.589844 927 0.809844V2.77984C927 2.77984 927 2.99984 927.22 2.99984H929.19C929.19 2.99984 929.41 2.99984 929.41 2.77984V0.809844C929.41 0.809844 929.41 0.589844 929.19 0.589844H927.22V0.589844Z" fill="#B9D65F"/>
<path d="M927.52 11.6899C927.52 11.6899 927.3 11.6899 927.3 11.9099V13.8799C927.3 13.8799 927.3 14.0999 927.52 14.0999H929.49C929.49 14.0999 929.71 14.0999 929.71 13.8799V11.9099C929.71 11.9099 929.71 11.6899 929.49 11.6899H927.52Z" fill="#064766"/>
<path d="M936.09 8.31982C936.09 8.31982 935.87 8.31982 935.87 8.53982V14.3198C935.87 14.3198 935.87 14.5398 936.09 14.5398H941.87C941.87 14.5398 942.09 14.5398 942.09 14.3198V8.53982C942.09 8.53982 942.09 8.31982 941.87 8.31982H936.09V8.31982Z" fill="#064766"/>
<path d="M931.38 0.970215V2.41021H932.83V0.970215H931.38Z" fill="#00ACD9"/>
<path d="M934.73 1.81982C934.73 1.81982 934.51 1.81982 934.51 2.03982V4.03982C934.51 4.03982 934.51 4.25982 934.73 4.25982H936.7C936.7 4.25982 936.92 4.25982 936.92 4.03982V2.03982C936.92 2.03982 936.92 1.81982 936.7 1.81982H934.73V1.81982Z" fill="#00ACD9"/>
<path d="M931.97 9.57959C931.97 9.57959 931.75 9.57959 931.75 9.79959V11.7996C931.75 11.7996 931.75 12.0196 931.97 12.0196H933.94C933.94 12.0196 934.16 12.0196 934.16 11.7996V9.79959C934.16 9.79959 934.16 9.57959 933.94 9.57959H931.97Z" fill="#B9D65F"/>
<path d="M927.76 8.66016V10.4502H929.55V8.66016H927.76Z" fill="#00ACD9"/>
<path d="M927.4 15.52V16.84H928.72V15.52H927.4Z" fill="#064766"/>
<path d="M929.44 25.21C929.44 25.21 929.22 25.21 929.22 25.43V27.43C929.22 27.43 929.22 27.65 929.44 27.65H931.48C931.48 27.65 931.7 27.65 931.7 27.43V25.43C931.7 25.43 931.7 25.21 931.48 25.21H929.44Z" fill="#4BBDA2"/>
<path d="M927.98 19.27C927.98 19.27 927.76 19.27 927.76 19.49V22.92C927.76 22.92 927.76 23.14 927.98 23.14H931.48C931.48 23.14 931.7 23.14 931.7 22.92V19.49C931.7 19.49 931.7 19.27 931.48 19.27H927.98Z" fill="#00ACD9"/>
<path d="M930.98 3.31982C930.98 3.31982 930.76 3.31982 930.76 3.53982V6.10982C930.76 6.10982 930.76 6.32982 930.98 6.32982H933.57C933.57 6.32982 933.79 6.32982 933.79 6.10982V3.53982C933.79 3.53982 933.79 3.31982 933.57 3.31982H930.98Z" fill="#4BBDA2"/>
<path d="M930.98 5.2002C930.98 5.2002 930.76 5.2002 930.76 5.4202V7.9902C930.76 7.9902 930.76 8.2102 930.98 8.2102H933.57C933.57 8.2102 933.79 8.2102 933.79 7.9902V5.4202C933.79 5.4202 933.79 5.2002 933.57 5.2002H930.98V5.2002Z" fill="#4BBDA2"/>
<path d="M933.11 5.2002C933.11 5.2002 932.89 5.2002 932.89 5.4202V7.9902C932.89 7.9902 932.89 8.2102 933.11 8.2102H935.7C935.7 8.2102 935.92 8.2102 935.92 7.9902V5.4202C935.92 5.4202 935.92 5.2002 935.7 5.2002H933.11V5.2002Z" fill="#4BBDA2"/>
<path d="M937.88 3.06006C937.88 3.06006 937.66 3.06006 937.66 3.28006V6.71006C937.66 6.71006 937.66 6.93006 937.88 6.93006H941.33C941.33 6.93006 941.55 6.93006 941.55 6.71006V3.28006C941.55 3.28006 941.55 3.06006 941.33 3.06006H937.88V3.06006Z" fill="#4BBDA2"/>
<path d="M943.13 4.99023C943.13 4.99023 942.93 4.99023 942.93 5.19023V7.50023C942.93 7.50023 942.93 7.70023 943.13 7.70023H945.45C945.45 7.70023 945.65 7.70023 945.65 7.50023V5.19023C945.65 5.19023 945.65 4.99023 945.45 4.99023H943.13V4.99023Z" fill="#00ACD9"/>
<path d="M965.32 72.7801V22.5101C965.32 22.5101 959.47 13.9901 950.95 8.06006H942.91V17.3801H948.57C948.79 17.3801 948.79 17.6001 948.79 17.6001V23.2201C948.79 23.4401 948.57 23.4401 948.57 23.4401H942.93C942.71 23.4401 942.71 23.2201 942.71 23.2201V17.6801H941.37V15.7401C941.37 15.7401 941.37 15.5201 941.15 15.5201H937.12C937.12 15.5201 936.9 15.5201 936.9 15.7401V17.6801H933.29V29.7801H929.55C929.55 29.7801 939.75 65.5001 965.33 72.8001" fill="#064766"/>
<path d="M1004.02 0.0399855C1004.02 0.0399855 979.03 -2.27001 961.26 27.2C961.26 27.2 947.75 49.88 936.84 46.78C936.84 46.78 947.02 68.16 965.4 73C965.4 73 1004.01 62.89 1004.01 0.0399855" fill="#4BBDA2"/>
<path d="M929.88 14.0498C929.88 14.0498 929.66 14.0498 929.66 14.2698V17.9498C929.66 17.9498 929.66 18.1698 929.88 18.1698H933.56C933.56 18.1698 933.78 18.1698 933.78 17.9498V14.2698C933.78 14.2698 933.78 14.0498 933.56 14.0498H929.88V14.0498Z" fill="#064766"/>
</g>
<g clip-path="url(#clip5_11_6221)">
<path d="M0.22 2838.22C0.22 2838.22 0 2838.22 0 2838.44V2841.03C0 2841.03 0 2841.25 0.22 2841.25H2.8C2.8 2841.25 3.02 2841.25 3.02 2841.03V2838.44C3.02 2838.44 3.02 2838.22 2.8 2838.22H0.22Z" fill="#B9D65F"/>
<path d="M0.22 2834.59C0.22 2834.59 0 2834.59 0 2834.81V2836.78C0 2836.78 0 2837 0.22 2837H2.19C2.19 2837 2.41 2837 2.41 2836.78V2834.81C2.41 2834.81 2.41 2834.59 2.19 2834.59H0.22V2834.59Z" fill="#B9D65F"/>
<path d="M0.520049 2845.69C0.520049 2845.69 0.300049 2845.69 0.300049 2845.91V2847.88C0.300049 2847.88 0.300049 2848.1 0.520049 2848.1H2.49005C2.49005 2848.1 2.71005 2848.1 2.71005 2847.88V2845.91C2.71005 2845.91 2.71005 2845.69 2.49005 2845.69H0.520049Z" fill="#064766"/>
<path d="M9.09 2842.32C9.09 2842.32 8.87 2842.32 8.87 2842.54V2848.32C8.87 2848.32 8.87 2848.54 9.09 2848.54H14.87C14.87 2848.54 15.09 2848.54 15.09 2848.32V2842.54C15.09 2842.54 15.09 2842.32 14.87 2842.32H9.09V2842.32Z" fill="#064766"/>
<path d="M4.38 2834.97V2836.41H5.83V2834.97H4.38Z" fill="#00ACD9"/>
<path d="M7.73001 2835.82C7.73001 2835.82 7.51001 2835.82 7.51001 2836.04V2838.04C7.51001 2838.04 7.51001 2838.26 7.73001 2838.26H9.70001C9.70001 2838.26 9.92001 2838.26 9.92001 2838.04V2836.04C9.92001 2836.04 9.92001 2835.82 9.70001 2835.82H7.73001V2835.82Z" fill="#00ACD9"/>
<path d="M4.97 2843.58C4.97 2843.58 4.75 2843.58 4.75 2843.8V2845.8C4.75 2845.8 4.75 2846.02 4.97 2846.02H6.94C6.94 2846.02 7.16 2846.02 7.16 2845.8V2843.8C7.16 2843.8 7.16 2843.58 6.94 2843.58H4.97Z" fill="#B9D65F"/>
<path d="M0.76001 2842.66V2844.45H2.55001V2842.66H0.76001Z" fill="#00ACD9"/>
<path d="M0.400024 2849.52V2850.84H1.72002V2849.52H0.400024Z" fill="#064766"/>
<path d="M2.43997 2859.21C2.43997 2859.21 2.21997 2859.21 2.21997 2859.43V2861.43C2.21997 2861.43 2.21997 2861.65 2.43997 2861.65H4.47997C4.47997 2861.65 4.69997 2861.65 4.69997 2861.43V2859.43C4.69997 2859.43 4.69997 2859.21 4.47997 2859.21H2.43997Z" fill="#4BBDA2"/>
<path d="M0.98001 2853.27C0.98001 2853.27 0.76001 2853.27 0.76001 2853.49V2856.92C0.76001 2856.92 0.76001 2857.14 0.98001 2857.14H4.48001C4.48001 2857.14 4.70001 2857.14 4.70001 2856.92V2853.49C4.70001 2853.49 4.70001 2853.27 4.48001 2853.27H0.98001Z" fill="#00ACD9"/>
<path d="M3.98001 2837.32C3.98001 2837.32 3.76001 2837.32 3.76001 2837.54V2840.11C3.76001 2840.11 3.76001 2840.33 3.98001 2840.33H6.57001C6.57001 2840.33 6.79001 2840.33 6.79001 2840.11V2837.54C6.79001 2837.54 6.79001 2837.32 6.57001 2837.32H3.98001Z" fill="#4BBDA2"/>
<path d="M3.98001 2839.2C3.98001 2839.2 3.76001 2839.2 3.76001 2839.42V2841.99C3.76001 2841.99 3.76001 2842.21 3.98001 2842.21H6.57001C6.57001 2842.21 6.79001 2842.21 6.79001 2841.99V2839.42C6.79001 2839.42 6.79001 2839.2 6.57001 2839.2H3.98001V2839.2Z" fill="#4BBDA2"/>
<path d="M6.11001 2839.2C6.11001 2839.2 5.89001 2839.2 5.89001 2839.42V2841.99C5.89001 2841.99 5.89001 2842.21 6.11001 2842.21H8.70001C8.70001 2842.21 8.92001 2842.21 8.92001 2841.99V2839.42C8.92001 2839.42 8.92001 2839.2 8.70001 2839.2H6.11001V2839.2Z" fill="#4BBDA2"/>
<path d="M10.88 2837.06C10.88 2837.06 10.66 2837.06 10.66 2837.28V2840.71C10.66 2840.71 10.66 2840.93 10.88 2840.93H14.33C14.33 2840.93 14.55 2840.93 14.55 2840.71V2837.28C14.55 2837.28 14.55 2837.06 14.33 2837.06H10.88V2837.06Z" fill="#4BBDA2"/>
<path d="M16.1301 2838.99C16.1301 2838.99 15.9301 2838.99 15.9301 2839.19V2841.5C15.9301 2841.5 15.9301 2841.7 16.1301 2841.7H18.4501C18.4501 2841.7 18.6501 2841.7 18.6501 2841.5V2839.19C18.6501 2839.19 18.6501 2838.99 18.4501 2838.99H16.1301V2838.99Z" fill="#00ACD9"/>
<path d="M38.32 2906.78V2856.51C38.32 2856.51 32.4701 2847.99 23.9501 2842.06H15.91V2851.38H21.57C21.79 2851.38 21.7901 2851.6 21.7901 2851.6V2857.22C21.7901 2857.44 21.57 2857.44 21.57 2857.44H15.93C15.71 2857.44 15.71 2857.22 15.71 2857.22V2851.68H14.37V2849.74C14.37 2849.74 14.37 2849.52 14.15 2849.52H10.12C10.12 2849.52 9.90005 2849.52 9.90005 2849.74V2851.68H6.29005V2863.78H2.55005C2.55005 2863.78 12.7501 2899.5 38.3301 2906.8" fill="#064766"/>
<path d="M77.02 2834.04C77.02 2834.04 52.03 2831.73 34.26 2861.2C34.26 2861.2 20.75 2883.88 9.83997 2880.78C9.83997 2880.78 20.02 2902.16 38.4 2907C38.4 2907 77.01 2896.89 77.01 2834.04" fill="#4BBDA2"/>
<path d="M2.88003 2848.05C2.88003 2848.05 2.66003 2848.05 2.66003 2848.27V2851.95C2.66003 2851.95 2.66003 2852.17 2.88003 2852.17H6.56003C6.56003 2852.17 6.78003 2852.17 6.78003 2851.95V2848.27C6.78003 2848.27 6.78003 2848.05 6.56003 2848.05H2.88003V2848.05Z" fill="#064766"/>
</g>
<g clip-path="url(#clip6_11_6221)">
<path d="M1701.22 2081.22C1701.22 2081.22 1701 2081.22 1701 2081.44V2084.03C1701 2084.03 1701 2084.25 1701.22 2084.25H1703.8C1703.8 2084.25 1704.02 2084.25 1704.02 2084.03V2081.44C1704.02 2081.44 1704.02 2081.22 1703.8 2081.22H1701.22Z" fill="#B9D65F"/>
<path d="M1701.22 2077.59C1701.22 2077.59 1701 2077.59 1701 2077.81V2079.78C1701 2079.78 1701 2080 1701.22 2080H1703.19C1703.19 2080 1703.41 2080 1703.41 2079.78V2077.81C1703.41 2077.81 1703.41 2077.59 1703.19 2077.59H1701.22V2077.59Z" fill="#B9D65F"/>
<path d="M1701.52 2088.69C1701.52 2088.69 1701.3 2088.69 1701.3 2088.91V2090.88C1701.3 2090.88 1701.3 2091.1 1701.52 2091.1H1703.49C1703.49 2091.1 1703.71 2091.1 1703.71 2090.88V2088.91C1703.71 2088.91 1703.71 2088.69 1703.49 2088.69H1701.52Z" fill="#064766"/>
<path d="M1710.09 2085.32C1710.09 2085.32 1709.87 2085.32 1709.87 2085.54V2091.32C1709.87 2091.32 1709.87 2091.54 1710.09 2091.54H1715.87C1715.87 2091.54 1716.09 2091.54 1716.09 2091.32V2085.54C1716.09 2085.54 1716.09 2085.32 1715.87 2085.32H1710.09V2085.32Z" fill="#064766"/>
<path d="M1705.38 2077.97V2079.41H1706.83V2077.97H1705.38Z" fill="#00ACD9"/>
<path d="M1708.73 2078.82C1708.73 2078.82 1708.51 2078.82 1708.51 2079.04V2081.04C1708.51 2081.04 1708.51 2081.26 1708.73 2081.26H1710.7C1710.7 2081.26 1710.92 2081.26 1710.92 2081.04V2079.04C1710.92 2079.04 1710.92 2078.82 1710.7 2078.82H1708.73V2078.82Z" fill="#00ACD9"/>
<path d="M1705.97 2086.58C1705.97 2086.58 1705.75 2086.58 1705.75 2086.8V2088.8C1705.75 2088.8 1705.75 2089.02 1705.97 2089.02H1707.94C1707.94 2089.02 1708.16 2089.02 1708.16 2088.8V2086.8C1708.16 2086.8 1708.16 2086.58 1707.94 2086.58H1705.97Z" fill="#B9D65F"/>
<path d="M1701.76 2085.66V2087.45H1703.55V2085.66H1701.76Z" fill="#00ACD9"/>
<path d="M1701.4 2092.52V2093.84H1702.72V2092.52H1701.4Z" fill="#064766"/>
<path d="M1703.44 2102.21C1703.44 2102.21 1703.22 2102.21 1703.22 2102.43V2104.43C1703.22 2104.43 1703.22 2104.65 1703.44 2104.65H1705.48C1705.48 2104.65 1705.7 2104.65 1705.7 2104.43V2102.43C1705.7 2102.43 1705.7 2102.21 1705.48 2102.21H1703.44Z" fill="#4BBDA2"/>
<path d="M1701.98 2096.27C1701.98 2096.27 1701.76 2096.27 1701.76 2096.49V2099.92C1701.76 2099.92 1701.76 2100.14 1701.98 2100.14H1705.48C1705.48 2100.14 1705.7 2100.14 1705.7 2099.92V2096.49C1705.7 2096.49 1705.7 2096.27 1705.48 2096.27H1701.98Z" fill="#00ACD9"/>
<path d="M1704.98 2080.32C1704.98 2080.32 1704.76 2080.32 1704.76 2080.54V2083.11C1704.76 2083.11 1704.76 2083.33 1704.98 2083.33H1707.57C1707.57 2083.33 1707.79 2083.33 1707.79 2083.11V2080.54C1707.79 2080.54 1707.79 2080.32 1707.57 2080.32H1704.98Z" fill="#4BBDA2"/>
<path d="M1704.98 2082.2C1704.98 2082.2 1704.76 2082.2 1704.76 2082.42V2084.99C1704.76 2084.99 1704.76 2085.21 1704.98 2085.21H1707.57C1707.57 2085.21 1707.79 2085.21 1707.79 2084.99V2082.42C1707.79 2082.42 1707.79 2082.2 1707.57 2082.2H1704.98V2082.2Z" fill="#4BBDA2"/>
<path d="M1707.11 2082.2C1707.11 2082.2 1706.89 2082.2 1706.89 2082.42V2084.99C1706.89 2084.99 1706.89 2085.21 1707.11 2085.21H1709.7C1709.7 2085.21 1709.92 2085.21 1709.92 2084.99V2082.42C1709.92 2082.42 1709.92 2082.2 1709.7 2082.2H1707.11V2082.2Z" fill="#4BBDA2"/>
<path d="M1711.88 2080.06C1711.88 2080.06 1711.66 2080.06 1711.66 2080.28V2083.71C1711.66 2083.71 1711.66 2083.93 1711.88 2083.93H1715.33C1715.33 2083.93 1715.55 2083.93 1715.55 2083.71V2080.28C1715.55 2080.28 1715.55 2080.06 1715.33 2080.06H1711.88V2080.06Z" fill="#4BBDA2"/>
<path d="M1717.13 2081.99C1717.13 2081.99 1716.93 2081.99 1716.93 2082.19V2084.5C1716.93 2084.5 1716.93 2084.7 1717.13 2084.7H1719.45C1719.45 2084.7 1719.65 2084.7 1719.65 2084.5V2082.19C1719.65 2082.19 1719.65 2081.99 1719.45 2081.99H1717.13V2081.99Z" fill="#00ACD9"/>
<path d="M1739.32 2149.78V2099.51C1739.32 2099.51 1733.47 2090.99 1724.95 2085.06H1716.91V2094.38H1722.57C1722.79 2094.38 1722.79 2094.6 1722.79 2094.6V2100.22C1722.79 2100.44 1722.57 2100.44 1722.57 2100.44H1716.93C1716.71 2100.44 1716.71 2100.22 1716.71 2100.22V2094.68H1715.37V2092.74C1715.37 2092.74 1715.37 2092.52 1715.15 2092.52H1711.12C1711.12 2092.52 1710.9 2092.52 1710.9 2092.74V2094.68H1707.29V2106.78H1703.55C1703.55 2106.78 1713.75 2142.5 1739.33 2149.8" fill="#064766"/>
<path d="M1778.02 2077.04C1778.02 2077.04 1753.03 2074.73 1735.26 2104.2C1735.26 2104.2 1721.75 2126.88 1710.84 2123.78C1710.84 2123.78 1721.02 2145.16 1739.4 2150C1739.4 2150 1778.01 2139.89 1778.01 2077.04" fill="#4BBDA2"/>
<path d="M1703.88 2091.05C1703.88 2091.05 1703.66 2091.05 1703.66 2091.27V2094.95C1703.66 2094.95 1703.66 2095.17 1703.88 2095.17H1707.56C1707.56 2095.17 1707.78 2095.17 1707.78 2094.95V2091.27C1707.78 2091.27 1707.78 2091.05 1707.56 2091.05H1703.88V2091.05Z" fill="#064766"/>
</g>
<g clip-path="url(#clip7_11_6221)">
<path d="M1233.22 3096.22C1233.22 3096.22 1233 3096.22 1233 3096.44V3099.03C1233 3099.03 1233 3099.25 1233.22 3099.25H1235.8C1235.8 3099.25 1236.02 3099.25 1236.02 3099.03V3096.44C1236.02 3096.44 1236.02 3096.22 1235.8 3096.22H1233.22Z" fill="#B9D65F"/>
<path d="M1233.22 3092.59C1233.22 3092.59 1233 3092.59 1233 3092.81V3094.78C1233 3094.78 1233 3095 1233.22 3095H1235.19C1235.19 3095 1235.41 3095 1235.41 3094.78V3092.81C1235.41 3092.81 1235.41 3092.59 1235.19 3092.59H1233.22V3092.59Z" fill="#B9D65F"/>
<path d="M1233.52 3103.69C1233.52 3103.69 1233.3 3103.69 1233.3 3103.91V3105.88C1233.3 3105.88 1233.3 3106.1 1233.52 3106.1H1235.49C1235.49 3106.1 1235.71 3106.1 1235.71 3105.88V3103.91C1235.71 3103.91 1235.71 3103.69 1235.49 3103.69H1233.52Z" fill="#064766"/>
<path d="M1242.09 3100.32C1242.09 3100.32 1241.87 3100.32 1241.87 3100.54V3106.32C1241.87 3106.32 1241.87 3106.54 1242.09 3106.54H1247.87C1247.87 3106.54 1248.09 3106.54 1248.09 3106.32V3100.54C1248.09 3100.54 1248.09 3100.32 1247.87 3100.32H1242.09V3100.32Z" fill="#064766"/>
<path d="M1237.38 3092.97V3094.41H1238.83V3092.97H1237.38Z" fill="#00ACD9"/>
<path d="M1240.73 3093.82C1240.73 3093.82 1240.51 3093.82 1240.51 3094.04V3096.04C1240.51 3096.04 1240.51 3096.26 1240.73 3096.26H1242.7C1242.7 3096.26 1242.92 3096.26 1242.92 3096.04V3094.04C1242.92 3094.04 1242.92 3093.82 1242.7 3093.82H1240.73V3093.82Z" fill="#00ACD9"/>
<path d="M1237.97 3101.58C1237.97 3101.58 1237.75 3101.58 1237.75 3101.8V3103.8C1237.75 3103.8 1237.75 3104.02 1237.97 3104.02H1239.94C1239.94 3104.02 1240.16 3104.02 1240.16 3103.8V3101.8C1240.16 3101.8 1240.16 3101.58 1239.94 3101.58H1237.97Z" fill="#B9D65F"/>
<path d="M1233.76 3100.66V3102.45H1235.55V3100.66H1233.76Z" fill="#00ACD9"/>
<path d="M1233.4 3107.52V3108.84H1234.72V3107.52H1233.4Z" fill="#064766"/>
<path d="M1235.44 3117.21C1235.44 3117.21 1235.22 3117.21 1235.22 3117.43V3119.43C1235.22 3119.43 1235.22 3119.65 1235.44 3119.65H1237.48C1237.48 3119.65 1237.7 3119.65 1237.7 3119.43V3117.43C1237.7 3117.43 1237.7 3117.21 1237.48 3117.21H1235.44Z" fill="#4BBDA2"/>
<path d="M1233.98 3111.27C1233.98 3111.27 1233.76 3111.27 1233.76 3111.49V3114.92C1233.76 3114.92 1233.76 3115.14 1233.98 3115.14H1237.48C1237.48 3115.14 1237.7 3115.14 1237.7 3114.92V3111.49C1237.7 3111.49 1237.7 3111.27 1237.48 3111.27H1233.98Z" fill="#00ACD9"/>
<path d="M1236.98 3095.32C1236.98 3095.32 1236.76 3095.32 1236.76 3095.54V3098.11C1236.76 3098.11 1236.76 3098.33 1236.98 3098.33H1239.57C1239.57 3098.33 1239.79 3098.33 1239.79 3098.11V3095.54C1239.79 3095.54 1239.79 3095.32 1239.57 3095.32H1236.98Z" fill="#4BBDA2"/>
<path d="M1236.98 3097.2C1236.98 3097.2 1236.76 3097.2 1236.76 3097.42V3099.99C1236.76 3099.99 1236.76 3100.21 1236.98 3100.21H1239.57C1239.57 3100.21 1239.79 3100.21 1239.79 3099.99V3097.42C1239.79 3097.42 1239.79 3097.2 1239.57 3097.2H1236.98V3097.2Z" fill="#4BBDA2"/>
<path d="M1239.11 3097.2C1239.11 3097.2 1238.89 3097.2 1238.89 3097.42V3099.99C1238.89 3099.99 1238.89 3100.21 1239.11 3100.21H1241.7C1241.7 3100.21 1241.92 3100.21 1241.92 3099.99V3097.42C1241.92 3097.42 1241.92 3097.2 1241.7 3097.2H1239.11V3097.2Z" fill="#4BBDA2"/>
<path d="M1243.88 3095.06C1243.88 3095.06 1243.66 3095.06 1243.66 3095.28V3098.71C1243.66 3098.71 1243.66 3098.93 1243.88 3098.93H1247.33C1247.33 3098.93 1247.55 3098.93 1247.55 3098.71V3095.28C1247.55 3095.28 1247.55 3095.06 1247.33 3095.06H1243.88V3095.06Z" fill="#4BBDA2"/>
<path d="M1249.13 3096.99C1249.13 3096.99 1248.93 3096.99 1248.93 3097.19V3099.5C1248.93 3099.5 1248.93 3099.7 1249.13 3099.7H1251.45C1251.45 3099.7 1251.65 3099.7 1251.65 3099.5V3097.19C1251.65 3097.19 1251.65 3096.99 1251.45 3096.99H1249.13V3096.99Z" fill="#00ACD9"/>
<path d="M1271.32 3164.78V3114.51C1271.32 3114.51 1265.47 3105.99 1256.95 3100.06H1248.91V3109.38H1254.57C1254.79 3109.38 1254.79 3109.6 1254.79 3109.6V3115.22C1254.79 3115.44 1254.57 3115.44 1254.57 3115.44H1248.93C1248.71 3115.44 1248.71 3115.22 1248.71 3115.22V3109.68H1247.37V3107.74C1247.37 3107.74 1247.37 3107.52 1247.15 3107.52H1243.12C1243.12 3107.52 1242.9 3107.52 1242.9 3107.74V3109.68H1239.29V3121.78H1235.55C1235.55 3121.78 1245.75 3157.5 1271.33 3164.8" fill="#064766"/>
<path d="M1310.02 3092.04C1310.02 3092.04 1285.03 3089.73 1267.26 3119.2C1267.26 3119.2 1253.75 3141.88 1242.84 3138.78C1242.84 3138.78 1253.02 3160.16 1271.4 3165C1271.4 3165 1310.01 3154.89 1310.01 3092.04" fill="#4BBDA2"/>
<path d="M1235.88 3106.05C1235.88 3106.05 1235.66 3106.05 1235.66 3106.27V3109.95C1235.66 3109.95 1235.66 3110.17 1235.88 3110.17H1239.56C1239.56 3110.17 1239.78 3110.17 1239.78 3109.95V3106.27C1239.78 3106.27 1239.78 3106.05 1239.56 3106.05H1235.88V3106.05Z" fill="#064766"/>
</g>
<g clip-path="url(#clip8_11_6221)">
<path d="M1666.22 4011.22C1666.22 4011.22 1666 4011.22 1666 4011.44V4014.03C1666 4014.03 1666 4014.25 1666.22 4014.25H1668.8C1668.8 4014.25 1669.02 4014.25 1669.02 4014.03V4011.44C1669.02 4011.44 1669.02 4011.22 1668.8 4011.22H1666.22Z" fill="#B9D65F"/>
<path d="M1666.22 4007.59C1666.22 4007.59 1666 4007.59 1666 4007.81V4009.78C1666 4009.78 1666 4010 1666.22 4010H1668.19C1668.19 4010 1668.41 4010 1668.41 4009.78V4007.81C1668.41 4007.81 1668.41 4007.59 1668.19 4007.59H1666.22V4007.59Z" fill="#B9D65F"/>
<path d="M1666.52 4018.69C1666.52 4018.69 1666.3 4018.69 1666.3 4018.91V4020.88C1666.3 4020.88 1666.3 4021.1 1666.52 4021.1H1668.49C1668.49 4021.1 1668.71 4021.1 1668.71 4020.88V4018.91C1668.71 4018.91 1668.71 4018.69 1668.49 4018.69H1666.52Z" fill="#064766"/>
<path d="M1675.09 4015.32C1675.09 4015.32 1674.87 4015.32 1674.87 4015.54V4021.32C1674.87 4021.32 1674.87 4021.54 1675.09 4021.54H1680.87C1680.87 4021.54 1681.09 4021.54 1681.09 4021.32V4015.54C1681.09 4015.54 1681.09 4015.32 1680.87 4015.32H1675.09V4015.32Z" fill="#064766"/>
<path d="M1670.38 4007.97V4009.41H1671.83V4007.97H1670.38Z" fill="#00ACD9"/>
<path d="M1673.73 4008.82C1673.73 4008.82 1673.51 4008.82 1673.51 4009.04V4011.04C1673.51 4011.04 1673.51 4011.26 1673.73 4011.26H1675.7C1675.7 4011.26 1675.92 4011.26 1675.92 4011.04V4009.04C1675.92 4009.04 1675.92 4008.82 1675.7 4008.82H1673.73V4008.82Z" fill="#00ACD9"/>
<path d="M1670.97 4016.58C1670.97 4016.58 1670.75 4016.58 1670.75 4016.8V4018.8C1670.75 4018.8 1670.75 4019.02 1670.97 4019.02H1672.94C1672.94 4019.02 1673.16 4019.02 1673.16 4018.8V4016.8C1673.16 4016.8 1673.16 4016.58 1672.94 4016.58H1670.97Z" fill="#B9D65F"/>
<path d="M1666.76 4015.66V4017.45H1668.55V4015.66H1666.76Z" fill="#00ACD9"/>
<path d="M1666.4 4022.52V4023.84H1667.72V4022.52H1666.4Z" fill="#064766"/>
<path d="M1668.44 4032.21C1668.44 4032.21 1668.22 4032.21 1668.22 4032.43V4034.43C1668.22 4034.43 1668.22 4034.65 1668.44 4034.65H1670.48C1670.48 4034.65 1670.7 4034.65 1670.7 4034.43V4032.43C1670.7 4032.43 1670.7 4032.21 1670.48 4032.21H1668.44Z" fill="#4BBDA2"/>
<path d="M1666.98 4026.27C1666.98 4026.27 1666.76 4026.27 1666.76 4026.49V4029.92C1666.76 4029.92 1666.76 4030.14 1666.98 4030.14H1670.48C1670.48 4030.14 1670.7 4030.14 1670.7 4029.92V4026.49C1670.7 4026.49 1670.7 4026.27 1670.48 4026.27H1666.98Z" fill="#00ACD9"/>
<path d="M1669.98 4010.32C1669.98 4010.32 1669.76 4010.32 1669.76 4010.54V4013.11C1669.76 4013.11 1669.76 4013.33 1669.98 4013.33H1672.57C1672.57 4013.33 1672.79 4013.33 1672.79 4013.11V4010.54C1672.79 4010.54 1672.79 4010.32 1672.57 4010.32H1669.98Z" fill="#4BBDA2"/>
<path d="M1669.98 4012.2C1669.98 4012.2 1669.76 4012.2 1669.76 4012.42V4014.99C1669.76 4014.99 1669.76 4015.21 1669.98 4015.21H1672.57C1672.57 4015.21 1672.79 4015.21 1672.79 4014.99V4012.42C1672.79 4012.42 1672.79 4012.2 1672.57 4012.2H1669.98V4012.2Z" fill="#4BBDA2"/>
<path d="M1672.11 4012.2C1672.11 4012.2 1671.89 4012.2 1671.89 4012.42V4014.99C1671.89 4014.99 1671.89 4015.21 1672.11 4015.21H1674.7C1674.7 4015.21 1674.92 4015.21 1674.92 4014.99V4012.42C1674.92 4012.42 1674.92 4012.2 1674.7 4012.2H1672.11V4012.2Z" fill="#4BBDA2"/>
<path d="M1676.88 4010.06C1676.88 4010.06 1676.66 4010.06 1676.66 4010.28V4013.71C1676.66 4013.71 1676.66 4013.93 1676.88 4013.93H1680.33C1680.33 4013.93 1680.55 4013.93 1680.55 4013.71V4010.28C1680.55 4010.28 1680.55 4010.06 1680.33 4010.06H1676.88V4010.06Z" fill="#4BBDA2"/>
<path d="M1682.13 4011.99C1682.13 4011.99 1681.93 4011.99 1681.93 4012.19V4014.5C1681.93 4014.5 1681.93 4014.7 1682.13 4014.7H1684.45C1684.45 4014.7 1684.65 4014.7 1684.65 4014.5V4012.19C1684.65 4012.19 1684.65 4011.99 1684.45 4011.99H1682.13V4011.99Z" fill="#00ACD9"/>
<path d="M1704.32 4079.78V4029.51C1704.32 4029.51 1698.47 4020.99 1689.95 4015.06H1681.91V4024.38H1687.57C1687.79 4024.38 1687.79 4024.6 1687.79 4024.6V4030.22C1687.79 4030.44 1687.57 4030.44 1687.57 4030.44H1681.93C1681.71 4030.44 1681.71 4030.22 1681.71 4030.22V4024.68H1680.37V4022.74C1680.37 4022.74 1680.37 4022.52 1680.15 4022.52H1676.12C1676.12 4022.52 1675.9 4022.52 1675.9 4022.74V4024.68H1672.29V4036.78H1668.55C1668.55 4036.78 1678.75 4072.5 1704.33 4079.8" fill="#064766"/>
<path d="M1743.02 4007.04C1743.02 4007.04 1718.03 4004.73 1700.26 4034.2C1700.26 4034.2 1686.75 4056.88 1675.84 4053.78C1675.84 4053.78 1686.02 4075.16 1704.4 4080C1704.4 4080 1743.01 4069.89 1743.01 4007.04" fill="#4BBDA2"/>
<path d="M1668.88 4021.05C1668.88 4021.05 1668.66 4021.05 1668.66 4021.27V4024.95C1668.66 4024.95 1668.66 4025.17 1668.88 4025.17H1672.56C1672.56 4025.17 1672.78 4025.17 1672.78 4024.95V4021.27C1672.78 4021.27 1672.78 4021.05 1672.56 4021.05H1668.88V4021.05Z" fill="#064766"/>
</g>
<g clip-path="url(#clip9_11_6221)">
<path d="M648.22 4238.22C648.22 4238.22 648 4238.22 648 4238.44V4241.03C648 4241.03 648 4241.25 648.22 4241.25H650.8C650.8 4241.25 651.02 4241.25 651.02 4241.03V4238.44C651.02 4238.44 651.02 4238.22 650.8 4238.22H648.22Z" fill="#B9D65F"/>
<path d="M648.22 4234.59C648.22 4234.59 648 4234.59 648 4234.81V4236.78C648 4236.78 648 4237 648.22 4237H650.19C650.19 4237 650.41 4237 650.41 4236.78V4234.81C650.41 4234.81 650.41 4234.59 650.19 4234.59H648.22V4234.59Z" fill="#B9D65F"/>
<path d="M648.52 4245.69C648.52 4245.69 648.3 4245.69 648.3 4245.91V4247.88C648.3 4247.88 648.3 4248.1 648.52 4248.1H650.49C650.49 4248.1 650.71 4248.1 650.71 4247.88V4245.91C650.71 4245.91 650.71 4245.69 650.49 4245.69H648.52Z" fill="#064766"/>
<path d="M657.09 4242.32C657.09 4242.32 656.87 4242.32 656.87 4242.54V4248.32C656.87 4248.32 656.87 4248.54 657.09 4248.54H662.87C662.87 4248.54 663.09 4248.54 663.09 4248.32V4242.54C663.09 4242.54 663.09 4242.32 662.87 4242.32H657.09V4242.32Z" fill="#064766"/>
<path d="M652.38 4234.97V4236.41H653.83V4234.97H652.38Z" fill="#00ACD9"/>
<path d="M655.73 4235.82C655.73 4235.82 655.51 4235.82 655.51 4236.04V4238.04C655.51 4238.04 655.51 4238.26 655.73 4238.26H657.7C657.7 4238.26 657.92 4238.26 657.92 4238.04V4236.04C657.92 4236.04 657.92 4235.82 657.7 4235.82H655.73V4235.82Z" fill="#00ACD9"/>
<path d="M652.97 4243.58C652.97 4243.58 652.75 4243.58 652.75 4243.8V4245.8C652.75 4245.8 652.75 4246.02 652.97 4246.02H654.94C654.94 4246.02 655.16 4246.02 655.16 4245.8V4243.8C655.16 4243.8 655.16 4243.58 654.94 4243.58H652.97Z" fill="#B9D65F"/>
<path d="M648.76 4242.66V4244.45H650.55V4242.66H648.76Z" fill="#00ACD9"/>
<path d="M648.4 4249.52V4250.84H649.72V4249.52H648.4Z" fill="#064766"/>
<path d="M650.44 4259.21C650.44 4259.21 650.22 4259.21 650.22 4259.43V4261.43C650.22 4261.43 650.22 4261.65 650.44 4261.65H652.48C652.48 4261.65 652.7 4261.65 652.7 4261.43V4259.43C652.7 4259.43 652.7 4259.21 652.48 4259.21H650.44Z" fill="#4BBDA2"/>
<path d="M648.98 4253.27C648.98 4253.27 648.76 4253.27 648.76 4253.49V4256.92C648.76 4256.92 648.76 4257.14 648.98 4257.14H652.48C652.48 4257.14 652.7 4257.14 652.7 4256.92V4253.49C652.7 4253.49 652.7 4253.27 652.48 4253.27H648.98Z" fill="#00ACD9"/>
<path d="M651.98 4237.32C651.98 4237.32 651.76 4237.32 651.76 4237.54V4240.11C651.76 4240.11 651.76 4240.33 651.98 4240.33H654.57C654.57 4240.33 654.79 4240.33 654.79 4240.11V4237.54C654.79 4237.54 654.79 4237.32 654.57 4237.32H651.98Z" fill="#4BBDA2"/>
<path d="M651.98 4239.2C651.98 4239.2 651.76 4239.2 651.76 4239.42V4241.99C651.76 4241.99 651.76 4242.21 651.98 4242.21H654.57C654.57 4242.21 654.79 4242.21 654.79 4241.99V4239.42C654.79 4239.42 654.79 4239.2 654.57 4239.2H651.98V4239.2Z" fill="#4BBDA2"/>
<path d="M654.11 4239.2C654.11 4239.2 653.89 4239.2 653.89 4239.42V4241.99C653.89 4241.99 653.89 4242.21 654.11 4242.21H656.7C656.7 4242.21 656.92 4242.21 656.92 4241.99V4239.42C656.92 4239.42 656.92 4239.2 656.7 4239.2H654.11V4239.2Z" fill="#4BBDA2"/>
<path d="M658.88 4237.06C658.88 4237.06 658.66 4237.06 658.66 4237.28V4240.71C658.66 4240.71 658.66 4240.93 658.88 4240.93H662.33C662.33 4240.93 662.55 4240.93 662.55 4240.71V4237.28C662.55 4237.28 662.55 4237.06 662.33 4237.06H658.88V4237.06Z" fill="#4BBDA2"/>
<path d="M664.13 4238.99C664.13 4238.99 663.93 4238.99 663.93 4239.19V4241.5C663.93 4241.5 663.93 4241.7 664.13 4241.7H666.45C666.45 4241.7 666.65 4241.7 666.65 4241.5V4239.19C666.65 4239.19 666.65 4238.99 666.45 4238.99H664.13V4238.99Z" fill="#00ACD9"/>
<path d="M686.32 4306.78V4256.51C686.32 4256.51 680.47 4247.99 671.95 4242.06H663.91V4251.38H669.57C669.79 4251.38 669.79 4251.6 669.79 4251.6V4257.22C669.79 4257.44 669.57 4257.44 669.57 4257.44H663.93C663.71 4257.44 663.71 4257.22 663.71 4257.22V4251.68H662.37V4249.74C662.37 4249.74 662.37 4249.52 662.15 4249.52H658.12C658.12 4249.52 657.9 4249.52 657.9 4249.74V4251.68H654.29V4263.78H650.55C650.55 4263.78 660.75 4299.5 686.33 4306.8" fill="#064766"/>
<path d="M725.02 4234.04C725.02 4234.04 700.03 4231.73 682.26 4261.2C682.26 4261.2 668.75 4283.88 657.84 4280.78C657.84 4280.78 668.02 4302.16 686.4 4307C686.4 4307 725.01 4296.89 725.01 4234.04" fill="#4BBDA2"/>
<path d="M650.88 4248.05C650.88 4248.05 650.66 4248.05 650.66 4248.27V4251.95C650.66 4251.95 650.66 4252.17 650.88 4252.17H654.56C654.56 4252.17 654.78 4252.17 654.78 4251.95V4248.27C654.78 4248.27 654.78 4248.05 654.56 4248.05H650.88V4248.05Z" fill="#064766"/>
</g>
<g clip-path="url(#clip10_11_6221)">
<path d="M43.22 3790.22C43.22 3790.22 43 3790.22 43 3790.44V3793.03C43 3793.03 43 3793.25 43.22 3793.25H45.8C45.8 3793.25 46.02 3793.25 46.02 3793.03V3790.44C46.02 3790.44 46.02 3790.22 45.8 3790.22H43.22Z" fill="#B9D65F"/>
<path d="M43.22 3786.59C43.22 3786.59 43 3786.59 43 3786.81V3788.78C43 3788.78 43 3789 43.22 3789H45.19C45.19 3789 45.41 3789 45.41 3788.78V3786.81C45.41 3786.81 45.41 3786.59 45.19 3786.59H43.22V3786.59Z" fill="#B9D65F"/>
<path d="M43.52 3797.69C43.52 3797.69 43.3 3797.69 43.3 3797.91V3799.88C43.3 3799.88 43.3 3800.1 43.52 3800.1H45.49C45.49 3800.1 45.71 3800.1 45.71 3799.88V3797.91C45.71 3797.91 45.71 3797.69 45.49 3797.69H43.52Z" fill="#064766"/>
<path d="M52.09 3794.32C52.09 3794.32 51.87 3794.32 51.87 3794.54V3800.32C51.87 3800.32 51.87 3800.54 52.09 3800.54H57.87C57.87 3800.54 58.09 3800.54 58.09 3800.32V3794.54C58.09 3794.54 58.09 3794.32 57.87 3794.32H52.09V3794.32Z" fill="#064766"/>
<path d="M47.38 3786.97V3788.41H48.83V3786.97H47.38Z" fill="#00ACD9"/>
<path d="M50.73 3787.82C50.73 3787.82 50.51 3787.82 50.51 3788.04V3790.04C50.51 3790.04 50.51 3790.26 50.73 3790.26H52.7C52.7 3790.26 52.92 3790.26 52.92 3790.04V3788.04C52.92 3788.04 52.92 3787.82 52.7 3787.82H50.73V3787.82Z" fill="#00ACD9"/>
<path d="M47.97 3795.58C47.97 3795.58 47.75 3795.58 47.75 3795.8V3797.8C47.75 3797.8 47.75 3798.02 47.97 3798.02H49.94C49.94 3798.02 50.16 3798.02 50.16 3797.8V3795.8C50.16 3795.8 50.16 3795.58 49.94 3795.58H47.97Z" fill="#B9D65F"/>
<path d="M43.76 3794.66V3796.45H45.55V3794.66H43.76Z" fill="#00ACD9"/>
<path d="M43.4 3801.52V3802.84H44.72V3801.52H43.4Z" fill="#064766"/>
<path d="M45.44 3811.21C45.44 3811.21 45.22 3811.21 45.22 3811.43V3813.43C45.22 3813.43 45.22 3813.65 45.44 3813.65H47.48C47.48 3813.65 47.7 3813.65 47.7 3813.43V3811.43C47.7 3811.43 47.7 3811.21 47.48 3811.21H45.44Z" fill="#4BBDA2"/>
<path d="M43.98 3805.27C43.98 3805.27 43.76 3805.27 43.76 3805.49V3808.92C43.76 3808.92 43.76 3809.14 43.98 3809.14H47.48C47.48 3809.14 47.7 3809.14 47.7 3808.92V3805.49C47.7 3805.49 47.7 3805.27 47.48 3805.27H43.98Z" fill="#00ACD9"/>
<path d="M46.98 3789.32C46.98 3789.32 46.76 3789.32 46.76 3789.54V3792.11C46.76 3792.11 46.76 3792.33 46.98 3792.33H49.57C49.57 3792.33 49.79 3792.33 49.79 3792.11V3789.54C49.79 3789.54 49.79 3789.32 49.57 3789.32H46.98Z" fill="#4BBDA2"/>
<path d="M46.98 3791.2C46.98 3791.2 46.76 3791.2 46.76 3791.42V3793.99C46.76 3793.99 46.76 3794.21 46.98 3794.21H49.57C49.57 3794.21 49.79 3794.21 49.79 3793.99V3791.42C49.79 3791.42 49.79 3791.2 49.57 3791.2H46.98V3791.2Z" fill="#4BBDA2"/>
<path d="M49.11 3791.2C49.11 3791.2 48.89 3791.2 48.89 3791.42V3793.99C48.89 3793.99 48.89 3794.21 49.11 3794.21H51.7C51.7 3794.21 51.92 3794.21 51.92 3793.99V3791.42C51.92 3791.42 51.92 3791.2 51.7 3791.2H49.11V3791.2Z" fill="#4BBDA2"/>
<path d="M53.88 3789.06C53.88 3789.06 53.66 3789.06 53.66 3789.28V3792.71C53.66 3792.71 53.66 3792.93 53.88 3792.93H57.33C57.33 3792.93 57.55 3792.93 57.55 3792.71V3789.28C57.55 3789.28 57.55 3789.06 57.33 3789.06H53.88V3789.06Z" fill="#4BBDA2"/>
<path d="M59.1301 3790.99C59.1301 3790.99 58.9301 3790.99 58.9301 3791.19V3793.5C58.9301 3793.5 58.9301 3793.7 59.1301 3793.7H61.4501C61.4501 3793.7 61.6501 3793.7 61.6501 3793.5V3791.19C61.6501 3791.19 61.6501 3790.99 61.4501 3790.99H59.1301V3790.99Z" fill="#00ACD9"/>
<path d="M81.32 3858.78V3808.51C81.32 3808.51 75.4701 3799.99 66.9501 3794.06H58.91V3803.38H64.57C64.79 3803.38 64.7901 3803.6 64.7901 3803.6V3809.22C64.7901 3809.44 64.57 3809.44 64.57 3809.44H58.93C58.71 3809.44 58.71 3809.22 58.71 3809.22V3803.68H57.37V3801.74C57.37 3801.74 57.37 3801.52 57.15 3801.52H53.12C53.12 3801.52 52.9 3801.52 52.9 3801.74V3803.68H49.29V3815.78H45.55C45.55 3815.78 55.7501 3851.5 81.3301 3858.8" fill="#064766"/>
<path d="M120.02 3786.04C120.02 3786.04 95.03 3783.73 77.26 3813.2C77.26 3813.2 63.75 3835.88 52.84 3832.78C52.84 3832.78 63.02 3854.16 81.4 3859C81.4 3859 120.01 3848.89 120.01 3786.04" fill="#4BBDA2"/>
<path d="M45.88 3800.05C45.88 3800.05 45.66 3800.05 45.66 3800.27V3803.95C45.66 3803.95 45.66 3804.17 45.88 3804.17H49.56C49.56 3804.17 49.78 3804.17 49.78 3803.95V3800.27C49.78 3800.27 49.78 3800.05 49.56 3800.05H45.88V3800.05Z" fill="#064766"/>
</g>
<g clip-path="url(#clip11_11_6221)">
<path d="M1507.22 5137.22C1507.22 5137.22 1507 5137.22 1507 5137.44V5140.03C1507 5140.03 1507 5140.25 1507.22 5140.25H1509.8C1509.8 5140.25 1510.02 5140.25 1510.02 5140.03V5137.44C1510.02 5137.44 1510.02 5137.22 1509.8 5137.22H1507.22Z" fill="#B9D65F"/>
<path d="M1507.22 5133.59C1507.22 5133.59 1507 5133.59 1507 5133.81V5135.78C1507 5135.78 1507 5136 1507.22 5136H1509.19C1509.19 5136 1509.41 5136 1509.41 5135.78V5133.81C1509.41 5133.81 1509.41 5133.59 1509.19 5133.59H1507.22V5133.59Z" fill="#B9D65F"/>
<path d="M1507.52 5144.69C1507.52 5144.69 1507.3 5144.69 1507.3 5144.91V5146.88C1507.3 5146.88 1507.3 5147.1 1507.52 5147.1H1509.49C1509.49 5147.1 1509.71 5147.1 1509.71 5146.88V5144.91C1509.71 5144.91 1509.71 5144.69 1509.49 5144.69H1507.52Z" fill="#064766"/>
<path d="M1516.09 5141.32C1516.09 5141.32 1515.87 5141.32 1515.87 5141.54V5147.32C1515.87 5147.32 1515.87 5147.54 1516.09 5147.54H1521.87C1521.87 5147.54 1522.09 5147.54 1522.09 5147.32V5141.54C1522.09 5141.54 1522.09 5141.32 1521.87 5141.32H1516.09V5141.32Z" fill="#064766"/>
<path d="M1511.38 5133.97V5135.41H1512.83V5133.97H1511.38Z" fill="#00ACD9"/>
<path d="M1514.73 5134.82C1514.73 5134.82 1514.51 5134.82 1514.51 5135.04V5137.04C1514.51 5137.04 1514.51 5137.26 1514.73 5137.26H1516.7C1516.7 5137.26 1516.92 5137.26 1516.92 5137.04V5135.04C1516.92 5135.04 1516.92 5134.82 1516.7 5134.82H1514.73V5134.82Z" fill="#00ACD9"/>
<path d="M1511.97 5142.58C1511.97 5142.58 1511.75 5142.58 1511.75 5142.8V5144.8C1511.75 5144.8 1511.75 5145.02 1511.97 5145.02H1513.94C1513.94 5145.02 1514.16 5145.02 1514.16 5144.8V5142.8C1514.16 5142.8 1514.16 5142.58 1513.94 5142.58H1511.97Z" fill="#B9D65F"/>
<path d="M1507.76 5141.66V5143.45H1509.55V5141.66H1507.76Z" fill="#00ACD9"/>
<path d="M1507.4 5148.52V5149.84H1508.72V5148.52H1507.4Z" fill="#064766"/>
<path d="M1509.44 5158.21C1509.44 5158.21 1509.22 5158.21 1509.22 5158.43V5160.43C1509.22 5160.43 1509.22 5160.65 1509.44 5160.65H1511.48C1511.48 5160.65 1511.7 5160.65 1511.7 5160.43V5158.43C1511.7 5158.43 1511.7 5158.21 1511.48 5158.21H1509.44Z" fill="#4BBDA2"/>
<path d="M1507.98 5152.27C1507.98 5152.27 1507.76 5152.27 1507.76 5152.49V5155.92C1507.76 5155.92 1507.76 5156.14 1507.98 5156.14H1511.48C1511.48 5156.14 1511.7 5156.14 1511.7 5155.92V5152.49C1511.7 5152.49 1511.7 5152.27 1511.48 5152.27H1507.98Z" fill="#00ACD9"/>
<path d="M1510.98 5136.32C1510.98 5136.32 1510.76 5136.32 1510.76 5136.54V5139.11C1510.76 5139.11 1510.76 5139.33 1510.98 5139.33H1513.57C1513.57 5139.33 1513.79 5139.33 1513.79 5139.11V5136.54C1513.79 5136.54 1513.79 5136.32 1513.57 5136.32H1510.98Z" fill="#4BBDA2"/>
<path d="M1510.98 5138.2C1510.98 5138.2 1510.76 5138.2 1510.76 5138.42V5140.99C1510.76 5140.99 1510.76 5141.21 1510.98 5141.21H1513.57C1513.57 5141.21 1513.79 5141.21 1513.79 5140.99V5138.42C1513.79 5138.42 1513.79 5138.2 1513.57 5138.2H1510.98V5138.2Z" fill="#4BBDA2"/>
<path d="M1513.11 5138.2C1513.11 5138.2 1512.89 5138.2 1512.89 5138.42V5140.99C1512.89 5140.99 1512.89 5141.21 1513.11 5141.21H1515.7C1515.7 5141.21 1515.92 5141.21 1515.92 5140.99V5138.42C1515.92 5138.42 1515.92 5138.2 1515.7 5138.2H1513.11V5138.2Z" fill="#4BBDA2"/>
<path d="M1517.88 5136.06C1517.88 5136.06 1517.66 5136.06 1517.66 5136.28V5139.71C1517.66 5139.71 1517.66 5139.93 1517.88 5139.93H1521.33C1521.33 5139.93 1521.55 5139.93 1521.55 5139.71V5136.28C1521.55 5136.28 1521.55 5136.06 1521.33 5136.06H1517.88V5136.06Z" fill="#4BBDA2"/>
<path d="M1523.13 5137.99C1523.13 5137.99 1522.93 5137.99 1522.93 5138.19V5140.5C1522.93 5140.5 1522.93 5140.7 1523.13 5140.7H1525.45C1525.45 5140.7 1525.65 5140.7 1525.65 5140.5V5138.19C1525.65 5138.19 1525.65 5137.99 1525.45 5137.99H1523.13V5137.99Z" fill="#00ACD9"/>
<path d="M1545.32 5205.78V5155.51C1545.32 5155.51 1539.47 5146.99 1530.95 5141.06H1522.91V5150.38H1528.57C1528.79 5150.38 1528.79 5150.6 1528.79 5150.6V5156.22C1528.79 5156.44 1528.57 5156.44 1528.57 5156.44H1522.93C1522.71 5156.44 1522.71 5156.22 1522.71 5156.22V5150.68H1521.37V5148.74C1521.37 5148.74 1521.37 5148.52 1521.15 5148.52H1517.12C1517.12 5148.52 1516.9 5148.52 1516.9 5148.74V5150.68H1513.29V5162.78H1509.55C1509.55 5162.78 1519.75 5198.5 1545.33 5205.8" fill="#064766"/>
<path d="M1584.02 5133.04C1584.02 5133.04 1559.03 5130.73 1541.26 5160.2C1541.26 5160.2 1527.75 5182.88 1516.84 5179.78C1516.84 5179.78 1527.02 5201.16 1545.4 5206C1545.4 5206 1584.01 5195.89 1584.01 5133.04" fill="#4BBDA2"/>
<path d="M1509.88 5147.05C1509.88 5147.05 1509.66 5147.05 1509.66 5147.27V5150.95C1509.66 5150.95 1509.66 5151.17 1509.88 5151.17H1513.56C1513.56 5151.17 1513.78 5151.17 1513.78 5150.95V5147.27C1513.78 5147.27 1513.78 5147.05 1513.56 5147.05H1509.88V5147.05Z" fill="#064766"/>
</g>
<g clip-path="url(#clip12_11_6221)">
<path d="M419.22 6166.22C419.22 6166.22 419 6166.22 419 6166.44V6169.03C419 6169.03 419 6169.25 419.22 6169.25H421.8C421.8 6169.25 422.02 6169.25 422.02 6169.03V6166.44C422.02 6166.44 422.02 6166.22 421.8 6166.22H419.22Z" fill="#B9D65F"/>
<path d="M419.22 6162.59C419.22 6162.59 419 6162.59 419 6162.81V6164.78C419 6164.78 419 6165 419.22 6165H421.19C421.19 6165 421.41 6165 421.41 6164.78V6162.81C421.41 6162.81 421.41 6162.59 421.19 6162.59H419.22V6162.59Z" fill="#B9D65F"/>
<path d="M419.52 6173.69C419.52 6173.69 419.3 6173.69 419.3 6173.91V6175.88C419.3 6175.88 419.3 6176.1 419.52 6176.1H421.49C421.49 6176.1 421.71 6176.1 421.71 6175.88V6173.91C421.71 6173.91 421.71 6173.69 421.49 6173.69H419.52Z" fill="#064766"/>
<path d="M428.09 6170.32C428.09 6170.32 427.87 6170.32 427.87 6170.54V6176.32C427.87 6176.32 427.87 6176.54 428.09 6176.54H433.87C433.87 6176.54 434.09 6176.54 434.09 6176.32V6170.54C434.09 6170.54 434.09 6170.32 433.87 6170.32H428.09V6170.32Z" fill="#064766"/>
<path d="M423.38 6162.97V6164.41H424.83V6162.97H423.38Z" fill="#00ACD9"/>
<path d="M426.73 6163.82C426.73 6163.82 426.51 6163.82 426.51 6164.04V6166.04C426.51 6166.04 426.51 6166.26 426.73 6166.26H428.7C428.7 6166.26 428.92 6166.26 428.92 6166.04V6164.04C428.92 6164.04 428.92 6163.82 428.7 6163.82H426.73V6163.82Z" fill="#00ACD9"/>
<path d="M423.97 6171.58C423.97 6171.58 423.75 6171.58 423.75 6171.8V6173.8C423.75 6173.8 423.75 6174.02 423.97 6174.02H425.94C425.94 6174.02 426.16 6174.02 426.16 6173.8V6171.8C426.16 6171.8 426.16 6171.58 425.94 6171.58H423.97Z" fill="#B9D65F"/>
<path d="M419.76 6170.66V6172.45H421.55V6170.66H419.76Z" fill="#00ACD9"/>
<path d="M419.4 6177.52V6178.84H420.72V6177.52H419.4Z" fill="#064766"/>
<path d="M421.44 6187.21C421.44 6187.21 421.22 6187.21 421.22 6187.43V6189.43C421.22 6189.43 421.22 6189.65 421.44 6189.65H423.48C423.48 6189.65 423.7 6189.65 423.7 6189.43V6187.43C423.7 6187.43 423.7 6187.21 423.48 6187.21H421.44Z" fill="#4BBDA2"/>
<path d="M419.98 6181.27C419.98 6181.27 419.76 6181.27 419.76 6181.49V6184.92C419.76 6184.92 419.76 6185.14 419.98 6185.14H423.48C423.48 6185.14 423.7 6185.14 423.7 6184.92V6181.49C423.7 6181.49 423.7 6181.27 423.48 6181.27H419.98Z" fill="#00ACD9"/>
<path d="M422.98 6165.32C422.98 6165.32 422.76 6165.32 422.76 6165.54V6168.11C422.76 6168.11 422.76 6168.33 422.98 6168.33H425.57C425.57 6168.33 425.79 6168.33 425.79 6168.11V6165.54C425.79 6165.54 425.79 6165.32 425.57 6165.32H422.98Z" fill="#4BBDA2"/>
<path d="M422.98 6167.2C422.98 6167.2 422.76 6167.2 422.76 6167.42V6169.99C422.76 6169.99 422.76 6170.21 422.98 6170.21H425.57C425.57 6170.21 425.79 6170.21 425.79 6169.99V6167.42C425.79 6167.42 425.79 6167.2 425.57 6167.2H422.98V6167.2Z" fill="#4BBDA2"/>
<path d="M425.11 6167.2C425.11 6167.2 424.89 6167.2 424.89 6167.42V6169.99C424.89 6169.99 424.89 6170.21 425.11 6170.21H427.7C427.7 6170.21 427.92 6170.21 427.92 6169.99V6167.42C427.92 6167.42 427.92 6167.2 427.7 6167.2H425.11V6167.2Z" fill="#4BBDA2"/>
<path d="M429.88 6165.06C429.88 6165.06 429.66 6165.06 429.66 6165.28V6168.71C429.66 6168.71 429.66 6168.93 429.88 6168.93H433.33C433.33 6168.93 433.55 6168.93 433.55 6168.71V6165.28C433.55 6165.28 433.55 6165.06 433.33 6165.06H429.88V6165.06Z" fill="#4BBDA2"/>
<path d="M435.13 6166.99C435.13 6166.99 434.93 6166.99 434.93 6167.19V6169.5C434.93 6169.5 434.93 6169.7 435.13 6169.7H437.45C437.45 6169.7 437.65 6169.7 437.65 6169.5V6167.19C437.65 6167.19 437.65 6166.99 437.45 6166.99H435.13V6166.99Z" fill="#00ACD9"/>
<path d="M457.32 6234.78V6184.51C457.32 6184.51 451.47 6175.99 442.95 6170.06H434.91V6179.38H440.57C440.79 6179.38 440.79 6179.6 440.79 6179.6V6185.22C440.79 6185.44 440.57 6185.44 440.57 6185.44H434.93C434.71 6185.44 434.71 6185.22 434.71 6185.22V6179.68H433.37V6177.74C433.37 6177.74 433.37 6177.52 433.15 6177.52H429.12C429.12 6177.52 428.9 6177.52 428.9 6177.74V6179.68H425.29V6191.78H421.55C421.55 6191.78 431.75 6227.5 457.33 6234.8" fill="#064766"/>
<path d="M496.02 6162.04C496.02 6162.04 471.03 6159.73 453.26 6189.2C453.26 6189.2 439.75 6211.88 428.84 6208.78C428.84 6208.78 439.02 6230.16 457.4 6235C457.4 6235 496.01 6224.89 496.01 6162.04" fill="#4BBDA2"/>
<path d="M421.88 6176.05C421.88 6176.05 421.66 6176.05 421.66 6176.27V6179.95C421.66 6179.95 421.66 6180.17 421.88 6180.17H425.56C425.56 6180.17 425.78 6180.17 425.78 6179.95V6176.27C425.78 6176.27 425.78 6176.05 425.56 6176.05H421.88V6176.05Z" fill="#064766"/>
</g>
<g clip-path="url(#clip13_11_6221)">
<path d="M115.22 5314.22C115.22 5314.22 115 5314.22 115 5314.44V5317.03C115 5317.03 115 5317.25 115.22 5317.25H117.8C117.8 5317.25 118.02 5317.25 118.02 5317.03V5314.44C118.02 5314.44 118.02 5314.22 117.8 5314.22H115.22Z" fill="#B9D65F"/>
<path d="M115.22 5310.59C115.22 5310.59 115 5310.59 115 5310.81V5312.78C115 5312.78 115 5313 115.22 5313H117.19C117.19 5313 117.41 5313 117.41 5312.78V5310.81C117.41 5310.81 117.41 5310.59 117.19 5310.59H115.22V5310.59Z" fill="#B9D65F"/>
<path d="M115.52 5321.69C115.52 5321.69 115.3 5321.69 115.3 5321.91V5323.88C115.3 5323.88 115.3 5324.1 115.52 5324.1H117.49C117.49 5324.1 117.71 5324.1 117.71 5323.88V5321.91C117.71 5321.91 117.71 5321.69 117.49 5321.69H115.52Z" fill="#064766"/>
<path d="M124.09 5318.32C124.09 5318.32 123.87 5318.32 123.87 5318.54V5324.32C123.87 5324.32 123.87 5324.54 124.09 5324.54H129.87C129.87 5324.54 130.09 5324.54 130.09 5324.32V5318.54C130.09 5318.54 130.09 5318.32 129.87 5318.32H124.09V5318.32Z" fill="#064766"/>
<path d="M119.38 5310.97V5312.41H120.83V5310.97H119.38Z" fill="#00ACD9"/>
<path d="M122.73 5311.82C122.73 5311.82 122.51 5311.82 122.51 5312.04V5314.04C122.51 5314.04 122.51 5314.26 122.73 5314.26H124.7C124.7 5314.26 124.92 5314.26 124.92 5314.04V5312.04C124.92 5312.04 124.92 5311.82 124.7 5311.82H122.73V5311.82Z" fill="#00ACD9"/>
<path d="M119.97 5319.58C119.97 5319.58 119.75 5319.58 119.75 5319.8V5321.8C119.75 5321.8 119.75 5322.02 119.97 5322.02H121.94C121.94 5322.02 122.16 5322.02 122.16 5321.8V5319.8C122.16 5319.8 122.16 5319.58 121.94 5319.58H119.97Z" fill="#B9D65F"/>
<path d="M115.76 5318.66V5320.45H117.55V5318.66H115.76Z" fill="#00ACD9"/>
<path d="M115.4 5325.52V5326.84H116.72V5325.52H115.4Z" fill="#064766"/>
<path d="M117.44 5335.21C117.44 5335.21 117.22 5335.21 117.22 5335.43V5337.43C117.22 5337.43 117.22 5337.65 117.44 5337.65H119.48C119.48 5337.65 119.7 5337.65 119.7 5337.43V5335.43C119.7 5335.43 119.7 5335.21 119.48 5335.21H117.44Z" fill="#4BBDA2"/>
<path d="M115.98 5329.27C115.98 5329.27 115.76 5329.27 115.76 5329.49V5332.92C115.76 5332.92 115.76 5333.14 115.98 5333.14H119.48C119.48 5333.14 119.7 5333.14 119.7 5332.92V5329.49C119.7 5329.49 119.7 5329.27 119.48 5329.27H115.98Z" fill="#00ACD9"/>
<path d="M118.98 5313.32C118.98 5313.32 118.76 5313.32 118.76 5313.54V5316.11C118.76 5316.11 118.76 5316.33 118.98 5316.33H121.57C121.57 5316.33 121.79 5316.33 121.79 5316.11V5313.54C121.79 5313.54 121.79 5313.32 121.57 5313.32H118.98Z" fill="#4BBDA2"/>
<path d="M118.98 5315.2C118.98 5315.2 118.76 5315.2 118.76 5315.42V5317.99C118.76 5317.99 118.76 5318.21 118.98 5318.21H121.57C121.57 5318.21 121.79 5318.21 121.79 5317.99V5315.42C121.79 5315.42 121.79 5315.2 121.57 5315.2H118.98V5315.2Z" fill="#4BBDA2"/>
<path d="M121.11 5315.2C121.11 5315.2 120.89 5315.2 120.89 5315.42V5317.99C120.89 5317.99 120.89 5318.21 121.11 5318.21H123.7C123.7 5318.21 123.92 5318.21 123.92 5317.99V5315.42C123.92 5315.42 123.92 5315.2 123.7 5315.2H121.11V5315.2Z" fill="#4BBDA2"/>
<path d="M125.88 5313.06C125.88 5313.06 125.66 5313.06 125.66 5313.28V5316.71C125.66 5316.71 125.66 5316.93 125.88 5316.93H129.33C129.33 5316.93 129.55 5316.93 129.55 5316.71V5313.28C129.55 5313.28 129.55 5313.06 129.33 5313.06H125.88V5313.06Z" fill="#4BBDA2"/>
<path d="M131.13 5314.99C131.13 5314.99 130.93 5314.99 130.93 5315.19V5317.5C130.93 5317.5 130.93 5317.7 131.13 5317.7H133.45C133.45 5317.7 133.65 5317.7 133.65 5317.5V5315.19C133.65 5315.19 133.65 5314.99 133.45 5314.99H131.13V5314.99Z" fill="#00ACD9"/>
<path d="M153.32 5382.78V5332.51C153.32 5332.51 147.47 5323.99 138.95 5318.06H130.91V5327.38H136.57C136.79 5327.38 136.79 5327.6 136.79 5327.6V5333.22C136.79 5333.44 136.57 5333.44 136.57 5333.44H130.93C130.71 5333.44 130.71 5333.22 130.71 5333.22V5327.68H129.37V5325.74C129.37 5325.74 129.37 5325.52 129.15 5325.52H125.12C125.12 5325.52 124.9 5325.52 124.9 5325.74V5327.68H121.29V5339.78H117.55C117.55 5339.78 127.75 5375.5 153.33 5382.8" fill="#064766"/>
<path d="M192.02 5310.04C192.02 5310.04 167.03 5307.73 149.26 5337.2C149.26 5337.2 135.75 5359.88 124.84 5356.78C124.84 5356.78 135.02 5378.16 153.4 5383C153.4 5383 192.01 5372.89 192.01 5310.04" fill="#4BBDA2"/>
<path d="M117.88 5324.05C117.88 5324.05 117.66 5324.05 117.66 5324.27V5327.95C117.66 5327.95 117.66 5328.17 117.88 5328.17H121.56C121.56 5328.17 121.78 5328.17 121.78 5327.95V5324.27C121.78 5324.27 121.78 5324.05 121.56 5324.05H117.88V5324.05Z" fill="#064766"/>
</g>
</g>
<defs>
<clipPath id="clip0_11_6221">
<rect width="77.02" height="73" fill="white" transform="translate(1414 704)"/>
</clipPath>
<clipPath id="clip1_11_6221">
<rect width="77.02" height="73" fill="white" transform="translate(1730 235)"/>
</clipPath>
<clipPath id="clip2_11_6221">
<rect width="77.02" height="73" fill="white" transform="translate(39 798)"/>
</clipPath>
<clipPath id="clip3_11_6221">
<rect width="77.02" height="73" fill="white" transform="translate(204 1732)"/>
</clipPath>
<clipPath id="clip4_11_6221">
<rect width="77.02" height="73" fill="white" transform="translate(927)"/>
</clipPath>
<clipPath id="clip5_11_6221">
<rect width="77.02" height="73" fill="white" transform="translate(0 2834)"/>
</clipPath>
<clipPath id="clip6_11_6221">
<rect width="77.02" height="73" fill="white" transform="translate(1701 2077)"/>
</clipPath>
<clipPath id="clip7_11_6221">
<rect width="77.02" height="73" fill="white" transform="translate(1233 3092)"/>
</clipPath>
<clipPath id="clip8_11_6221">
<rect width="77.02" height="73" fill="white" transform="translate(1666 4007)"/>
</clipPath>
<clipPath id="clip9_11_6221">
<rect width="77.02" height="73" fill="white" transform="translate(648 4234)"/>
</clipPath>
<clipPath id="clip10_11_6221">
<rect width="77.02" height="73" fill="white" transform="translate(43 3786)"/>
</clipPath>
<clipPath id="clip11_11_6221">
<rect width="77.02" height="73" fill="white" transform="translate(1507 5133)"/>
</clipPath>
<clipPath id="clip12_11_6221">
<rect width="77.02" height="73" fill="white" transform="translate(419 6162)"/>
</clipPath>
<clipPath id="clip13_11_6221">
<rect width="77.02" height="73" fill="white" transform="translate(115 5310)"/>
</clipPath>
</defs>
</svg>
