<svg width="24" height="25" viewBox="0 0 24 25" fill="none" xmlns="http://www.w3.org/2000/svg">
<g clip-path="url(#clip0_11_5117)">
<path d="M18.53 23.68C20.64 23.58 22.84 22.09 23.37 20.2C23.47 19.84 23.42 19.2 23.17 19C21.55 17.65 19.87 16.37 18.17 15.12C17.99 14.99 17.52 15.03 17.32 15.18C16.83 15.55 16.44 16.05 15.96 16.44C15.13 17.13 14.02 17.15 13.15 16.52C10.97 14.94 9.07003 13.08 7.49003 10.89C6.79003 9.92001 6.86003 8.76001 7.68003 7.89001C7.99003 7.56001 8.30003 7.23001 8.64003 6.94001C9.15003 6.51001 9.18003 6.12001 8.74003 5.59001C7.60003 4.19001 6.52003 2.75001 5.42003 1.33001C4.66003 0.360014 4.25003 0.280014 3.15003 0.870014C0.620029 2.25001 -0.239971 5.36001 1.19003 8.02001C4.64003 14.44 9.57003 19.4 16.01 22.81C16.79 23.22 17.69 23.39 18.53 23.68Z" fill="#151E2F"/>
<path d="M18.5301 23.68C17.6901 23.4 16.7901 23.22 16.0101 22.81C9.57007 19.4 4.64007 14.44 1.19007 8.02001C-0.239934 5.36001 0.620066 2.25001 3.17007 0.870014C4.27007 0.280014 4.68007 0.360014 5.44007 1.33001C6.55007 2.75001 7.63007 4.19001 8.76007 5.59001C9.20007 6.13001 9.16007 6.51001 8.66007 6.94001C8.32007 7.23001 8.01007 7.56001 7.70007 7.89001C6.88007 8.76001 6.81007 9.92001 7.51007 10.89C9.09007 13.08 10.9901 14.94 13.1701 16.52C14.0401 17.15 15.1401 17.13 15.9801 16.44C16.4601 16.05 16.8401 15.55 17.3401 15.18C17.5401 15.03 18.0101 14.99 18.1901 15.12C19.8801 16.38 21.5601 17.66 23.1901 19C23.4301 19.2 23.4901 19.83 23.3901 20.2C22.8601 22.09 20.6601 23.58 18.5501 23.68H18.5301Z" stroke="#151E2F" stroke-miterlimit="10"/>
</g>
<defs>
<clipPath id="clip0_11_5117">
<rect width="23.93" height="24.18" fill="white"/>
</clipPath>
</defs>
</svg>
