<svg width="50" height="50" viewBox="0 0 50 50" fill="none" xmlns="http://www.w3.org/2000/svg">
<path d="M39.7067 0H10.2933C4.60848 0 0 4.60848 0 10.2933V39.7067C0 45.3915 4.60848 50 10.2933 50H39.7067C45.3915 50 50 45.3915 50 39.7067V10.2933C50 4.60848 45.3915 0 39.7067 0Z" fill="white"/>
<path d="M12.8967 33.1888C15.6254 33.3447 18.011 32.6976 20.3421 31.0058C17.9876 30.6004 16.3582 29.5324 15.4695 27.3026C16.1477 27.2013 16.7636 27.3884 17.4731 27.1077C15.1576 26.0942 13.6607 24.5662 13.5984 21.9311C14.3312 21.9934 14.8847 22.469 15.7579 22.4066C13.6218 20.325 12.9747 18.0563 14.3156 15.2965C16.5375 17.8536 19.1415 19.5844 22.3145 20.403C22.4861 20.4498 22.6576 20.4965 22.8291 20.5355C23.6477 20.7226 24.6144 21.128 25.1134 21.0657C25.971 20.9565 25.1134 19.9742 25.3317 18.7034C26.0099 14.7273 30.3836 12.9264 33.6191 15.2575C34.5624 15.9358 35.3186 15.928 36.2386 15.5148C36.7298 15.2965 37.2209 15.0938 37.7978 14.8443C37.6653 15.9825 36.7999 16.5984 36.0983 17.4482C36.8935 17.6275 37.5328 17.4015 38.2578 17.1676C38.0083 17.9862 37.4002 18.4461 36.8389 18.8983C36.262 19.3583 36.0359 19.8417 36.0125 20.5979C35.6539 32.0505 22.642 40.9148 13.7387 33.8593C12.8733 33.1732 13.7153 33.8593 12.8889 33.1888H12.8967Z" fill="#141E30"/>
</svg>
