<svg width="50" height="50" viewBox="0 0 50 50" fill="none" xmlns="http://www.w3.org/2000/svg">
<path d="M39.7067 0H10.2933C4.60848 0 0 4.60848 0 10.2933V39.7067C0 45.3915 4.60848 50 10.2933 50H39.7067C45.3915 50 50 45.3915 50 39.7067V10.2933C50 4.60848 45.3915 0 39.7067 0Z" fill="white"/>
<path d="M36.144 14.2222H13.6604C10.657 14.2222 8.22223 16.6569 8.22223 19.6603V29.388C8.22223 32.3914 10.657 34.8262 13.6604 34.8262H36.144C39.1475 34.8262 41.5822 32.3914 41.5822 29.388V19.6603C41.5822 16.6569 39.1475 14.2222 36.144 14.2222Z" fill="#141E30"/>
<path d="M30.7919 23.9998L21.2097 18.4709V29.5376L30.7919 23.9998Z" fill="white"/>
</svg>
