<svg width="82" height="79" viewBox="0 0 82 79" fill="none" xmlns="http://www.w3.org/2000/svg">
<g clip-path="url(#clip0_11_4297)">
<path d="M57.8201 27.24C53.4201 22.82 47.5501 20.39 41.2901 20.38H41.2601C35.0201 20.38 29.1701 22.8 24.7701 27.19C20.3601 31.6 17.9301 37.47 17.9301 43.74C17.9301 56.56 28.3801 67.03 41.2201 67.08C41.2501 67.08 41.2801 67.08 41.3201 67.08C47.5101 67.08 53.3401 64.68 57.7301 60.32C62.1601 55.92 64.6101 50.04 64.6201 43.76C64.6301 37.51 62.2201 31.64 57.8301 27.23L57.8201 27.24ZM58.4701 43.79C58.4701 48.38 56.6601 52.69 53.4101 55.93C50.1601 59.16 45.8501 60.94 41.2601 60.94C41.2501 60.94 41.2301 60.94 41.2201 60.94C31.7501 60.92 24.0601 53.18 24.0801 43.68C24.0801 39.09 25.8901 34.78 29.1401 31.54C32.3901 28.31 36.7001 26.53 41.2901 26.53H41.3201C50.7901 26.55 58.4801 34.29 58.4601 43.79H58.4701Z" fill="#60D0AE"/>
<path d="M73.39 32.79C74.12 31.58 74.83 30.39 75.55 29.21C75.82 28.76 76.24 28.44 76.73 28.62C77.1 28.76 77.47 29.12 77.66 29.48C77.78 29.7 77.64 30.14 77.49 30.41C76.34 32.4 75.16 34.37 73.98 36.33C73.6 36.97 72.95 37.12 72.31 36.73C70.34 35.55 68.37 34.37 66.42 33.17C65.75 32.76 65.59 32.1 65.96 31.52C66.31 30.98 66.95 30.84 67.59 31.21C68.66 31.83 69.72 32.48 70.96 33.21C70.84 32.81 70.78 32.57 70.69 32.35C66.19 21.49 58.24 14.69 46.67 12.57C30.42 9.59995 14.91 19.5 10.52 35.4C10.15 36.73 9.93996 38.11 9.68996 39.47C9.53996 40.31 9.08996 40.77 8.39996 40.71C7.70996 40.64 7.29996 40.11 7.40996 39.25C7.92996 35.13 9.16996 31.22 11.18 27.59C16.11 18.74 23.47 12.91 33.35 10.66C44.62 8.08995 54.78 10.7 63.57 18.25C67.98 22.04 71.1 26.75 73.08 32.21C73.14 32.37 73.21 32.52 73.28 32.67C73.28 32.69 73.31 32.7 73.41 32.79H73.39Z" fill="#4DA9D4" stroke="#4DA9D4" stroke-width="2.37"/>
<path d="M9.12996 55.46C8.36996 56.8 7.68996 58 7.00996 59.2C6.72996 59.69 6.28996 59.99 5.75996 59.8C5.40996 59.67 5.06996 59.32 4.87996 58.98C4.75996 58.77 4.85996 58.36 4.99996 58.11C6.10996 56.07 7.23996 54.05 8.38996 52.04C8.75996 51.39 9.38996 51.23 10.05 51.6C12.03 52.7 14.01 53.82 15.98 54.95C16.7 55.36 16.9 55.96 16.58 56.56C16.25 57.18 15.58 57.34 14.85 56.95C13.77 56.36 12.7 55.74 11.62 55.14L11.44 55.25C12.15 56.67 12.76 58.14 13.57 59.5C18.67 68.08 26.15 73.35 35.98 75.02C52.83 77.88 68.92 66.58 72.17 49.78C72.29 49.17 72.37 48.55 72.48 47.94C72.63 47.11 73.14 46.67 73.82 46.76C74.5 46.86 74.86 47.43 74.75 48.27C72.91 62.54 61.92 74.28 47.81 77.07C31.5 80.29 15.5 71.57 9.38996 56.13C9.31996 55.95 9.24996 55.78 9.11996 55.46H9.12996Z" fill="#4DA9D4" stroke="#4DA9D4" stroke-width="2.37"/>
<path d="M3.19995 22.01V28.41" stroke="#41C1E3" stroke-width="0.58"/>
<path d="M6.4 25.21H0" stroke="#41C1E3" stroke-width="0.58"/>
<path d="M43.38 30.7H39.79V35.04H43.38V30.7Z" fill="#4DA9D4"/>
<path d="M43.38 51.7999H39.79V56.1399H43.38V51.7999Z" fill="#4DA9D4"/>
<path d="M40.96 52.5199C43.49 52.5199 45.49 52.0499 46.96 51.1199C48.43 50.1899 49.14 48.9999 49.09 47.5499C49.06 46.7499 48.85 46.0199 48.47 45.3599C48.08 44.7099 47.53 44.1299 46.82 43.6399C46.11 43.1499 44.95 42.6099 43.36 42.0299C40.33 40.9199 38.8 39.8599 38.76 38.8399C38.74 38.2199 38.99 37.7199 39.5 37.3299C40.02 36.9399 40.76 36.7499 41.72 36.7499C43.35 36.7499 44.64 36.9899 46.14 37.7899L47.59 35.2099C46.29 34.4399 44.28 34.0499 41.55 34.0499C39.46 34.0499 37.76 34.5099 36.46 35.4099C35.16 36.3199 34.53 37.4699 34.58 38.8499C34.61 39.5899 34.8 40.2599 35.16 40.8699C35.52 41.4799 36.02 42.0099 36.66 42.4499C37.3 42.8899 38.54 43.4599 40.37 44.1399C42.2 44.8299 43.41 45.4499 44.01 45.9999C44.61 46.5499 44.92 47.1299 44.94 47.7399C44.99 49.0399 43.78 49.6899 41.33 49.6899C39.73 49.6899 38.28 49.3099 36.6 48.4299L35.11 51.2999C36.91 52.1599 38.76 52.5099 40.96 52.5099" fill="#4DA9D4"/>
<path d="M40.96 52.5199C43.49 52.5199 45.49 52.0499 46.96 51.1199C48.43 50.1899 49.14 48.9999 49.09 47.5499C49.06 46.7499 48.85 46.0199 48.47 45.3599C48.08 44.7099 47.53 44.1299 46.82 43.6399C46.11 43.1499 44.95 42.6099 43.36 42.0299C40.33 40.9199 38.8 39.8599 38.76 38.8399C38.74 38.2199 38.99 37.7199 39.5 37.3299C40.02 36.9399 40.76 36.7499 41.72 36.7499C43.35 36.7499 44.64 36.9899 46.14 37.7899L47.59 35.2099C46.29 34.4399 44.28 34.0499 41.55 34.0499C39.46 34.0499 37.76 34.5099 36.46 35.4099C35.16 36.3199 34.53 37.4699 34.58 38.8499C34.61 39.5899 34.8 40.2599 35.16 40.8699C35.52 41.4799 36.02 42.0099 36.66 42.4499C37.3 42.8899 38.54 43.4599 40.37 44.1399C42.2 44.8299 43.41 45.4499 44.01 45.9999C44.61 46.5499 44.92 47.1299 44.94 47.7399C44.98 49.0399 43.78 49.6899 41.33 49.6899C39.73 49.6899 38.28 49.3099 36.6 48.4299L35.11 51.2999C36.91 52.1599 38.76 52.5099 40.96 52.5099V52.5199Z" fill="#4DA9D4"/>
<path d="M46.9901 38.4499C48.0301 38.4499 48.8701 37.6099 48.8701 36.5699C48.8701 35.5299 48.0301 34.6899 46.9901 34.6899C45.9501 34.6899 45.1101 35.5299 45.1101 36.5699C45.1101 37.6099 45.9501 38.4499 46.9901 38.4499Z" fill="#4DA9D4"/>
<path d="M35.4501 51.6999C36.5701 51.6999 37.4701 50.7999 37.4701 49.6799C37.4701 48.5599 36.5701 47.6599 35.4501 47.6599C34.3301 47.6599 33.4301 48.5699 33.4301 49.6799C33.4301 50.7899 34.3301 51.6999 35.4501 51.6999Z" fill="#4DA9D4"/>
<path d="M71.85 69.58V75.76" stroke="#68BFDF" stroke-width="1.74"/>
<path d="M74.94 72.6699H68.76" stroke="#68BFDF" stroke-width="1.74"/>
<path d="M3.19995 22.23V28.41" stroke="#68BFDF" stroke-width="1.74"/>
<path d="M6.28999 25.3199H0.109985" stroke="#68BFDF" stroke-width="1.74"/>
<path d="M14.3099 0V7.21" stroke="#C3F97D" stroke-width="1.67"/>
<path d="M17.91 3.59998H10.7" stroke="#C3F97D" stroke-width="1.67"/>
<path d="M78.29 4.47998H72.72V10.05H78.29V4.47998Z" fill="white"/>
<path d="M81.4901 9.81995H78.0601V13.2499H81.4901V9.81995Z" fill="white"/>
</g>
<defs>
<clipPath id="clip0_11_4297">
<rect width="81.48" height="78.92" fill="white"/>
</clipPath>
</defs>
</svg>
