<svg width="115" height="46" viewBox="0 0 115 46" fill="none" xmlns="http://www.w3.org/2000/svg">
<path d="M57.2245 42.4302C57.0156 42.2499 56.8571 42.1129 56.6987 41.9615C56.5402 41.8101 56.3818 41.6659 56.2521 41.5001C55.82 40.9449 55.964 40.4691 56.6267 40.26C56.9508 40.1518 57.2821 40.0869 57.6998 39.9788C57.5342 39.8706 57.4477 39.8057 57.3613 39.7625C56.6555 39.402 56.3098 38.8252 56.3025 38.0249C56.2953 37.1957 56.6555 36.5901 57.3613 36.2008C58.3192 35.6744 59.342 35.6023 60.3503 35.9773C61.157 36.2801 61.9493 36.518 62.828 36.4098C63.2169 36.3594 63.2745 36.5036 63.1953 37.1092C62.8856 37.1381 62.5615 37.1741 62.2446 37.2029C61.9925 37.2246 61.8844 37.3399 61.8844 37.5923C61.87 39.4452 60.5232 40.2239 59.0899 40.1807C58.7802 40.1734 58.4705 40.2095 58.1608 40.2455C58.0455 40.26 57.8943 40.2744 57.8223 40.3537C57.707 40.4763 57.5846 40.6421 57.5846 40.7863C57.5846 40.9017 57.7646 41.0747 57.8943 41.1035C58.2184 41.1756 58.5569 41.1756 58.8882 41.1973C59.6085 41.2405 60.3215 41.2766 61.0418 41.3198C61.1498 41.327 61.2506 41.3631 61.3587 41.3847C61.9565 41.5361 62.475 41.8101 62.6263 42.4662C62.792 43.1656 62.5975 43.7712 62.0573 44.2615C61.4235 44.8383 60.6528 45.1123 59.8389 45.3069C58.8162 45.5521 57.7791 45.6891 56.7491 45.4151C56.4466 45.3358 56.1369 45.1844 55.8848 44.9969C55.2942 44.5427 55.2798 43.7784 55.8344 43.2954C56.0649 43.0935 56.3458 42.9421 56.6051 42.7762C56.7851 42.6609 56.9796 42.5672 57.2245 42.4302ZM58.9026 42.6032C58.6145 42.6032 58.3264 42.5888 58.0383 42.6032C57.4261 42.6393 56.8787 43.1512 56.8283 43.7352C56.7779 44.2399 57.1236 44.6652 57.7574 44.8455C57.9951 44.9104 58.2472 44.9681 58.4993 44.9753C59.45 44.9969 60.3791 44.8888 61.121 44.2182C61.7188 43.6775 61.5891 43.0502 60.8185 42.8483C60.1919 42.6825 59.5364 42.7041 58.9026 42.6032ZM60.4007 37.9672C60.3936 37.3837 60.2567 37.1813 60.1198 36.8136C59.9614 36.3954 59.6445 36.1287 59.1691 36.1142C58.6722 36.0998 58.3408 36.3522 58.1536 36.7776C57.8079 37.5634 57.8079 38.371 58.1464 39.1568C58.3336 39.5822 58.665 39.8418 59.1619 39.8274C59.6373 39.8129 59.9614 39.5462 60.1198 39.128C60.2495 38.7603 60.3575 38.5012 60.4007 37.9672Z" fill="white"/>
<path d="M20.9963 42.0046C21.1044 41.918 21.198 41.8027 21.3277 41.7522C22.0047 41.4927 22.0263 41.4927 22.0263 40.7717C22.0407 38.3419 22.0335 35.9194 22.0407 33.4896C22.0407 33.194 21.8822 33.0642 21.6302 32.9849C21.5149 32.9489 21.4213 32.8551 21.3132 32.783C21.4069 32.6893 21.4933 32.5595 21.6085 32.5163C22.1055 32.3144 22.6097 32.1197 23.1211 31.9467C23.4956 31.8241 23.5964 31.9034 23.6036 32.3144C23.618 33.1075 23.6108 33.9006 23.618 34.6937C23.618 35.3137 23.618 35.9338 23.618 36.6259C23.8125 36.5034 23.9493 36.4168 24.0862 36.3303C24.9361 35.7607 25.8652 35.631 26.8375 35.8545C27.7306 36.0563 28.2204 36.698 28.2276 37.6209C28.2276 38.7024 28.242 39.7839 28.2204 40.8654C28.2132 41.298 28.3356 41.5864 28.7678 41.709C28.847 41.7306 28.919 41.7738 28.9911 41.8243C29.1567 41.9397 29.1135 42.055 28.9478 42.0983C28.8038 42.1416 28.6381 42.1343 28.4869 42.1343C27.745 42.1343 27.0032 42.1343 26.2613 42.1343C26.1389 42.1343 26.0164 42.1488 25.9012 42.1127C25.8292 42.0911 25.7283 42.0046 25.7211 41.9397C25.7139 41.882 25.8076 41.7594 25.8724 41.7522C26.6719 41.6441 26.7151 41.0528 26.7223 40.44C26.7223 39.6253 26.7223 38.8033 26.7223 37.9886C26.7223 37.2532 26.427 36.8639 25.6851 36.7629C25.325 36.7125 24.9361 36.7269 24.5832 36.8062C23.8413 36.9792 23.5604 37.3902 23.5604 38.1472C23.5604 39.0845 23.5604 40.0218 23.5604 40.9591C23.5604 41.4999 23.6252 41.5864 24.1726 41.6945C24.3023 41.7234 24.4391 41.709 24.5615 41.7522C24.6408 41.7811 24.6912 41.8892 24.7488 41.9613C24.684 42.019 24.6192 42.0911 24.5471 42.1199C24.4751 42.1488 24.3815 42.1271 24.2951 42.1271C23.3515 42.1271 22.4008 42.1271 21.4573 42.1271C21.3276 42.1271 21.198 42.1127 21.0684 42.0983C21.0324 42.0767 21.0107 42.0406 20.9963 42.0046Z" fill="white"/>
<path d="M77.7587 32.4007C78.7887 32.4007 79.8186 32.4007 80.8486 32.4007C81.54 32.4007 81.5976 32.4512 81.5904 33.165C81.5904 33.612 81.5904 34.0518 81.5688 34.4988C81.5616 34.5925 81.4536 34.679 81.3887 34.7656C81.3095 34.6935 81.1727 34.6286 81.1583 34.5493C80.9638 33.5255 80.2219 33.1794 79.3216 33.0712C78.7815 33.0063 78.2269 33.0208 77.6723 33.0208C77.3266 33.0208 77.1321 33.2371 77.1321 33.5687C77.1105 34.506 77.1033 35.4433 77.1321 36.3806C77.1321 36.496 77.3482 36.7123 77.4562 36.7123C78.0612 36.6978 78.6806 36.6762 79.2712 36.5464C79.5161 36.496 79.7106 36.1859 79.9122 35.9768C79.9987 35.8831 79.9987 35.7245 80.0707 35.6163C80.1427 35.5082 80.258 35.4289 80.3516 35.3352C80.4236 35.4577 80.5244 35.5659 80.5677 35.6957C80.6037 35.8038 80.5893 35.9336 80.5893 36.0561C80.5893 36.8276 80.5965 37.5919 80.5821 38.3633C80.5821 38.5003 80.4524 38.6301 80.3804 38.7599C80.2796 38.6589 80.1211 38.5652 80.0923 38.4499C79.8978 37.5774 79.2784 37.3251 78.4934 37.3035C78.1837 37.2963 77.8667 37.2963 77.557 37.3107C77.2761 37.3251 77.1249 37.4693 77.1249 37.7721C77.1321 38.7671 77.1249 39.7621 77.1321 40.7643C77.1321 41.1175 77.3122 41.3555 77.6651 41.442C77.9892 41.5213 78.3277 41.5573 78.6446 41.6511C78.7743 41.6943 78.8751 41.8457 78.9831 41.9539C78.8535 42.026 78.7238 42.1486 78.587 42.1486C77.1033 42.163 75.6124 42.1558 74.1287 42.1558C73.9558 42.1558 73.7469 42.1918 73.7469 41.9106C73.7469 41.6439 73.9486 41.6583 74.1215 41.6294C74.1719 41.6222 74.2151 41.6222 74.2655 41.6222C75.1298 41.5573 75.1514 41.5213 75.1658 40.6633C75.1946 38.4571 75.2234 36.2436 75.2595 34.0374C75.2595 33.9436 75.2595 33.8427 75.2595 33.749C75.2379 33.201 75.065 33.028 74.5248 32.9775C74.3159 32.9631 73.9918 33.0496 73.9918 32.7179C73.9918 32.343 74.3376 32.4223 74.568 32.4223C75.6268 32.3935 76.6927 32.4007 77.7587 32.4007Z" fill="white"/>
<path d="M111.495 37.0945C111.466 38.7311 111.264 40.065 110.371 41.1825C109.01 42.8913 106.525 42.7399 105.38 40.8725C104.71 39.7766 104.559 38.5581 104.566 37.3035C104.573 36.2004 104.746 35.1261 105.301 34.1456C105.92 33.0569 106.813 32.3719 108.117 32.4008C109.435 32.4296 110.35 33.1362 110.89 34.3042C111.092 34.7368 111.236 35.2055 111.322 35.6669C111.43 36.2221 111.459 36.7916 111.495 37.0945ZM109.81 36.7484C109.774 36.3302 109.781 35.739 109.665 35.1622C109.55 34.571 109.399 33.9581 109.118 33.4318C108.643 32.5522 107.584 32.5522 107.044 33.3885C106.842 33.6986 106.691 34.0446 106.597 34.3979C106.122 36.186 106.143 38.0101 106.424 39.8198C106.511 40.375 106.712 40.9446 107.001 41.4204C107.447 42.1558 108.391 42.1703 108.902 41.4853C109.154 41.1465 109.334 40.7355 109.457 40.3317C109.795 39.2286 109.817 38.075 109.81 36.7484Z" fill="white"/>
<path d="M6.14482 37.3396C6.14482 38.5077 6.16643 39.6468 6.17363 40.8148C6.18084 41.4349 6.29607 41.5358 6.90108 41.5863C7.13876 41.6007 7.38364 41.6079 7.61412 41.6728C7.72216 41.7017 7.78698 41.8603 7.87341 41.954C7.77257 42.0117 7.66454 42.1198 7.5637 42.1271C7.13156 42.1415 6.69941 42.1054 6.26726 42.1126C5.22291 42.1343 4.18576 42.1631 3.1414 42.1919C3.05497 42.1919 2.96854 42.2136 2.88932 42.1919C2.80289 42.1631 2.73086 42.091 2.64443 42.0405C2.71646 41.954 2.76688 41.8314 2.85331 41.7954C2.99015 41.7377 3.15581 41.7377 3.31426 41.7089C4.03451 41.6007 4.27219 41.3412 4.2938 40.6058C4.2938 40.5553 4.2938 40.512 4.2938 40.4616C4.2938 38.3562 4.2938 36.2581 4.2938 34.1528C4.2938 33.4535 4.18576 33.3453 3.48712 33.3165C3.24944 33.3093 3.00456 33.2949 2.76688 33.3021C1.9458 33.3237 1.29037 33.6626 0.822215 34.3547C0.706976 34.5205 0.613345 34.7152 0.469296 34.8522C0.375664 34.9459 0.210008 34.9604 0.0731614 35.0036C0.0515541 34.881 0.0227443 34.7657 0.00113697 34.6431C-0.00606548 34.5999 0.0227443 34.5494 0.0371492 34.5061C0.27483 33.7923 0.505309 33.0713 0.764597 32.3648C0.807811 32.2494 0.937455 32.1268 1.04549 32.098C1.11752 32.0836 1.25436 32.2134 1.31918 32.3143C1.55687 32.6387 1.90258 32.6748 2.2483 32.682C3.73921 32.6964 5.22291 32.6964 6.71382 32.7036C7.43406 32.7036 8.15431 32.7036 8.87455 32.6892C9.27069 32.682 9.63801 32.5811 9.79646 32.1413C9.82527 32.0692 9.96932 31.9754 10.0053 31.9971C10.0846 32.0403 10.1854 32.1485 10.1782 32.2278C10.1638 33.0209 10.1422 33.814 10.099 34.5999C10.0918 34.6864 9.96932 34.7657 9.8973 34.8522C9.81807 34.7729 9.72444 34.708 9.65962 34.6215C9.62361 34.571 9.6236 34.4845 9.602 34.4124C9.46515 33.8284 9.09062 33.4823 8.50723 33.4246C7.8518 33.3597 7.19638 33.3525 6.53376 33.3309C6.20965 33.3165 6.14482 33.5328 6.14482 33.8068C6.15202 34.982 6.14482 36.1644 6.14482 37.3396Z" fill="white"/>
<path d="M31.8143 35.4795C31.8143 35.9265 31.8143 36.2798 31.8143 36.7412C32.0304 36.6187 32.1744 36.561 32.2969 36.4673C32.8731 36.0563 33.4853 35.7607 34.2199 35.7607C35.718 35.7679 36.4815 36.5033 36.4959 38.0102C36.5103 38.9691 36.4959 39.928 36.4959 40.8942C36.4959 41.5286 36.4959 41.5286 37.1081 41.6873C37.1873 41.7089 37.281 41.7233 37.3458 41.7738C37.4106 41.8243 37.4538 41.918 37.5042 41.9901C37.4322 42.0406 37.3602 42.1199 37.281 42.1271C37.0937 42.1415 36.8992 42.1271 36.7048 42.1199C35.9125 42.1127 35.1202 42.1054 34.328 42.091C34.1767 42.091 34.0255 42.0478 33.867 42.0261C33.867 41.9757 33.8598 41.9252 33.8598 41.8747C34.0327 41.8315 34.2055 41.7738 34.3784 41.7522C34.7241 41.7017 34.933 41.5286 34.933 41.1681C34.933 40.0434 34.9618 38.9114 34.9114 37.7867C34.8825 37.145 34.544 36.7917 33.9174 36.7557C33.4205 36.7268 32.8947 36.8133 32.4049 36.9359C31.9872 37.0441 31.7927 37.3901 31.7999 37.8516C31.8143 38.8754 31.7999 39.892 31.8071 40.9158C31.8071 41.5359 31.9151 41.6512 32.5273 41.781C32.6858 41.817 32.9595 41.7305 32.9523 42.0261C32.9523 42.0694 32.6498 42.1271 32.4913 42.1271C31.6198 42.1343 30.7411 42.1343 29.8696 42.1343C29.74 42.1343 29.6104 42.1343 29.4807 42.1343C29.4591 42.0982 29.4375 42.0622 29.4159 42.0333C29.5095 41.9468 29.596 41.817 29.704 41.781C30.1145 41.6512 30.273 41.3772 30.273 40.9735C30.273 39.9497 30.2874 38.9331 30.2874 37.9092C30.2874 37.6209 30.1361 37.4262 29.8768 37.2892C29.6248 37.1594 29.6536 37.0008 29.8841 36.8422C30.3954 36.4889 30.8852 36.114 31.3894 35.7535C31.5046 35.6597 31.6198 35.5949 31.8143 35.4795Z" fill="white"/>
<path d="M87.6765 41.0456C87.7053 41.4494 87.4893 41.6945 87.2084 41.8892C86.5817 42.3362 85.7607 42.3218 85.1412 41.8171C84.8676 41.5936 84.6803 41.6008 84.3994 41.781C83.8016 42.1631 83.1462 42.3794 82.4259 42.3578C81.7417 42.3434 81.36 41.9757 81.3095 41.2979C81.2591 40.5986 81.5112 40.029 82.0226 39.5676C82.6564 39.0052 83.4271 38.7096 84.1977 38.4068C84.8748 38.14 84.9468 38.0246 84.9036 37.3108C84.882 36.9359 84.7955 36.5826 84.4138 36.4096C84.0033 36.2221 83.5639 36.2221 83.2254 36.5249C82.9877 36.7412 82.8005 37.0369 82.6708 37.3325C82.4619 37.7939 82.0874 38.0823 81.5904 38.0751C81.2879 38.0751 81.1439 37.9165 81.2159 37.6497C81.2807 37.419 81.396 37.1738 81.5616 36.9936C82.6276 35.8544 83.9528 35.5444 85.4438 35.8616C86.1064 36.0058 86.4017 36.4529 86.3945 37.2027C86.3873 38.1905 86.3513 39.171 86.3441 40.1588C86.3369 40.9879 86.3729 41.4349 87.4532 41.0384C87.5109 41.024 87.6189 40.9884 87.6765 41.0456ZM84.8964 39.6252C84.8748 39.3729 84.8748 39.171 84.8315 38.9908C84.8099 38.9042 84.6803 38.7961 84.5939 38.7961C83.8088 38.7961 82.7933 39.7838 82.7572 40.5625C82.7428 40.9519 82.9517 41.3052 83.283 41.4277C83.8952 41.6512 84.6155 41.2979 84.7595 40.6707C84.846 40.3102 84.8603 39.9353 84.8964 39.6252Z" fill="white"/>
<path d="M102.276 32.4009C102.427 32.4009 102.571 32.3865 102.708 32.4009C102.939 32.4298 103.356 32.4586 103.356 32.5091C103.378 32.884 103.356 33.2661 103.255 33.6266C103.227 33.7348 102.917 33.7997 102.73 33.8213C101.909 33.9078 101.08 33.9439 100.266 34.0376C99.8343 34.0881 99.4814 34.6937 99.6614 35.0758C99.7334 35.2272 99.9783 35.3426 100.173 35.3931C100.576 35.5012 100.994 35.5517 101.404 35.6238C101.426 35.631 101.455 35.631 101.476 35.6382C103.853 36.2366 104.732 38.6736 103.241 40.6419C102.204 42.0118 100.735 42.6391 99.042 42.7616C98.9268 42.7689 98.7971 42.6463 98.6747 42.5886C98.7827 42.5093 98.8836 42.3795 99.006 42.3507C99.9783 42.1272 100.886 41.7667 101.628 41.0817C102.326 40.4472 102.658 39.6542 102.564 38.7024C102.499 38.0031 102.153 37.4623 101.512 37.2316C100.893 37.0081 100.223 36.8639 99.5678 36.7918C98.7179 36.6909 98.6891 36.6981 98.9196 35.8689C99.1717 34.9461 99.4309 34.016 99.6686 33.0931C99.7479 32.7831 99.9207 32.6317 100.238 32.6028C100.922 32.5451 101.599 32.4658 102.276 32.4009Z" fill="white"/>
<path d="M41.0622 35.739C42.6972 35.7679 44.0872 36.7412 44.4906 38.1688C45.038 40.1227 43.6839 42.091 41.6096 42.3217C40.0539 42.4947 38.7358 42.0261 37.9147 40.6346C36.7912 38.7311 37.9579 36.3086 40.1763 35.8544C40.4644 35.7895 40.7669 35.7751 41.0622 35.739ZM42.9709 39.0268C42.9348 38.1976 42.8124 37.3685 42.2362 36.6907C41.588 35.9337 40.6301 35.9048 39.9386 36.6258C39.7802 36.7917 39.6361 36.9719 39.5425 37.181C38.9735 38.4716 38.9519 39.7622 39.5929 41.0311C39.8882 41.6223 40.3708 42.0261 41.0694 42.0189C41.7464 42.0117 42.193 41.6007 42.5099 41.0311C42.8628 40.4111 42.9492 39.7333 42.9709 39.0268Z" fill="white"/>
<path d="M52.0964 35.739C53.8754 35.7679 55.3735 36.9575 55.5896 38.5293C55.8489 40.4399 54.5525 42.1054 52.615 42.3289C51.3474 42.4731 50.2238 42.1703 49.3451 41.2114C48.5168 40.3101 48.2935 39.2286 48.6753 38.0678C49.0714 36.8421 49.9789 36.15 51.2105 35.8616C51.4986 35.7823 51.8011 35.7751 52.0964 35.739ZM50.1662 39.0484C50.1662 39.9064 50.3246 40.5769 50.6631 41.1176C51.3978 42.3073 52.7951 42.3361 53.4649 41.1176C54.2212 39.755 54.2212 38.3202 53.4433 36.9647C52.7879 35.8183 51.441 35.8255 50.7136 36.9214C50.2958 37.5631 50.1518 38.2841 50.1662 39.0484Z" fill="white"/>
<path d="M12.2957 38.6446C11.7195 38.6446 11.1506 38.5725 10.5744 38.5797C10.1494 38.5797 9.99096 38.7455 9.97656 39.1637C9.93334 40.7066 11.6187 41.7953 13.052 41.1464C13.3113 41.0311 13.5562 40.8653 13.8155 40.7499C13.9163 40.7066 14.0531 40.7427 14.1756 40.7427C14.154 40.8653 14.1684 41.0095 14.1108 41.1032C13.5994 41.8458 12.8503 42.1991 11.986 42.3145C10.0414 42.574 8.6297 41.4853 8.36321 39.5458C8.12553 37.8154 9.46518 36.0274 11.1938 35.7822C12.7927 35.5515 14.1252 36.5249 14.3628 38.1038C14.4349 38.6085 14.4061 38.6446 13.9163 38.6446C13.3761 38.6446 12.8359 38.6446 12.2957 38.6446ZM11.0929 38.1399C11.1001 38.1399 11.0929 38.1399 11.1001 38.1399C11.4603 38.1038 11.8204 38.0894 12.1733 38.0245C12.7351 37.9308 12.9007 37.7433 12.9368 37.2387C12.9656 36.7772 12.7063 36.4095 12.2453 36.2653C11.2802 35.9625 10.1134 36.77 10.0414 37.7722C10.027 37.9813 10.1062 38.0966 10.3079 38.1111C10.5744 38.1255 10.8264 38.1399 11.0929 38.1399Z" fill="white"/>
<path d="M68.8421 35.9843C69.3247 35.9843 69.6056 35.9915 69.9873 35.9915C70.1026 35.9915 70.225 36.0924 70.3403 36.1501C70.2538 36.2294 70.1674 36.3159 70.0882 36.3952C69.9081 36.5755 69.6632 36.7341 69.5552 36.9504C68.7989 38.5006 68.0499 40.0579 67.3368 41.6297C66.9623 42.4444 66.6598 43.2952 66.3069 44.1243C66.17 44.456 66.026 44.7876 65.8315 45.0905C65.5002 45.6024 64.9024 45.7177 64.3766 45.4221C64.0669 45.2491 63.9229 44.8597 64.0381 44.4776C64.1317 44.1604 64.4703 43.9657 64.8376 44.0234C65.5218 44.1171 65.7955 43.9729 66.098 43.3529C66.3861 42.7616 66.4365 42.1921 66.1556 41.5576C65.5074 40.0867 64.9168 38.5943 64.3118 37.1018C64.1894 36.8062 64.0093 36.6043 63.714 36.4818C63.5916 36.4313 63.5195 36.2583 63.4187 36.1429C63.5555 36.0924 63.6852 35.9987 63.822 35.9987C64.6863 35.9843 65.5434 35.9843 66.4077 35.9987C66.5302 35.9987 66.6454 36.0924 66.7678 36.1357C66.6742 36.2078 66.5878 36.3087 66.4797 36.3448C65.8747 36.5394 65.7523 36.763 65.9756 37.3614C66.3285 38.2915 66.6886 39.2215 67.0559 40.1444C67.0919 40.2454 67.1928 40.3175 67.2648 40.404C67.344 40.3247 67.4593 40.2598 67.5025 40.1588C67.8842 39.3225 68.2659 38.4789 68.6333 37.6282C68.7053 37.4551 68.7341 37.2604 68.7629 37.073C68.8133 36.7485 68.6549 36.5467 68.3524 36.4457C68.2587 36.4169 68.1579 36.4097 68.0787 36.352C68.0067 36.3015 67.9634 36.2006 67.9058 36.1285C67.9923 36.078 68.0715 35.9987 68.1579 35.9915C68.4964 35.9776 68.6117 35.9843 68.8421 35.9843Z" fill="white"/>
<path d="M44.4764 41.9832C44.6205 41.9111 44.7573 41.8174 44.9014 41.7741C45.7585 41.5362 45.7945 41.5074 45.7945 40.6277C45.8017 38.4287 45.7945 36.2369 45.8017 34.0378C45.8017 33.6485 45.7009 33.3673 45.3047 33.2231C45.2039 33.1871 45.067 33.0357 45.0742 32.9563C45.0886 32.8482 45.2111 32.704 45.3191 32.6607C45.8665 32.4156 46.4211 32.1993 46.9685 31.9686C47.199 31.8749 47.307 31.9325 47.307 32.1849C47.307 32.3507 47.3214 32.5237 47.3214 32.6896C47.3214 35.3933 47.3214 38.0898 47.3214 40.7936C47.3214 41.4641 47.3358 41.4785 47.984 41.6371C48.1497 41.6804 48.3081 41.7237 48.4594 41.7958C48.5242 41.8318 48.5746 41.9399 48.5818 42.0193C48.5818 42.0481 48.4666 42.1274 48.3946 42.1346C48.1569 42.149 47.9192 42.1346 47.6743 42.1346C46.7308 42.1418 45.7801 42.1418 44.8366 42.149C44.7285 42.149 44.6277 42.1418 44.5197 42.1346C44.5125 42.0697 44.498 42.0265 44.4764 41.9832Z" fill="white"/>
<path d="M89.859 42.4227C89.2035 42.3583 88.8506 42.228 88.3608 42.0982C88.0511 42.0189 87.8855 41.7954 87.9215 41.4493C87.9503 41.197 87.9287 40.9446 87.9647 40.6923C87.9791 40.5841 88.0511 40.4116 88.1592 40.3823C88.3032 40.3756 88.3753 40.5198 88.4257 40.6274C88.456 40.6923 88.4761 40.7355 88.4977 40.7932C88.9082 41.9108 89.9886 41.9829 90.7593 41.7377C91.4147 41.5286 91.6163 40.786 91.1194 40.303C90.8097 40.0001 90.3991 39.7983 90.0174 39.582C89.6357 39.3657 89.2107 39.2143 88.829 38.9835C87.8711 38.3923 87.7991 37.1234 88.6561 36.3952C89.4844 35.6886 91.1986 35.5372 92.1277 36.0923C92.2214 36.1428 92.3222 36.2654 92.3294 36.3591C92.351 36.6908 92.3366 37.0296 92.315 37.3685C92.315 37.4334 92.243 37.5488 92.1997 37.556C92.1205 37.5632 92.0053 37.5199 91.9549 37.4622C91.854 37.3324 91.7892 37.1738 91.7028 37.0296C91.3427 36.3879 90.5576 36.0923 89.8734 36.3519C89.5853 36.46 89.3836 36.6475 89.3332 36.9647C89.2828 37.2892 89.4628 37.4983 89.7149 37.6353C90.1038 37.8444 90.5144 38.0102 90.9033 38.2265C91.3138 38.45 91.746 38.6519 92.0989 38.9475C93.1001 39.7983 92.9056 41.3556 91.746 41.9685C91.1698 42.2785 90.8601 42.3943 89.859 42.4227Z" fill="white"/>
<path d="M18.8573 35.6958C19.3614 35.7967 19.8728 35.8544 20.3626 35.9986C20.8091 36.1284 20.9532 36.3952 20.9532 36.835C20.946 37.419 20.593 37.6425 20.0745 37.3541C19.8656 37.2387 19.6855 37.0369 19.5343 36.8422C18.8717 36.013 17.9786 35.9842 17.2727 36.7701C16.466 37.6641 16.2788 39.3873 16.8694 40.4255C17.4456 41.4349 19.0013 41.8603 20.0745 41.3052C20.2257 41.2258 20.3698 41.1465 20.5282 41.1033C20.6003 41.0816 20.7371 41.1177 20.7731 41.1754C20.8091 41.233 20.7947 41.3772 20.7443 41.4349C20.6075 41.5863 20.4634 41.7377 20.2833 41.8315C19.1093 42.4515 17.8705 42.5885 16.6389 42.0838C14.7951 41.334 14.2693 38.8321 15.5801 37.2099C16.4228 36.1717 17.532 35.7246 18.8573 35.6958Z" fill="white"/>
<path d="M93.8994 39.1349C93.8994 38.522 93.8922 37.9092 93.8994 37.2963C93.8994 37.0656 93.8273 36.9863 93.5897 36.9719C93.4024 36.9574 93.0927 36.8853 93.0495 36.77C92.9486 36.4888 93.28 36.4527 93.4528 36.3734C94.101 36.085 94.4612 35.7611 94.9869 35.0612C95.059 34.9531 95.203 34.8598 95.3255 34.7877C95.4119 34.745 95.4767 34.7156 95.4767 35.2126C95.4695 35.3285 95.4695 35.3785 95.4695 35.465C95.4767 35.9408 95.5847 36.049 96.0673 36.0562C96.4274 36.0562 96.7876 36.0706 97.1477 36.0562C97.3926 36.049 97.5006 36.1211 97.4934 36.3806C97.4862 36.6258 97.4646 36.8132 97.1549 36.806C96.7227 36.7988 96.2906 36.8205 95.8584 36.7988C95.5055 36.7844 95.3903 36.943 95.3975 37.2675C95.4047 38.349 95.3975 39.4305 95.4047 40.512C95.4047 41.0455 95.6712 41.3123 96.2041 41.3123C96.4922 41.3123 96.7731 41.2474 97.0612 41.2257C97.1693 41.2185 97.3349 41.2402 97.3637 41.2978C97.3998 41.3844 97.3709 41.543 97.3061 41.6223C96.982 42.0549 96.5139 42.2207 96.0097 42.3217C95.88 42.3505 95.7504 42.3505 95.6135 42.3577C94.4107 42.3938 93.8922 41.8891 93.885 40.6922C93.8994 40.1731 93.9066 39.654 93.8994 39.1349Z" fill="white"/>
<path d="M108.79 18.4537C108.79 16.771 110.155 15.4058 111.835 15.4058C113.516 15.4058 114.879 16.771 114.879 18.4537C114.879 20.1365 113.516 21.5008 111.835 21.5008C110.155 21.5008 108.79 20.1365 108.79 18.4537Z" fill="#86BC24"/>
<path d="M11.6858 10.3818C11.6858 8.45124 11.3132 7.01897 10.5678 6.08588C9.82156 5.15367 8.69115 4.688 7.17142 4.688H5.55478V16.4937H6.79165C8.47969 16.4937 9.7167 15.9927 10.5043 14.9873C11.291 13.9837 11.6858 12.4482 11.6858 10.3818ZM17.4511 10.1807C17.4511 13.6979 16.5067 16.4081 14.6178 18.3104C12.7289 20.2137 10.0735 21.1653 6.65072 21.1653H-0.00012207V0.0895996H7.11498C10.4153 0.0895996 12.9632 0.954775 14.7587 2.68426C16.5534 4.41462 17.4511 6.91228 17.4511 10.1807Z" fill="white"/>
<path d="M35.874 21.1648H41.1663V0.000976562H35.874V21.1648Z" fill="white"/>
<path d="M48.6009 13.2707C48.6009 14.62 48.7771 15.6492 49.1287 16.3565C49.4811 17.0647 50.0713 17.4184 50.9012 17.4184C51.7223 17.4184 52.3029 17.0647 52.6412 16.3565C52.9795 15.6492 53.1478 14.62 53.1478 13.2707C53.1478 11.9283 52.9768 10.9159 52.6342 10.2324C52.2906 9.54709 51.7048 9.204 50.874 9.204C50.0617 9.204 49.4811 9.54534 49.1287 10.2244C48.7771 10.9044 48.6009 11.9195 48.6009 13.2707ZM58.5344 13.2707C58.5344 15.8415 57.8612 17.847 56.5115 19.2846C55.1627 20.723 53.2747 21.4427 50.8475 21.4427C48.5199 21.4427 46.667 20.7071 45.2917 19.2361C43.9147 17.765 43.2267 15.7771 43.2267 13.2707C43.2267 10.7077 43.9007 8.7163 45.2505 7.29638C46.6001 5.87646 48.4925 5.1665 50.9294 5.1665C52.4351 5.1665 53.7672 5.49548 54.9214 6.15253C56.0764 6.80957 56.968 7.7506 57.5944 8.9765C58.2217 10.2006 58.5344 11.6329 58.5344 13.2707Z" fill="white"/>
<path d="M60.6361 21.1649H65.9293V13.0652V5.44434H60.6361V21.1649Z" fill="white"/>
<path d="M60.636 3.54274H65.9292V0H60.636V3.54274Z" fill="white"/>
<path d="M76.6529 17.1552C77.3674 17.1552 78.2184 16.9736 79.2113 16.6129V20.5683C78.4976 20.8823 77.8193 21.1072 77.1744 21.2404C76.5295 21.3753 75.7727 21.4423 74.9066 21.4423C73.1296 21.4423 71.8486 20.9952 71.0618 20.1027C70.2786 19.2102 69.8857 17.8396 69.8857 15.9902V9.50972H68.0321V5.44574H69.8857V1.43115L75.2195 0.502441V5.44574H78.5964V9.50972H75.2195V15.6286C75.2195 16.6464 75.6978 17.1552 76.6529 17.1552Z" fill="white"/>
<path d="M88.9034 17.1552C89.6179 17.1552 90.4691 16.9736 91.4619 16.6129V20.5683C90.7492 20.8823 90.0698 21.1072 89.4249 21.2404C88.7792 21.3753 88.025 21.4423 87.1571 21.4423C85.3802 21.4423 84.0992 20.9952 83.3142 20.1027C82.5293 19.2102 82.1364 17.8396 82.1364 15.9902V9.50972H80.2817V5.44574H82.1364V1.3703L87.4691 0.502441V5.44574H90.8478V9.50972H87.4691V15.6286C87.4691 16.6464 87.9475 17.1552 88.9034 17.1552Z" fill="white"/>
<path d="M98.1405 11.3553C98.2127 10.4945 98.4587 9.86395 98.878 9.46091C99.2992 9.05874 99.8189 8.85767 100.441 8.85767C101.119 8.85767 101.658 9.08342 102.058 9.53851C102.461 9.99094 102.671 10.5968 102.688 11.3553H98.1405ZM105.605 7.01972C104.346 5.78501 102.561 5.16675 100.252 5.16675C97.8251 5.16675 95.9574 5.8767 94.6482 7.29662C93.3399 8.71654 92.6852 10.7539 92.6852 13.4085C92.6852 15.9793 93.3927 17.9619 94.8041 19.3536C96.2163 20.7453 98.1995 21.4421 100.754 21.4421C101.98 21.4421 103.036 21.3583 103.92 21.1916C104.799 21.0267 105.65 20.7285 106.476 20.2982L105.663 16.7554C105.063 17.0006 104.492 17.1893 103.953 17.3137C103.174 17.4945 102.319 17.5853 101.389 17.5853C100.369 17.5853 99.5634 17.3357 98.9731 16.8366C98.3828 16.3365 98.0683 15.6468 98.0322 14.7684H107.493V12.3546C107.493 10.0324 106.863 8.25356 105.605 7.01972Z" fill="white"/>
<path d="M24.4753 11.3553C24.5475 10.4945 24.7933 9.86395 25.2126 9.46091C25.6329 9.05874 26.1537 8.85767 26.7766 8.85767C27.4532 8.85767 27.9924 9.08342 28.3933 9.53851C28.7958 9.99094 29.0047 10.5968 29.0232 11.3553H24.4753ZM31.9402 7.01972C30.6813 5.78501 28.8971 5.16675 26.5872 5.16675C24.159 5.16675 22.2921 5.8767 20.9837 7.29662C19.6755 8.71654 19.02 10.7539 19.02 13.4085C19.02 15.9793 19.7266 17.9619 21.1398 19.3536C22.5512 20.7453 24.5343 21.4421 27.0884 21.4421C28.3148 21.4421 29.3702 21.3583 30.2548 21.1916C31.134 21.0267 31.9852 20.7285 32.8116 20.2982L31.9975 16.7554C31.3975 17.0006 30.8266 17.1893 30.2883 17.3137C29.5077 17.4945 28.654 17.5853 27.7235 17.5853C26.7042 17.5853 25.8982 17.3357 25.308 16.8366C24.7168 16.3365 24.4031 15.6468 24.3671 14.7684H33.8274V12.3546C33.8274 10.0324 33.1983 8.25356 31.9402 7.01972Z" fill="white"/>
</svg>
