<svg width="145" height="99" viewBox="0 0 145 99" fill="none" xmlns="http://www.w3.org/2000/svg">
<g clip-path="url(#clip0_11_5950)">
<path d="M3.44995 92.4299C3.44995 92.4299 10.7199 41.9499 28.75 41.9499C46.78 41.9499 39.92 88.8499 55.88 88.8499C71.84 88.8499 56.21 32.8299 85.19 32.8299C114.17 32.8299 107.34 31.1999 109.94 19.1499C112.55 7.09993 126.23 9.04993 126.23 9.04993" stroke="#1C4663" stroke-width="6.89" stroke-linecap="round"/>
<path d="M28.6401 50.68C33.5201 50.68 37.4701 46.73 37.4701 41.85C37.4701 36.97 33.5201 33.02 28.6401 33.02C23.7601 33.02 19.8101 36.97 19.8101 41.85C19.8101 46.73 23.7601 50.68 28.6401 50.68Z" fill="#C3F97D"/>
<path d="M55.92 96.7401C60.8 96.7401 64.75 92.7901 64.75 87.9101C64.75 83.0301 60.79 79.0801 55.92 79.0801C51.05 79.0801 47.09 83.0301 47.09 87.9101C47.09 92.7901 51.04 96.7401 55.92 96.7401Z" fill="white"/>
<path d="M105.761 56.7539L101.951 60.3071L116.505 75.9142L120.315 72.361L105.761 56.7539Z" fill="white"/>
<path d="M124.44 90.64H124.45C124.45 90.64 124.53 90.74 124.58 90.79C127.72 94.14 132.51 94.74 135.28 92.13C138.05 89.52 137.74 84.7 134.6 81.35C134.55 81.3 134.5 81.26 134.45 81.21H134.46L123.06 69.1L123.02 69.14C119.89 66.24 115.46 65.79 112.84 68.27C110.22 70.74 110.39 75.2 113.09 78.5L113.05 78.54L124.45 90.64H124.44Z" fill="#4DAAD4"/>
<path d="M108.11 63.09C119.05 52.89 119.64 35.76 109.45 24.83C99.25 13.89 82.12 13.3 71.19 23.49C60.26 33.69 59.66 50.82 69.85 61.75C80.0499 72.68 97.18 73.28 108.11 63.09Z" fill="#4DAAD4"/>
<path d="M3.44995 92.4299C3.44995 92.4299 18.4299 41.9499 32.4399 41.9499C46.4499 41.9499 39.9299 88.8499 55.8899 88.8499C71.8499 88.8499 56.22 32.8299 85.2 32.8299C114.18 32.8299 107.35 31.1999 109.95 19.1499C112.56 7.09993 126.24 9.04993 126.24 9.04993" stroke="#6FC3E0" stroke-width="6.89" stroke-linecap="round"/>
<path d="M88.5699 24.6499C88.5699 24.6499 99.9899 24.6499 106.61 34.8699" stroke="white" stroke-width="6.36" stroke-linecap="round"/>
<path d="M128.96 17.67C133.84 17.67 137.79 13.72 137.79 8.84001C137.79 3.96001 133.83 0.0100098 128.96 0.0100098C124.09 0.0100098 120.13 3.97001 120.13 8.84001C120.13 13.71 124.09 17.67 128.96 17.67Z" fill="#4DAAD4"/>
<path d="M47.48 17.46V26.6" stroke="#C3F97D" stroke-width="2.12"/>
<path d="M52.04 22.03H42.91" stroke="#C3F97D" stroke-width="2.12"/>
<path d="M93.5 90.78V98.5" stroke="#68BFDF" stroke-width="1.06"/>
<path d="M97.36 94.6399H89.64" stroke="#68BFDF" stroke-width="1.06"/>
<path d="M14.38 14.1299H8.91003V19.5999H14.38V14.1299Z" fill="white"/>
<path d="M131.18 37.23H124.34V44.07H131.18V37.23Z" fill="white"/>
<path d="M134.87 33.55H131.09V37.3301H134.87V33.55Z" fill="white"/>
<path d="M144.41 44.0701H131.18V57.3001H144.41V44.0701Z" fill="#444B59"/>
</g>
<defs>
<clipPath id="clip0_11_5950">
<rect width="144.41" height="98.5" fill="white"/>
</clipPath>
</defs>
</svg>
