<svg width="119" height="121" viewBox="0 0 119 121" fill="none" xmlns="http://www.w3.org/2000/svg">
<g clip-path="url(#clip0_3_56)">
<g opacity="0.9">
<path opacity="0.9" d="M116.96 44.3499C125.11 76.3799 105.93 109.41 74.15 118.07C42.44 126.71 10.02 107.74 1.86998 75.7099C-6.26002 43.7599 12.92 10.7399 44.62 2.09995C76.41 -6.56005 108.82 12.3999 116.96 44.3499Z" fill="url(#paint0_linear_3_56)"/>
</g>
<path d="M116.96 44.35C108.83 12.4 76.41 -6.57003 44.62 2.09997C12.92 10.74 -6.26002 43.76 1.86998 75.71C10.02 107.74 42.44 126.71 74.15 118.07C105.94 109.41 125.12 76.38 116.96 44.35ZM72.27 110.69C44.6 118.23 16.31 101.68 9.18998 73.72C2.08998 45.84 18.83 17.01 46.51 9.46997C74.25 1.90997 102.54 18.46 109.64 46.35C116.76 74.31 100.02 103.13 72.27 110.69Z" fill="url(#paint1_linear_3_56)"/>
<path style="mix-blend-mode:multiply" opacity="0.3" d="M45.67 10.91C73.41 3.35 101.7 19.9 108.8 47.79C112.29 61.5 110.02 75.4 103.55 86.92C110.66 75.14 113.28 60.64 109.64 46.36C102.54 18.47 74.25 1.91 46.51 9.47C32.41 13.31 21.17 22.7 14.46 34.65C21.25 23.38 32.14 14.59 45.67 10.9V10.91Z" fill="url(#paint2_linear_3_56)"/>
<path d="M55.46 76.78C55.42 74.07 55.42 71.4 55.39 68.74C55.37 66.94 55.39 65.16 55.37 63.36C55.34 62.9 55.41 62.72 55.93 62.72C59.62 62.61 63.31 62.37 66.95 63.16C68.6 63.51 70.15 64.12 71.45 65.24C72.25 65.95 72.78 66.89 73.04 67.91C73.61 70.15 72.87 72.79 70.75 74.17C68.98 75.33 67 75.89 64.98 76.26C61.96 76.83 58.93 76.81 55.9 76.86L55.46 76.79V76.78ZM55.32 55.74C55.3 55.67 55.29 55.59 55.29 55.49C55.29 51.63 55.25 47.77 55.22 43.89C55.2 43.36 55.37 43.22 55.9 43.19C58.56 43.12 61.21 42.96 63.84 43.42C65.67 43.74 67.41 44.28 68.72 45.68C69.33 46.33 69.74 47.1 69.94 47.92C70.53 50.25 69.54 52.95 67.27 54.15C66.59 54.5 65.9 54.78 65.48 54.97C62.81 55.79 60.36 55.94 57.91 56C57.21 56 56.54 56 55.85 56.02C55.55 56.03 55.38 55.97 55.32 55.74ZM81.91 44.34C81.46 42.58 80.6 40.98 79.19 39.62C77.62 38.13 75.74 37.14 73.66 36.63C71.56 36.13 69.41 35.82 67.25 35.49C66.83 35.43 66.63 35.32 66.56 35.05C66.53 34.95 66.53 34.83 66.53 34.68C66.57 33.73 66.53 32.78 66.55 31.82C66.52 29.51 66.51 27.17 66.49 24.83L66.03 24.75C64.15 24.77 62.26 24.82 60.38 24.86C60.03 24.86 59.89 25.02 59.9 25.37C59.9 26.1 59.9 26.8 59.91 27.52C59.93 29.9 59.96 32.26 59.93 34.64L59.62 35.26C58.11 35.34 56.6 35.38 55.05 35.4C55.03 35.15 55 34.94 55 34.74C55 31.69 54.96 28.64 54.95 25.59C54.95 25.47 54.95 25.36 54.92 25.28C54.86 25.05 54.7 24.97 54.33 24.98C52.56 25.04 50.77 25.08 49.01 25.07C48.48 25.07 48.33 25.25 48.35 25.77C48.38 28.9 48.38 32 48.42 35.1C48.42 35.66 48.24 35.78 47.74 35.8C45.69 35.8 43.65 35.88 41.59 35.93C39.58 35.96 37.59 36.01 35.57 36.05L35.5 36.33C35.51 38.48 35.52 40.61 35.53 42.74C35.53 42.81 35.53 42.87 35.55 42.92C35.61 43.17 35.84 43.14 36.07 43.13C37.69 43.11 39.33 43.04 40.97 43.11C42.38 43.18 43.5 44.09 43.81 45.31C43.87 45.54 43.9 45.77 43.9 46.01C43.98 55.57 44.03 65.14 44.08 74.69C44.09 76.12 43.21 77.04 41.83 77.08C40.47 77.12 39.11 77.17 37.73 77.17C37.2 77.17 37.01 77.34 36.93 77.86C36.67 79.59 36.39 81.31 36.13 83.02C36.03 83.7 35.94 84.36 35.81 85.12C40.17 85.06 44.42 84.98 48.73 84.9C48.73 85.2 48.75 85.43 48.76 85.66C48.76 88.8 48.8 91.93 48.81 95.07C48.81 95.18 48.81 95.28 48.84 95.36C48.9 95.6 49.07 95.71 49.41 95.7C51.23 95.65 53.06 95.6 54.87 95.59C55.31 95.59 55.41 95.44 55.4 95.02C55.39 93.34 55.38 91.65 55.39 89.94C55.36 88.28 55.36 86.62 55.36 84.89C56.92 84.89 58.42 84.85 59.93 84.84C60.16 84.84 60.26 84.92 60.29 85.06C60.32 85.16 60.31 85.28 60.31 85.42C60.34 88.55 60.37 91.68 60.37 94.8C60.37 94.93 60.37 95.04 60.4 95.14C60.46 95.38 60.62 95.49 61 95.47C62.7 95.4 64.42 95.4 66.16 95.35C66.7 95.3433 66.97 95.06 66.97 94.5C66.96 91.43 66.93 88.39 66.89 85.33C66.87 84.7 67.08 84.53 67.7 84.48C71.41 84.15 75.05 83.56 78.48 81.99C81.17 80.77 83.29 78.87 84.62 76.15C85.75 73.83 86.14 71.33 86.17 68.79C86.19 67.47 86.08 66.16 85.76 64.9C85.58 64.19 85.33 63.49 84.99 62.81C83.79 60.39 81.83 58.89 79.38 57.94C78.61 57.66 77.85 57.42 77.02 57.15C77.28 56.99 77.46 56.87 77.65 56.72C78.99 55.86 80.09 54.79 80.92 53.39C81.99 51.57 82.34 49.63 82.3 47.58C82.29 46.45 82.16 45.36 81.9 44.33" fill="white"/>
<path style="mix-blend-mode:screen" opacity="0.29" d="M45.17 4.24997C14.64 12.57 -3.82996 44.37 4.01004 75.13C5.50004 80.99 8.06003 86.22 11.07 91.07L102.43 21.73C88.67 5.94998 66.85 -1.66003 45.17 4.24997Z" fill="url(#paint3_linear_3_56)"/>
</g>
<defs>
<linearGradient id="paint0_linear_3_56" x1="102.99" y1="46.9308" x2="-25.6719" y2="31.4544" gradientUnits="userSpaceOnUse">
<stop stop-color="#042D41"/>
<stop offset="0.03" stop-color="#03354B"/>
<stop offset="0.21" stop-color="#036384"/>
<stop offset="0.29" stop-color="#03759B"/>
<stop offset="0.42" stop-color="#05769C"/>
<stop offset="0.52" stop-color="#0F7B9F"/>
<stop offset="0.6" stop-color="#1F84A6"/>
<stop offset="0.68" stop-color="#3590AE"/>
<stop offset="0.75" stop-color="#52A0BA"/>
<stop offset="0.82" stop-color="#75B3C8"/>
<stop offset="0.88" stop-color="#9FCAD9"/>
<stop offset="0.95" stop-color="#CFE4EC"/>
<stop offset="1" stop-color="white"/>
</linearGradient>
<linearGradient id="paint1_linear_3_56" x1="120.809" y1="63.2487" x2="-78.3783" y2="-2.00403" gradientUnits="userSpaceOnUse">
<stop stop-color="#006D94"/>
<stop offset="0.64" stop-color="#6CDBA4"/>
<stop offset="0.85" stop-color="#99F2C5"/>
<stop offset="1" stop-color="#6CBBA4"/>
</linearGradient>
<linearGradient id="paint2_linear_3_56" x1="116.291" y1="51.9801" x2="-55.7207" y2="-4.37052" gradientUnits="userSpaceOnUse">
<stop stop-color="#385670"/>
<stop offset="0.05" stop-color="#36536D"/>
<stop offset="0.64" stop-color="#284055"/>
<stop offset="1" stop-color="#23394C"/>
</linearGradient>
<linearGradient id="paint3_linear_3_56" x1="77.0074" y1="4.46685" x2="-20.4085" y2="58.3554" gradientUnits="userSpaceOnUse">
<stop stop-color="white"/>
<stop offset="0.17" stop-color="#C7C7C7"/>
<stop offset="0.39" stop-color="#818181"/>
<stop offset="0.6" stop-color="#494949"/>
<stop offset="0.78" stop-color="#212121"/>
<stop offset="0.92" stop-color="#090909"/>
<stop offset="1"/>
</linearGradient>
<clipPath id="clip0_3_56">
<rect width="118.84" height="120.16" fill="white"/>
</clipPath>
</defs>
</svg>
