<svg width="119" height="121" viewBox="0 0 119 121" fill="none" xmlns="http://www.w3.org/2000/svg">
<g opacity="0.9">
<path opacity="0.9" d="M116.957 44.3499C125.107 76.3799 105.927 109.41 74.1472 118.07C42.4372 126.71 10.0172 107.74 1.86717 75.7099C-6.26283 43.7599 12.9172 10.7399 44.6172 2.09995C76.4072 -6.56005 108.817 12.3999 116.957 44.3499Z" fill="url(#paint0_linear_3_44)"/>
</g>
<path d="M116.957 44.35C108.827 12.4 76.4072 -6.57003 44.6172 2.09997C12.9172 10.74 -6.26283 43.76 1.86717 75.71C10.0172 107.74 42.4372 126.71 74.1472 118.07C105.937 109.41 125.117 76.38 116.957 44.35ZM72.2672 110.69C44.5972 118.23 16.3072 101.68 9.18717 73.72C2.08717 45.84 18.8272 17.01 46.5072 9.46997C74.2472 1.90997 102.537 18.46 109.637 46.35C116.757 74.31 100.017 103.13 72.2672 110.69Z" fill="url(#paint1_linear_3_44)"/>
<path style="mix-blend-mode:multiply" opacity="0.3" d="M45.6672 10.91C73.4072 3.35 101.697 19.9 108.797 47.79C112.287 61.5 110.017 75.4 103.547 86.92C110.657 75.14 113.277 60.64 109.637 46.36C102.537 18.47 74.2472 1.91 46.5072 9.47C32.4072 13.31 21.1672 22.7 14.4572 34.65C21.2472 23.38 32.1372 14.59 45.6672 10.9V10.91Z" fill="url(#paint2_linear_3_44)"/>
<path style="mix-blend-mode:screen" opacity="0.29" d="M45.1672 4.24997C14.6372 12.57 -3.83277 44.37 4.00723 75.13C5.49723 80.99 8.05723 86.22 11.0672 91.07L102.427 21.73C88.6672 5.94998 66.8472 -1.66003 45.1672 4.24997Z" fill="url(#paint3_linear_3_44)"/>
<path d="M87.9672 57.2899H83.2872V61.9699H78.6072V66.6499H83.2872V71.3299H87.9672V66.6499H92.6472V61.9699H87.9672V57.2899Z" fill="white"/>
<path d="M58.1771 96.69L59.7071 98.02L61.2372 96.69C68.5772 90.33 75.3971 84.91 80.8771 80.01C82.3771 80.46 83.9671 80.71 85.6171 80.71C94.6572 80.71 102.007 73.36 102.007 64.32C102.007 59.86 100.217 55.82 97.3171 52.86C97.1971 41.13 88.8371 31.71 77.4171 31.71C69.5871 31.71 63.5071 36.4 59.7071 43.32C55.9371 36.36 49.9471 31.71 42.1371 31.71C30.5371 31.71 22.0771 41.37 22.0771 53.11C22.0771 57.76 23.4571 62.16 26.3671 66.66H22.0771V71.34H29.9071C36.2771 78.74 46.2872 86.41 58.1572 96.69H58.1771ZM59.7071 91.83C50.1871 83.64 42.0872 77.24 36.3071 71.34H44.7671L48.0071 64.87L57.3772 83.6L65.8471 66.66H69.4072C70.0672 71.27 72.6571 75.26 76.3171 77.8C71.5571 81.97 65.8771 86.54 59.7171 91.83H59.7071ZM85.6171 76.03C79.1572 76.03 73.9072 70.78 73.9072 64.32C73.9072 57.86 79.1572 52.61 85.6171 52.61C92.0771 52.61 97.3271 57.86 97.3271 64.32C97.3271 70.78 92.0771 76.03 85.6171 76.03ZM26.7771 53.11C26.7771 43.58 33.3871 36.39 42.1472 36.39C52.4571 36.39 55.9371 46.24 57.6071 49.96H61.7971C62.2271 48.97 66.0171 36.39 77.4171 36.39C84.9071 36.39 90.8071 41.75 92.2771 49.35C90.2371 48.44 87.9771 47.93 85.6071 47.93C77.3671 47.93 70.5271 54.05 69.3871 61.98H62.9371L57.3571 73.13L47.9872 54.4L41.8571 66.66H32.1371C28.6871 62.25 26.7571 57.93 26.7571 53.11H26.7771Z" fill="white"/>
<defs>
<linearGradient id="paint0_linear_3_44" x1="102.46" y1="47.8409" x2="-26.1903" y2="32.359" gradientUnits="userSpaceOnUse">
<stop stop-color="#042D41"/>
<stop offset="0.03" stop-color="#03354B"/>
<stop offset="0.21" stop-color="#036384"/>
<stop offset="0.29" stop-color="#03759B"/>
<stop offset="0.42" stop-color="#05769C"/>
<stop offset="0.52" stop-color="#0F7B9F"/>
<stop offset="0.6" stop-color="#1F84A6"/>
<stop offset="0.68" stop-color="#3590AE"/>
<stop offset="0.75" stop-color="#52A0BA"/>
<stop offset="0.82" stop-color="#75B3C8"/>
<stop offset="0.88" stop-color="#9FCAD9"/>
<stop offset="0.95" stop-color="#CFE4EC"/>
<stop offset="1" stop-color="white"/>
</linearGradient>
<linearGradient id="paint1_linear_3_44" x1="120.287" y1="64.1436" x2="-78.8995" y2="-1.10909" gradientUnits="userSpaceOnUse">
<stop stop-color="#006D94"/>
<stop offset="0.64" stop-color="#6CDBA4"/>
<stop offset="0.85" stop-color="#99F2C5"/>
<stop offset="1" stop-color="#6CBBA4"/>
</linearGradient>
<linearGradient id="paint2_linear_3_44" x1="115.761" y1="52.8902" x2="-56.2509" y2="-3.4604" gradientUnits="userSpaceOnUse">
<stop stop-color="#385670"/>
<stop offset="0.05" stop-color="#36536D"/>
<stop offset="0.64" stop-color="#284055"/>
<stop offset="1" stop-color="#23394C"/>
</linearGradient>
<linearGradient id="paint3_linear_3_44" x1="76.4861" y1="5.36178" x2="-20.9297" y2="59.2503" gradientUnits="userSpaceOnUse">
<stop stop-color="white"/>
<stop offset="0.17" stop-color="#C7C7C7"/>
<stop offset="0.39" stop-color="#818181"/>
<stop offset="0.6" stop-color="#494949"/>
<stop offset="0.78" stop-color="#212121"/>
<stop offset="0.92" stop-color="#090909"/>
<stop offset="1"/>
</linearGradient>
</defs>
</svg>
